<?xml version="1.0" encoding="utf-8"?>
<!-- Generator: Adobe Illustrator 25.2.3, SVG Export Plug-In . SVG Version: 6.00 Build 0)  -->
<svg version="1.1" id="Layer_1" xmlns="http://www.w3.org/2000/svg" xmlns:xlink="http://www.w3.org/1999/xlink" x="0px" y="0px"
	 viewBox="0 0 95.02 148.58" style="enable-background:new 0 0 95.02 148.58;" xml:space="preserve">
<style type="text/css">
	.st0{fill:#FFFCF5;}
	.st1{fill:#EDE6D6;}
	.st2{fill:#FFFFFE;}
	.st3{fill:#FFBE89;}
	.st4{fill:#FFD5B4;}
	.st5{fill:none;stroke:#685C4E;stroke-width:2.8346;stroke-linecap:round;stroke-linejoin:round;stroke-miterlimit:10;}
	.st6{fill:#FFE19A;}
	.st7{fill:#FF977C;}
	.st8{fill:#FFB9A7;}
	.st9{fill:#FCE8C0;}
</style>
<g>
	<path class="st0" d="M12.21,40.37c-1.54-0.31-1.93-3.91-1.83-5.13c0.47-6.02,7.85-7.91,12.79-6.77c-0.06-0.01,1.81-3.12,1.95-3.3
		c1.85-2.4,4.36-4.25,7.32-4.99c12.07-3.01,31.7,6.91,25.01,21.59c0,0,0.35-1.56-7.95,0.45c-8.64,2.09-22.94,2.22-31.55-0.72
		C17.95,41.51,12.23,40.38,12.21,40.37z"/>
	<path class="st1" d="M44.05,20.64c0,0-1.19,18.01-11.12,23.18c0,0,11.74-0.29,16.58-1.59s6.34-1.98,7.82-1.2
		c0,0,2.58-4.18,1.57-6.92S52.92,23.61,44.05,20.64z"/>
	<path class="st2" d="M35.17,106.51c-17.74,0-25.83-9.96-29.48-16.22C2.04,84.03,4.2,66.86,9.87,58.51c4-5.9,3.55-13.21,3.02-16.73
		c-0.14-0.91,0.73-1.64,1.6-1.34c3.48,1.2,11.18,3.42,20.69,3.42s17.2-2.21,20.69-3.42c0.87-0.3,1.74,0.43,1.6,1.34
		c-0.54,3.52-0.99,10.83,3.02,16.73c5.66,8.35,7.83,25.52,4.17,31.78C61,96.56,52.91,106.51,35.17,106.51z"/>
	<path class="st2" d="M30.47,106.26v27.1c0,1.81-1.14,3.42-2.86,4.02c-3.66,1.28-9.86,3.84-12.73,7.31
		c-0.81,0.98-0.14,2.47,1.14,2.47c0,0,19.15,0,19.15,0h19.15c1.28,0,1.95-1.48,1.14-2.47c-2.87-3.47-9.08-6.03-12.73-7.31
		c-1.71-0.6-2.86-2.21-2.86-4.02v-27.1"/>
	<path class="st3" d="M49.95,84.11C47,89.6,40.45,98.32,26.1,98.32h-1.82c3.01,1.15,6.59,1.88,10.89,1.88
		c8.98,0,17.26-3.6,22.53-11.03c4.12-5.82,3.05-13.9,1.19-20.37c-1.87,0.82-4.48,1.8-7.75,2.65C51.7,76.6,51.38,81.47,49.95,84.11z"
		/>
	<path class="st4" d="M49.95,84.11c1.42-2.64,1.75-7.51,1.19-12.66c-4.26,1.11-9.65,2-15.97,2c-11.4,0-19.73-2.29-23.97-3.79
		c-1.62,6.17-2.54,13.75,1.29,19.29c1.46,2.12,3.36,4.12,5.35,5.74c1.43,1.16,4.52,3.63,6.44,3.63c0,0,1.82,0,1.82,0
		C40.45,98.32,47,89.6,49.95,84.11z"/>
	<path class="st5" d="M12.21,40.37c-1.54-0.31-1.93-3.91-1.83-5.13c0.47-6.02,7.85-7.91,12.79-6.77c-0.06-0.01,1.81-3.12,1.95-3.3
		c1.85-2.4,4.36-4.25,7.32-4.99c12.07-3.01,31.7,6.91,25.01,21.59c0,0,0.35-1.56-7.95,0.45c-8.64,2.09-22.94,2.22-31.55-0.72
		C17.95,41.51,12.23,40.38,12.21,40.37z"/>
	<path class="st6" d="M68.34,16.55c-13.96,0-25.27,11.31-25.27,25.27c0,0.52,0.02,1.03,0.05,1.54c2.7-0.34,5.13-0.81,7.2-1.31
		c0-0.08-0.01-0.15-0.01-0.23c0-9.96,8.07-18.03,18.03-18.03s18.03,8.07,18.03,18.03c0,9.96-8.07,18.03-18.03,18.03
		c-3,0-5.82-0.74-8.3-2.04c0.14,0.24,0.28,0.47,0.44,0.71c1.52,2.24,2.78,5.11,3.75,8.23c1.34,0.22,2.71,0.34,4.11,0.34
		c13.95,0,25.27-11.31,25.27-25.27C93.61,27.86,82.29,16.55,68.34,16.55z"/>
	<line class="st5" x1="68.34" y1="23.79" x2="68.34" y2="59.84"/>
	<line class="st5" x1="81.08" y1="29.07" x2="58.81" y2="51.34"/>
	<line class="st5" x1="86.36" y1="41.82" x2="58.81" y2="41.82"/>
	<line class="st5" x1="81.08" y1="54.56" x2="55.59" y2="29.07"/>
	<path class="st1" d="M40.86,136.07l3.44,11.09h10.02c0,0,3.24-1.3,0-3.65C51.08,141.17,40.86,136.07,40.86,136.07z"/>
	<path class="st5" d="M30.47,106.26v27.1c0,1.81-1.14,3.42-2.86,4.02c-3.66,1.28-9.86,3.84-12.73,7.31
		c-0.81,0.98-0.14,2.47,1.14,2.47c0,0,19.15,0,19.15,0h19.15c1.28,0,1.95-1.48,1.14-2.47c-2.87-3.47-9.08-6.03-12.73-7.31
		c-1.71-0.6-2.86-2.21-2.86-4.02v-27.1"/>
	<path class="st5" d="M50.31,41.82c0-9.96,8.07-18.03,18.03-18.03s18.03,8.07,18.03,18.03s-8.07,18.03-18.03,18.03
		c-2.49,0-4.86-0.5-7.02-1.42"/>
	<path class="st0" d="M50.31,57.16c-3.31-3.83-6.27-8.43-6.27-8.43s-4.7,1.12-8.87,1.12c-4.17,0-8.87-1.12-8.87-1.12
		c-3.5-0.6-6.24-1.43-7.86-1.99c-0.7-0.24-1.41,0.34-1.3,1.08c0.43,2.85,0.8,8.76-2.44,13.54c-1.35,1.99-2.45,4.61-3.26,7.43
		c1.54,0.67,3.58,1.46,6.08,2.19l0,0c0,0,0.01,0,0.01,0c0.54,0.16,1.09,0.31,1.67,0.46c0-0.05,0.01-0.09,0.02-0.14
		c5.36,0.98,22.2,3.63,31.93,0.14C51.15,71.45,53.63,60.99,50.31,57.16z"/>
	<path class="st1" d="M53.2,47.83c0.11-0.74-0.59-1.32-1.3-1.08c-1.62,0.56-4.36,1.39-7.86,1.99c0.31,2.47,0.87,5.87,2.08,8.43
		c2.22,4.69,4.42,8.75,5.02,14.28c3.27-0.85,5.88-1.84,7.75-2.65c-0.81-2.82-1.91-5.44-3.26-7.43C52.4,56.59,52.77,50.68,53.2,47.83
		z"/>
	<path class="st5" d="M12.21,69.69c0,0,6,3.76,22.96,3.76s22.96-3.76,22.96-3.76"/>
	<path class="st5" d="M35.17,106.51c-4.76,0-9.55-0.73-13.98-2.51C2.34,96.44-0.78,74.21,9.87,58.51c4-5.9,3.55-13.21,3.02-16.73
		c-0.14-0.91,0.73-1.64,1.6-1.34c6.64,2.29,13.67,3.42,20.69,3.42s14.05-1.12,20.69-3.42c0.87-0.3,1.74,0.43,1.6,1.34
		c-0.54,3.52-0.99,10.83,3.02,16.73C71.13,74.21,68,96.44,49.15,104C44.72,105.78,39.93,106.51,35.17,106.51z"/>
	<g>
		<circle class="st7" cx="17" cy="23.48" r="10.63"/>
		<polyline class="st5" points="12.04,14.08 6.64,1.42 1.42,3.65 		"/>
		<path class="st8" d="M7.01,27.09c0,0,1.38-5.75,6.07-8.36s13.42,0,13.42,0s-3.66-7.5-11.67-5.66S5.46,21.02,7.01,27.09z"/>
		<circle class="st5" cx="17" cy="23.48" r="10.63"/>
	</g>
	<path class="st9" d="M48.56,27.09c0,0,19.13-11.84,32.52-6.45C81.08,20.64,61.78,7.97,48.56,27.09z"/>
	<path class="st5" d="M43.07,41.82c0-13.95,11.31-25.27,25.27-25.27s25.27,11.31,25.27,25.27S82.29,67.08,68.34,67.08
		c-1.08,0-2.14-0.07-3.18-0.2"/>
</g>
</svg>
