<?xml version="1.0" encoding="utf-8"?>
<!-- Generator: Adobe Illustrator 25.2.3, SVG Export Plug-In . SVG Version: 6.00 Build 0)  -->
<svg version="1.1" id="Layer_1" xmlns="http://www.w3.org/2000/svg" xmlns:xlink="http://www.w3.org/1999/xlink" x="0px" y="0px"
	 viewBox="0 0 108.43 97.29" style="enable-background:new 0 0 108.43 97.29;" xml:space="preserve">
<style type="text/css">
	.st0{fill:#FFFCF5;}
	.st1{fill:#EDE6D6;}
	.st2{fill:none;stroke:#685C4E;stroke-width:2.8346;stroke-linecap:round;stroke-linejoin:round;stroke-miterlimit:10;}
</style>
<path class="st0" d="M54.22,95.87c-29.16,0-53.3-8.13-52.79-27.82c0.52-19.78,18.7-42.39,52.79-42.39s52.27,22.61,52.79,42.39
	C107.52,87.74,83.37,95.87,54.22,95.87z"/>
<path class="st1" d="M39.68,42.71c0,0,7.77-12.3,15.54-17.05l-7.77,0.94C47.45,26.6,40.62,38.12,39.68,42.71z"/>
<path class="st1" d="M69.06,42.71c0,0-7.77-12.3-15.54-17.05l9.66,0.94C63.18,26.6,68.11,38.12,69.06,42.71z"/>
<path class="st0" d="M30.26,30.05l-6.93-19.94c-0.64-1.84,0.7-3.79,2.65-3.81c8.56-0.08,17.81,5.43,17.81,5.43l1.46,13.93
	L30.26,30.05z"/>
<path class="st1" d="M44.04,18.53c0,0-5.06,8.04-7.62,9.72l8.83-2.59L44.04,18.53z"/>
<path class="st0" d="M78.17,30.05l6.93-19.94c0.64-1.84-0.7-3.79-2.65-3.81c-8.56-0.08-17.81,5.43-17.81,5.43l-1.46,13.93
	L78.17,30.05"/>
<path class="st0" d="M45.25,25.66l-0.95-9.08c-0.32-3.1,0.63-6.19,2.65-8.57l4.53-5.33c1.44-1.69,4.04-1.69,5.48,0l4.53,5.33
	c2.02,2.37,2.97,5.47,2.65,8.57l-0.95,9.08H45.25z"/>
<path class="st1" d="M51.2,25.62c0,0,9.53-4.5,12.95-11.24l-0.97,11.28l-13.77-0.04"/>
<path class="st1" d="M68.86,27.18c0,0,10.94-4.31,14.76-12.8l-5.45,15.67L68.86,27.18z"/>
<path class="st1" d="M16.76,89.37c0,0,37,0.96,55.02-2.05c18.78-3.13,32-11.44,33.56-29.08c0,0,9.22,27.35-20.08,33.81
	C61.7,97.25,29.11,99.43,16.76,89.37z"/>
<path class="st2" d="M78.17,30.05l6.93-19.94c0.64-1.84-0.7-3.79-2.65-3.81c-8.56-0.08-17.81,5.43-17.81,5.43"/>
<path class="st2" d="M54.22,95.87c-29.16,0-53.3-8.13-52.79-27.82c0.52-19.78,18.7-42.39,52.79-42.39s52.27,22.61,52.79,42.39
	C107.52,87.74,83.37,95.87,54.22,95.87z"/>
<path class="st2" d="M45.25,25.66l-0.95-9.08c-0.32-3.1,0.63-6.19,2.65-8.57l4.53-5.33c1.44-1.69,4.04-1.69,5.48,0l4.53,5.33
	c2.02,2.37,2.97,5.47,2.65,8.57l-0.95,9.08H45.25z"/>
<path class="st2" d="M43.79,11.73c0,0-9.26-5.51-17.81-5.43c-1.94,0.02-3.28,1.97-2.65,3.81l6.93,19.94"/>
<path class="st2" d="M59.41,25.62c5.51,4.12,9.38,10.37,10.73,17.1"/>
<path class="st2" d="M49.41,25.62c-5.51,4.12-9.38,10.37-10.73,17.1"/>
</svg>
