<?xml version="1.0" encoding="utf-8"?>
<!-- Generator: Adobe Illustrator 23.0.6, SVG Export Plug-In . SVG Version: 6.00 Build 0)  -->
<svg version="1.1" id="Layer_1" xmlns="http://www.w3.org/2000/svg" xmlns:xlink="http://www.w3.org/1999/xlink" x="0px" y="0px"
	 viewBox="0 0 17.19 17.19" style="enable-background:new 0 0 17.19 17.19;" xml:space="preserve">
<style type="text/css">
	.st0{fill:#B1B1B1;}
</style>
<path class="st0" d="M8.59,2.75c-3.99,0-7.22,3.23-7.22,7.22s3.23,7.22,7.22,7.22s7.22-3.23,7.22-7.22S12.58,2.75,8.59,2.75z
	 M8.59,15.13c-2.85,0-5.16-2.31-5.16-5.16s2.31-5.16,5.16-5.16s5.16,2.31,5.16,5.16S11.44,15.13,8.59,15.13z"/>
<path class="st0" d="M0.19,4.97c-0.51-1.57,0.03-3.36,1.4-4.33s3.15-0.81,4.35,0.27C6.3,1.26,6.26,1.88,5.86,2.16l-4.54,3.2
	C0.91,5.65,0.35,5.46,0.19,4.97z"/>
<path class="st0" d="M17,4.97c0.51-1.57-0.03-3.36-1.4-4.33c-1.37-0.97-3.15-0.81-4.35,0.27c-0.37,0.34-0.33,0.96,0.07,1.25
	l4.54,3.2C16.28,5.65,16.84,5.46,17,4.97z"/>
<path class="st0" d="M7.68,9.93c0.21-0.32,0.64-0.4,0.95-0.19l2.06,1.38c0.32,0.21,0.4,0.64,0.19,0.95
	c-0.21,0.32-0.64,0.4-0.95,0.19l-2.06-1.38C7.55,10.67,7.47,10.25,7.68,9.93z"/>
<path class="st0" d="M8.25,6.19c0.38,0,0.69,0.31,0.69,0.69v3.44c0,0.38-0.31,0.69-0.69,0.69c-0.38,0-0.69-0.31-0.69-0.69V6.88
	C7.56,6.5,7.87,6.19,8.25,6.19z"/>
</svg>
