<?xml version="1.0" encoding="utf-8"?>
<!-- Generator: Adobe Illustrator 25.2.3, SVG Export Plug-In . SVG Version: 6.00 Build 0)  -->
<svg version="1.1" id="Layer_1" xmlns="http://www.w3.org/2000/svg" xmlns:xlink="http://www.w3.org/1999/xlink" x="0px" y="0px"
	 viewBox="0 0 92.47 131.19" style="enable-background:new 0 0 92.47 131.19;" xml:space="preserve">
<style type="text/css">
	.st0{fill:#FFFCF5;}
	.st1{fill:#EDE6D6;}
	.st2{fill:#FF977C;}
	.st3{fill:none;stroke:#685C4E;stroke-width:2.8346;stroke-linecap:round;stroke-linejoin:round;stroke-miterlimit:10;}
	.st4{fill:#649260;}
	.st5{fill:#E76F51;}
	.st6{fill:#FFB9A7;}
	.st7{fill:#8AAA87;}
</style>
<g>
	<path class="st0" d="M90.23,34.89c-6.46-5.99-34.44-20.08-61.14-18.82c-2.22,0.1-4.18,1.51-4.86,3.62L1.52,84.55
		c-0.56,1.73,1.22,3.27,2.77,2.39l85.44-47.89C91.27,38.19,91.52,36.08,90.23,34.89z"/>
	<path class="st1" d="M2.16,86.75v42.58l88.9-50.09V36.46c0,0-0.45,2.1-2.99,3.53L4.29,86.94C4.29,86.94,4.35,87.21,2.16,86.75z"/>
	<path class="st1" d="M33.22,48.71c-0.17,0.12,1.71,1.47,1.81,1.52c2.47,1.26,5.13,0.47,7.64-0.13c4.77-1.13,9.67-1.98,14.12-4.13
		c6.35-3.07,14.18-12.55,9-19.79C65.8,26.17,33.34,48.62,33.22,48.71z"/>
	<polygon class="st2" points="2.16,111.85 91.06,62.54 91.06,56.55 2.16,105.85 	"/>
	<path class="st3" d="M90.23,34.89c-6.46-5.99-34.44-20.08-61.14-18.82c-2.22,0.1-4.18,1.51-4.86,3.62L1.52,84.55
		c-0.56,1.73,1.22,3.27,2.77,2.39l85.44-47.89C91.27,38.19,91.52,36.08,90.23,34.89z"/>
	<path class="st3" d="M1.42,85.77v44.01l89.64-50.53V36.46c0,0-0.45,2.1-2.99,3.53L4.29,86.94C4.29,86.94,1.42,88.11,1.42,85.77z"/>
	<polygon class="st3" points="2.16,111.85 91.06,62.54 91.06,56.55 2.16,105.85 	"/>
	<path class="st2" d="M29.84,42.61c-0.01,3.89,3.6,6.78,7.39,5.91c7.17-1.64,17.67-4.54,21.94-8.15
		c6.78-5.74,11.77-17.51-2.84-26.38s-26.11,3.69-26.37,18.56C29.88,36.85,29.85,40.13,29.84,42.61z"/>
	<g>
		<path class="st4" d="M59.23,15.99l2.21-1.43c0,0,8.26-1.08,9.99,0.72c0,0-1.33,4.72-7.88,5.26L59.23,15.99z"/>
		<path class="st4" d="M59.23,15.99c0,0,3.51-1.24,4.03-4.95s1.57-4.75,1.57-4.75s-7.58,0.22-11.01,6.37L59.23,15.99z"/>
		<path class="st4" d="M54.29,11.9l1.14-1.44c0,0-1.97-7.13-3.77-9.04c0,0-3.99,5.35-3.15,9.72L54.29,11.9z"/>
	</g>
	<g>
		<g>
			<path class="st5" d="M57.5,28.88c-0.62,0.8-1.8,1.54-2.26,1.18s-0.04-1.69,0.59-2.49s1.2-0.77,1.66-0.41
				C57.95,27.53,58.12,28.08,57.5,28.88z"/>
		</g>
		<g>
			<path class="st5" d="M50.58,24.52c-0.62,0.8-1.8,1.54-2.26,1.18c-0.46-0.36-0.04-1.69,0.59-2.49c0.62-0.8,1.2-0.77,1.66-0.41
				S51.2,23.72,50.58,24.52z"/>
		</g>
		<g>
			<path class="st5" d="M43.77,19.34c-0.62,0.8-1.8,1.54-2.26,1.18c-0.46-0.36-0.04-1.69,0.59-2.49s1.2-0.77,1.66-0.41
				S44.39,18.54,43.77,19.34z"/>
		</g>
		<g>
			<path class="st5" d="M40.91,28.69c-0.62,0.8-1.8,1.54-2.26,1.18s-0.04-1.69,0.59-2.49s1.2-0.77,1.66-0.41
				C41.36,27.33,41.53,27.89,40.91,28.69z"/>
		</g>
		<g>
			<path class="st5" d="M49.49,34.56c-0.62,0.8-1.8,1.54-2.26,1.18c-0.46-0.36-0.04-1.69,0.59-2.49c0.62-0.8,1.2-0.77,1.66-0.41
				C49.94,33.21,50.11,33.76,49.49,34.56z"/>
		</g>
		<g>
			<path class="st5" d="M39.48,38.42c-0.62,0.8-1.8,1.54-2.26,1.18c-0.46-0.36-0.04-1.69,0.59-2.49c0.62-0.8,1.2-0.77,1.66-0.41
				C39.92,37.06,40.1,37.62,39.48,38.42z"/>
		</g>
	</g>
	<path class="st6" d="M32.57,46.9c0,0-0.13-5.16,0-11.06c0.13-5.9,3.52-16.98,8.22-19.85s13.5-4.09,13.5-4.09s-9.84-1.96-12.98-0.76
		S30.64,21.83,29.84,26.73s-0.02,17.29,0.9,18.6S32.57,46.9,32.57,46.9z"/>
	<path class="st7" d="M49.55,10.75c0,0,0.19-7.55,2.36-8.33c0,0-1.04,7.15-0.93,8.33H49.55z"/>
	<path class="st7" d="M55.04,12.72c0,0,3.09-5.48,8.18-5.48l-6.89,6.75L55.04,12.72z"/>
	<path class="st7" d="M60.35,15.99c0,0,8.09-2.22,10.43-1.05v1.05l-9,2.08L60.35,15.99z"/>
	<g>
		<path class="st3" d="M29.84,42.61c-0.01,3.89,3.6,6.78,7.39,5.91c7.17-1.64,17.67-4.54,21.94-8.15
			c6.78-5.74,11.77-17.51-2.84-26.38s-26.11,3.69-26.37,18.56C29.88,36.85,29.85,40.13,29.84,42.61z"/>
		<path class="st3" d="M59.23,15.99c0,0,3.51-1.24,4.03-4.95s1.57-4.75,1.57-4.75s-7.58,0.22-11.01,6.37L59.23,15.99z"/>
		<path class="st3" d="M59.23,15.99l2.21-1.43c0,0,8.26-1.08,9.99,0.72c0,0-1.33,4.72-7.88,5.26L59.23,15.99z"/>
		<path class="st3" d="M54.29,11.9l1.14-1.44c0,0-1.97-7.13-3.77-9.04c0,0-3.99,5.35-3.15,9.72L54.29,11.9z"/>
	</g>
</g>
</svg>
