<?xml version="1.0" encoding="utf-8"?>
<!-- Generator: Adobe Illustrator 23.0.6, SVG Export Plug-In . SVG Version: 6.00 Build 0)  -->
<svg version="1.1" id="Layer_1" xmlns="http://www.w3.org/2000/svg" xmlns:xlink="http://www.w3.org/1999/xlink" x="0px" y="0px"
	 viewBox="0 0 20.25 18" style="enable-background:new 0 0 20.25 18;" xml:space="preserve">
<style type="text/css">
	.st0{fill:#FF5252;}
</style>
<path class="st0" d="M14.63,0c-0.87,0-1.73,0.2-2.52,0.59c-0.78,0.39-1.46,0.96-1.98,1.66C9.42,1.3,8.43,0.61,7.3,0.25
	C6.17-0.1,4.97-0.08,3.85,0.29C2.73,0.66,1.75,1.38,1.06,2.34C0.37,3.29,0,4.44,0,5.63c0,6.74,9.36,12.06,9.76,12.28
	C9.87,17.97,10,18,10.13,18c0.13,0,0.25-0.03,0.37-0.1c1.72-1.01,3.34-2.19,4.82-3.52c3.28-2.95,4.94-5.9,4.94-8.76
	c0-1.49-0.59-2.92-1.65-3.98C17.55,0.59,16.12,0,14.63,0z"/>
</svg>
