<?xml version="1.0" encoding="utf-8"?>
<!-- Generator: Adobe Illustrator 23.0.6, SVG Export Plug-In . SVG Version: 6.00 Build 0)  -->
<svg version="1.1" id="Layer_1" xmlns="http://www.w3.org/2000/svg" xmlns:xlink="http://www.w3.org/1999/xlink" x="0px" y="0px"
	 viewBox="0 0 20.25 18.1" style="enable-background:new 0 0 20.25 18.1;" xml:space="preserve">
<style type="text/css">
	.st0{fill:#DBE2E5;}
</style>
<path class="st0" d="M14.63,0.1c-0.87,0-1.73,0.2-2.52,0.59c-0.78,0.39-1.46,0.96-1.98,1.66C9.42,1.4,8.43,0.7,7.3,0.35
	C6.17,0,4.97,0.01,3.85,0.39S1.75,1.48,1.06,2.43C0.37,3.39,0,4.54,0,5.72C0,12.46,9.36,17.78,9.76,18c0.11,0.06,0.24,0.1,0.37,0.1
	c0.13,0,0.25-0.03,0.37-0.1c1.72-1.01,3.34-2.19,4.82-3.52c3.28-2.95,4.94-5.9,4.94-8.76c0-1.49-0.59-2.92-1.65-3.98
	C17.55,0.69,16.12,0.1,14.63,0.1z"/>
</svg>
