<?xml version="1.0" encoding="utf-8"?>
<!-- Generator: Adobe Illustrator 23.0.6, SVG Export Plug-In . SVG Version: 6.00 Build 0)  -->
<svg version="1.1" id="Layer_1" xmlns="http://www.w3.org/2000/svg" xmlns:xlink="http://www.w3.org/1999/xlink" x="0px" y="0px"
	 viewBox="0 0 16.88 16.88" style="enable-background:new 0 0 16.88 16.88;" xml:space="preserve">
<style type="text/css">
	.st0{fill:#fff;}
	.st1{fill-rule:evenodd;clip-rule:evenodd;fill:#fff;}
</style>
<path class="st0" d="M11.27,15.35c0-0.01,0-0.01,0-0.02c0.35-0.03,0.7-0.06,1.06-0.08c0.51-0.04,1-0.18,1.45-0.43
	c0.5-0.28,0.87-0.68,1.12-1.18c0.23-0.45,0.33-0.94,0.37-1.43c0.04-0.49,0.07-0.98,0.07-1.47c0-1.65-0.02-3.3-0.03-4.96
	c0-0.56-0.02-1.11-0.13-1.66c-0.12-0.61-0.37-1.14-0.8-1.58c-0.38-0.39-0.86-0.62-1.38-0.76c-0.64-0.17-1.3-0.19-1.95-0.19
	C9.21,1.56,7.37,1.6,5.54,1.6c-0.51,0-1.01,0.03-1.51,0.14C3.28,1.9,2.65,2.26,2.2,2.9C1.82,3.43,1.66,4.04,1.61,4.67
	C1.56,5.32,1.55,5.97,1.54,6.62c-0.01,0.61-0.01,1.21,0,1.82c0.02,1.2,0.04,2.4,0.07,3.6c0.01,0.52,0.12,1.02,0.33,1.49
	c0.27,0.61,0.71,1.06,1.29,1.36c0.45,0.24,0.96,0.34,1.47,0.38c0.54,0.04,1.07,0.07,1.61,0.07C7.96,15.35,9.62,15.35,11.27,15.35z
	 M0,11.53V5.35C0.01,5.3,0.03,5.26,0.03,5.22c0.01-0.2,0.03-0.41,0.03-0.61c0.02-0.57,0.15-1.12,0.35-1.66
	c0.28-0.77,0.76-1.39,1.4-1.89C2.57,0.47,3.44,0.2,4.37,0.11c0.58-0.06,1.17-0.05,1.76-0.07c0.21-0.01,0.41,0,0.62,0
	C6.8,0.03,6.85,0.01,6.9,0h3.08c0.03,0.01,0.07,0.03,0.1,0.03c0.56,0.01,1.12,0.01,1.68,0.04c0.38,0.02,0.76,0.06,1.13,0.1
	c0.53,0.06,1.03,0.23,1.51,0.47c0.51,0.26,0.95,0.61,1.32,1.05c0.33,0.4,0.58,0.83,0.76,1.31c0.27,0.73,0.36,1.5,0.37,2.27
	c0,0.07,0.02,0.13,0.03,0.2v5.95c-0.01,0.02-0.03,0.04-0.03,0.07c-0.01,0.25-0.02,0.5-0.04,0.74c-0.03,0.3-0.04,0.61-0.11,0.9
	c-0.22,0.96-0.63,1.81-1.38,2.48c-0.45,0.4-0.95,0.7-1.52,0.9c-0.74,0.26-1.51,0.34-2.29,0.34c-0.07,0-0.13,0.02-0.2,0.03H5.56
	c-0.03-0.01-0.07-0.03-0.1-0.03c-0.47-0.04-0.95-0.06-1.42-0.1c-0.5-0.05-0.97-0.2-1.42-0.41c-0.55-0.26-1.03-0.62-1.43-1.08
	c-0.3-0.34-0.54-0.72-0.71-1.14c-0.32-0.77-0.45-1.59-0.44-2.42C0.03,11.63,0.01,11.58,0,11.53z"/>
<path class="st1" d="M11.22,8.45c0.02-1.55-1.26-2.81-2.79-2.79c-1.59,0.01-2.79,1.23-2.79,2.8c0,1.51,1.17,2.69,2.64,2.78
	C9.96,11.33,11.27,9.92,11.22,8.45z M4.09,8.46C4.08,6.08,6.02,4.01,8.64,4.11c2.21,0.09,4.21,1.9,4.15,4.45
	c-0.05,2.31-1.89,4.26-4.42,4.23C6.02,12.77,4.1,10.9,4.09,8.46z"/>
<path class="st1" d="M11.93,3.96c-0.07-0.52,0.48-1.06,1.06-1.03c0.49,0.02,1,0.47,0.99,1.06c-0.01,0.5-0.47,1.01-1.05,1
	C12.42,4.97,11.88,4.53,11.93,3.96z"/>
</svg>
