<?xml version="1.0" encoding="utf-8"?>
<!-- Generator: Adobe Illustrator 25.2.3, SVG Export Plug-In . SVG Version: 6.00 Build 0)  -->
<svg version="1.1" id="Layer_1" xmlns="http://www.w3.org/2000/svg" xmlns:xlink="http://www.w3.org/1999/xlink" x="0px" y="0px"
	 viewBox="0 0 127.77 76.14" style="enable-background:new 0 0 127.77 76.14;" xml:space="preserve">
<style type="text/css">
	.st0{fill:#FFFCF5;}
	.st1{fill:none;stroke:#685C4E;stroke-width:2.8346;stroke-linecap:round;stroke-linejoin:round;stroke-miterlimit:10;}
	.st2{fill:#FF977C;}
	.st3{fill:#EDE6D6;}
	.st4{fill:#FFB9A7;}
</style>
<g>
	<path class="st0" d="M102.76,74.72H25.02c-12.39,0-22.43-10.04-22.43-22.43v0c0-12.39,10.04-22.43,22.43-22.43h77.74
		c12.39,0,22.43,10.04,22.43,22.43v0C125.19,64.68,115.15,74.72,102.76,74.72z"/>
	<path class="st1" d="M102.97,74.72H25.23c-12.39,0-22.43-10.04-22.43-22.43v0c0-12.39,10.04-22.43,22.43-22.43h77.74
		c12.39,0,22.43,10.04,22.43,22.43v0C125.4,64.68,115.36,74.72,102.97,74.72z"/>
	<g>
		<g>
			<path class="st1" d="M85.34,64.17c-1.25-2.22-3.38-3.61-5.68-3.43c-2.3,0.18-4.18,1.89-5.07,4.28"/>
			<path class="st1" d="M69.12,50.7c-0.96-2.17-2.81-3.66-4.96-3.7c-2.15-0.04-4.05,1.37-5.1,3.51"/>
			<path class="st1" d="M53.11,62.91c-1.04-1.6-2.69-2.54-4.4-2.3c-1.71,0.24-3.03,1.61-3.59,3.43"/>
			<path class="st1" d="M108.82,64.48c-0.16-1.9-1.17-3.51-2.79-4.11c-1.62-0.6-3.43-0.03-4.79,1.32"/>
			<path class="st1" d="M44.23,49.65c-1.38-2.13-3.58-3.38-5.85-3.05c-2.27,0.32-4.03,2.13-4.77,4.56"/>
			<path class="st1" d="M92.84,48.69c-0.31-1.31-1.18-2.32-2.37-2.57c-1.19-0.25-2.39,0.34-3.19,1.42"/>
			<path class="st1" d="M27.19,62.87c-0.76-2.4-2.54-4.19-4.81-4.49s-4.46,0.96-5.82,3.08"/>
		</g>
		<path class="st2" d="M28.65,39.83c9.98-3.13,22.13-5.35,35.24-5.35c13.11,0,25.26,2.22,35.24,5.35c-9.98-3.51-22.13-6-35.24-6
			C50.77,33.83,38.63,36.32,28.65,39.83z"/>
		<path class="st3" d="M17.77,45.32c12.31-4.85,28.52-7.59,46.31-7.59c17.78,0,34,2.74,46.31,7.59
			C98.08,38.98,81.86,34.1,64.08,34.1C46.29,34.1,30.08,38.98,17.77,45.32z"/>
	</g>
	<path class="st2" d="M63.89,1.42c33.97,0,68.71,28.81,61.51,39.5c-4.85,7.2-15.61,3.42-15.61,3.42c-11.27-5.7-27.66-10.5-45.9-10.5
		s-34.64,4.8-45.9,10.5c0,0-10.76,3.78-15.61-3.42C-4.83,30.23,29.91,1.42,63.89,1.42z"/>
	<path class="st4" d="M63.89,5.55c30.73,0,62.09,21.04,62.46,32.11c0.07-12.34-31.51-36.24-62.46-36.24S1.36,25.32,1.42,37.66
		C1.8,26.59,33.16,5.55,63.89,5.55z"/>
	<g>
		<path class="st1" d="M63.89,1.42c33.97,0,68.71,28.81,61.51,39.5c-4.85,7.2-15.61,3.42-15.61,3.42
			c-11.27-5.7-27.66-10.5-45.9-10.5s-34.64,4.8-45.9,10.5c0,0-10.76,3.78-15.61-3.42C-4.83,30.23,29.91,1.42,63.89,1.42z"/>
		<g>
			<path class="st1" d="M16.56,44.73c0,0,22.3-13.68,23.18-38.93"/>
			<path class="st1" d="M46.31,35.3c0,0,20.48-14.13,20.96-33.79"/>
			<path class="st1" d="M72.97,34.23c0,0,15.91-11.87,17.08-27.69"/>
			<path class="st1" d="M92.11,37.63c0,0,13.05-6.92,18.27-20.26"/>
		</g>
	</g>
</g>
</svg>
