<?xml version="1.0" encoding="utf-8"?>
<!-- Generator: Adobe Illustrator 23.0.6, SVG Export Plug-In . SVG Version: 6.00 Build 0)  -->
<svg version="1.1" id="Layer_1" xmlns="http://www.w3.org/2000/svg" xmlns:xlink="http://www.w3.org/1999/xlink" x="0px" y="0px"
	 viewBox="0 0 18.25 16.88" style="enable-background:new 0 0 18.25 16.88;" xml:space="preserve">
<style type="text/css">
	.st0{fill:#fff;}
</style>
<g>
	<polygon class="st0" points="6.69,7.74 7.78,7.74 7.26,6.09 	"/>
	<path class="st0" d="M14.79,9.4l-1.24-1.7l-0.28,0.23c0,0,0,0.84,0,1.28c0,0.38-0.96,0.38-0.97,0c0-0.24,0.02-3.5,0.01-3.86
		c-0.01-0.2,0.25-0.3,0.5-0.3c0.23,0,0.46,0.09,0.46,0.28c0.01,0.49,0,1.37,0,1.37s1.4-1.41,1.6-1.61c0.21-0.21,0.84,0.44,0.64,0.64
		c-0.35,0.35-1.24,1.32-1.24,1.32l1.31,1.74C15.82,9.13,15.04,9.73,14.79,9.4z M11.75,9.47c-0.44,0-1.44,0.01-1.89,0.01
		c-0.45,0-0.37-0.53-0.37-0.53s0-2.65,0-3.47c0-0.29,0.25-0.43,0.51-0.43c0.25,0,0.51,0.15,0.51,0.43c0,0.6,0,3.05,0,3.05
		s0.81,0,1.25,0S12.19,9.47,11.75,9.47z M8.27,9.25C8.04,8.64,8.1,8.61,8.1,8.61H6.38L6.19,9.27C5.99,9.74,5.13,9.36,5.33,8.9
		c0.28-0.64,1.11-3.06,1.34-3.58c0.09-0.2,0.31-0.28,0.53-0.28c0.27,0,0.54,0.12,0.62,0.28C7.98,5.68,8.9,8.2,9.16,8.91
		C9.34,9.4,8.45,9.74,8.27,9.25z M4.68,9.14c0,0.44-0.97,0.44-0.98-0.01c0.01-0.61,0-3.2,0-3.2H2.76c-0.55,0-0.55-0.9,0-0.91
		c0,0,2.2,0.02,2.86,0.02c0.58,0,0.58,0.93,0,0.93c-0.62,0-0.93,0-0.93,0L4.68,9.14z M9.13,0C4.09,0,0,3.25,0,7.26
		c0,2.61,1.73,4.9,4.33,6.18c-0.19,0.72-0.69,2.6-0.79,3c-0.12,0.5,0.18,0.49,0.38,0.36c0.16-0.11,2.5-1.71,3.51-2.4
		c0.55,0.08,1.12,0.12,1.69,0.12c5.04,0,9.13-3.25,9.13-7.26C18.25,3.25,14.17,0,9.13,0z"/>
</g>
</svg>
