<?xml version="1.0" encoding="utf-8"?>
<!-- Generator: Adobe Illustrator 25.2.3, SVG Export Plug-In . SVG Version: 6.00 Build 0)  -->
<svg version="1.1" id="Layer_1" xmlns="http://www.w3.org/2000/svg" xmlns:xlink="http://www.w3.org/1999/xlink" x="0px" y="0px"
	 viewBox="0 0 131.17 146.73" style="enable-background:new 0 0 131.17 146.73;" xml:space="preserve">
<style type="text/css">
	.st0{fill:#FFBE89;}
	.st1{fill:none;stroke:#685C4E;stroke-width:2.8346;stroke-linecap:round;stroke-linejoin:round;stroke-miterlimit:10;}
	.st2{fill:#F4A261;}
	.st3{fill:none;stroke:#FFD5B4;stroke-width:4.252;stroke-linecap:round;stroke-miterlimit:10;}
	.st4{fill:#FFD5B4;}
	.st5{fill:#FFFCF5;}
	.st6{fill:#EDE6D6;}
	.st7{fill:#FFE19A;stroke:#685C4E;stroke-width:2.8346;stroke-linecap:round;stroke-linejoin:round;stroke-miterlimit:10;}
	.st8{fill:#FFEDC3;}
</style>
<g>
	<path class="st0" d="M89.45,131.71v4.11c0,1.9-1.03,3.65-2.68,4.59c-6.91,3.93-15.37,4.9-22.36,4.9s-15.45-0.97-22.36-4.9
		c-1.65-0.94-2.68-2.69-2.68-4.59v-4.11"/>
	<path class="st0" d="M87.28,29.58c-7.09-2.12-14.8-3.27-22.87-3.27C29.83,26.32,1.8,42.15,1.8,75.73
		c0,33.73,28.03,61.06,62.61,61.06s62.61-27.34,62.61-61.06c0-13.13-6.01-24.69-15.89-33.33"/>
	<path class="st1" d="M94.93,63.54"/>
	<path class="st1" d="M76.92,52.35"/>
	<path class="st1" d="M82.26,58.32"/>
	<path class="st1" d="M87.27,60.12"/>
	<g>
		<path class="st2" d="M92.59,51.32c0.18-0.09,0.36-0.17,0.54-0.25l7.7-10.6c-1.99-1.06-4.1-2.02-6.3-2.9l-4.43,7.06
			C91.32,46.27,92.21,48.51,92.59,51.32z"/>
		<path class="st2" d="M10.38,79.85c-1.83-4.38-2.02-9.31,2.02-12.39c1.77-1.35,4.03-2.08,6.23-2l-0.52-0.2
			c-1.22-11.28,7.65-19.45,18.73-13.95c1.44-10.65,10.14-13.13,17.1-5.32c0,0,1.74-9.58,10.78-9.58c9.04,0,10.78,9.58,10.78,9.58
			c2.2-2.47,4.58-3.91,6.85-4.39l3.87-6.77c-6.72-1.78-14.08-2.77-21.81-2.77c-31.62,0-57.25,16.49-57.25,36.84
			c0,20.35,25.63,36.84,57.25,36.84c0.05,0,0.09,0,0.14,0c-11.49-0.02-23.13-2.64-33.55-7.57C22.93,94.35,14.02,88.55,10.38,79.85z"
			/>
		<path class="st2" d="M111.32,65.26l-0.52,0.2c2.2-0.08,4.46,0.65,6.23,2c4.04,3.08,3.86,8.01,2.02,12.39
			c-0.08,0.19-0.17,0.37-0.26,0.55c1.85-3.62,2.86-7.48,2.86-11.5c0-9.03-5.05-17.29-13.43-23.7l-4.07,5.33
			C109.08,52.72,112.06,58.42,111.32,65.26z"/>
	</g>
	<path class="st3" d="M3.87,78.65c0,0,5.26,37.58,33.91,52.36"/>
	<path class="st4" d="M42.91,133.23c0,0,7.67,9.99,16.01,11.89c0,0-17.87-2.59-18.71-5.94c-0.84-3.36-0.84-7.46-0.84-7.46
		L42.91,133.23z"/>
	<path class="st2" d="M68.55,136.64c0,0,22.97-3.03,30.8-31.81c0,0,26.06-13.36,26.73-35.93C126.08,68.9,131.4,129.14,68.55,136.64z
		"/>
	<g>
		<path class="st4" d="M64.41,32.06c31.62,0,57.25,16.8,57.25,37.52S96.03,107.1,64.41,107.1S7.16,90.3,7.16,69.58
			S32.79,32.06,64.41,32.06 M64.41,26.68c-16.33,0-31.75,4.22-43.43,11.87C8.61,46.67,1.79,57.69,1.79,69.58s6.82,22.91,19.2,31.03
			c11.68,7.65,27.1,11.87,43.43,11.87s31.75-4.22,43.43-11.87c12.38-8.11,19.2-19.13,19.2-31.03s-6.82-22.91-19.2-31.03
			C96.16,30.9,80.74,26.68,64.41,26.68L64.41,26.68z"/>
	</g>
	<g>
		<path class="st1" d="M89.07,131.71v4.11c0,1.9-1.03,3.65-2.68,4.59c-6.91,3.93-15.37,4.9-22.36,4.9s-15.45-0.97-22.36-4.9
			c-1.65-0.94-2.68-2.69-2.68-4.59v-4.11"/>
		<path class="st1" d="M110.75,42.41c9.88,8.63,15.89,20.2,15.89,33.33c0,33.73-28.03,61.06-62.61,61.06S1.42,109.46,1.42,75.73
			c0-33.59,28.03-49.42,62.61-49.42c8.07,0,15.79,1.15,22.87,3.27l11.06,3.66c1.89,0.88,3.72,1.85,5.47,2.88L110.75,42.41z"/>
	</g>
	<path class="st5" d="M111.32,65.26c0.7-6.47-1.92-11.92-6.38-14.35c0,0-5.72-2.25-12.35,0.4c-0.38-2.81-1.27-5.05-2.49-6.69
		c0,0-3.04-5.31-8.98-2.68c-1.83,0.81-3.81,2.01-5.62,4.04c0,0-1.74-9.58-10.78-9.58s-10.78,9.58-10.78,9.58
		c-6.96-7.81-15.65-5.32-17.1,5.32c-11.08-5.5-19.95,2.66-18.73,13.95l5.39,2.03c-3.16-2.69-7.92-2.25-11.1,0.17
		c-4.04,3.08-3.86,8.01-2.02,12.39c3.64,8.7,12.55,14.5,20.62,18.32c10.47,4.96,22.17,7.57,33.71,7.57s23.24-2.61,33.71-7.57
		c8.08-3.82,16.98-9.62,20.62-18.32c1.83-4.38,2.02-9.31-2.02-12.39c-3.18-2.42-7.94-2.86-11.1-0.17"/>
	<path class="st6" d="M95.76,64.59c0,0,2.41,34.83-31.04,41.15c0,0,49.62-2.26,55.56-30.84c0,0-1.04-10.14-11.24-9.18
		c0,0,3.72-2.02,1.97-6.34c-1.74-4.31-6.85-8.85-6.85-8.85L95.76,64.59z"/>
	<path class="st1" d="M111.32,65.26c0.7-6.47-1.92-11.92-6.38-14.35c0,0-5.72-2.25-12.35,0.4c-0.38-2.81-1.27-5.05-2.49-6.69
		c0,0-3.04-5.31-8.98-2.68c-1.83,0.81-3.81,2.01-5.62,4.04c0,0-1.74-9.58-10.78-9.58s-10.78,9.58-10.78,9.58
		c-6.96-7.81-15.65-5.32-17.1,5.32c-11.08-5.5-19.95,2.66-18.73,13.95l5.39,2.03c-3.16-2.69-7.92-2.25-11.1,0.17
		c-4.04,3.08-3.86,8.01-2.02,12.39c3.64,8.7,12.55,14.5,20.62,18.32c10.47,4.96,22.17,7.57,33.71,7.57s23.24-2.61,33.71-7.57
		c8.08-3.82,16.98-9.62,20.62-18.32c1.83-4.38,2.02-9.31-2.02-12.39c-3.18-2.42-7.94-2.86-11.1-0.17"/>
	<path class="st7" d="M94.94,63.53l34.17-44.7c0.97-1.27,0.82-3.08-0.36-4.17l-2.66-2.47c-1.27-1.18-3.29-0.98-4.31,0.42L88.31,58.7
		"/>
	<path class="st7" d="M77.51,51.32l27.65-48.34c0.9-1.57,2.94-2.04,4.43-1.01l3.36,2.31c1.24,0.85,1.59,2.53,0.79,3.8l-31,49.44"/>
	<polygon class="st8" points="79.36,54.27 110.77,2.77 107.35,1.42 75.96,51.92 	"/>
	<polygon class="st8" points="91,60.56 127.02,13.05 123.88,10.84 88.36,59.71 	"/>
	<path class="st1" d="M94.94,63.53l34.17-44.7c0.97-1.27,0.82-3.08-0.36-4.17l-2.66-2.47c-1.27-1.18-3.29-0.98-4.31,0.42L88.31,58.7
		"/>
	<path class="st1" d="M77.51,51.32l27.65-48.34c0.9-1.57,2.94-2.04,4.43-1.01l3.36,2.31c1.24,0.85,1.59,2.53,0.79,3.8l-31,49.44"/>
	<g>
		<path class="st1" d="M64.73,89.37c-1.93-3.41-5.2-5.55-8.72-5.27c-3.53,0.28-6.42,2.9-7.79,6.57"/>
		<path class="st1" d="M34.7,78.62c-2.1-2.76-5.23-4.24-8.29-3.56s-5.28,3.32-6.04,6.71"/>
		<path class="st1" d="M50.12,75.21c-1.38-1.8-3.42-2.77-5.42-2.33c-2,0.44-3.45,2.17-3.95,4.39"/>
		<path class="st1" d="M76.28,74.58c-1.48-3.34-4.32-5.62-7.62-5.69s-6.23,2.11-7.83,5.39"/>
		<path class="st1" d="M91.64,79.58c-1.6-2.46-4.14-3.9-6.76-3.53s-4.66,2.47-5.52,5.27"/>
		<path class="st1" d="M106.71,80.61c-0.24-2.92-1.8-5.4-4.28-6.32c-2.49-0.92-5.28-0.04-7.36,2.03"/>
		<path class="st1" d="M63.3,57.06c-2.45-3.02-6.01-4.58-9.43-3.73s-5.82,3.91-6.56,7.73"/>
		<path class="st1" d="M40.69,64.59c-0.47-2.01-1.81-3.57-3.64-3.95s-3.68,0.52-4.91,2.18"/>
		<path class="st1" d="M95.76,66.6c-1.17-3.69-3.91-6.43-7.4-6.9s-6.85,1.47-8.94,4.73"/>
		<path class="st1" d="M81.78,60.22c-0.38-3.88-2.5-7.14-5.82-8.3c-3.32-1.17-7.01,0.06-9.73,2.85"/>
	</g>
</g>
</svg>
