<?xml version="1.0" encoding="utf-8"?>
<!-- Generator: Adobe Illustrator 23.0.6, SVG Export Plug-In . SVG Version: 6.00 Build 0)  -->
<svg version="1.1" id="Layer_1" xmlns="http://www.w3.org/2000/svg" xmlns:xlink="http://www.w3.org/1999/xlink" x="0px" y="0px"
	 viewBox="0 0 202.9 281.3" style="enable-background:new 0 0 202.9 281.3;" xml:space="preserve">
<style type="text/css">
	.st0{fill:#FFFFFF;}
	.st1{fill:#EAC3C3;}
	.st2{fill:#1F3D2B;}
	.st3{fill:#F4E1C1;}
</style>
<path class="st0" d="M13.3,161.9c0,0,7.9,10.1,10.9,13.6c0,0-9.4,4.6-8.6,15.4c0.8,10.8,5.7,29.9,18.7,32.5l6.2,4.7
	c0,0,16.6,37,34.1,43c17.5,6,37.5,10.8,50.6,3.3c13.2-7.5,39.4-24.2,41.6-57.5l1.7-15.3c0,0,21.6-17.2,21.8-17.6
	c6-11.9,13-24.3,9.3-35.6c-3.7-11.4-13.1-10.6-13.1-10.6l-9,2.2l-20.5-14.2L14.9,148.2L13.3,161.9z"/>
<path class="st1" d="M107.4,52.2c0,0-16,0-21.9,1.9c-6,2-16.7,3.6-16.7,3.6s-8.9,0.9-13-3.9C51.6,48.9,50,39.9,50,39.9
	s3.5-15,7.5-22.6C61,10.7,67.8,3.2,77.6,3.4c9.8,0.1,22,3.4,26.4,9.3C108.3,18.5,116.2,27.5,107.4,52.2z"/>
<path class="st2" d="M49.5,35l2.4-1.6c2,2.8,4.4,5.4,6.5,7.2c1,0.9,1.9,1.6,2.5,2.1c0.3,0.2,0.6,0.4,0.7,0.6
	c0.1,0.1,0.1,0.1,0.2,0.1c0,0,0,0,0,0c0,0,0,0,0,0c0,0,0,0,0,0c0,0,0,0,0,0c0,0,0,0,0,0c0,0,0,0-1.7,2.3c-1.7,2.3-1.7,2.3-1.7,2.3
	c0,0,0,0,0,0c0,0,0,0,0,0c0,0,0,0,0,0c0,0,0,0,0,0c0,0,0,0-0.1,0c-0.1,0-0.1-0.1-0.2-0.2c-0.2-0.2-0.5-0.4-0.8-0.7
	c-0.7-0.6-1.7-1.4-2.8-2.4c-2.2-2-5-4.9-7.3-8.2L49.5,35z M65.5,59l-0.4,2.8c-5.2-0.8-9.1-2.9-12-5.7c-2.8-2.8-4.4-6.2-5.4-9.4
	c-0.9-3.2-1.2-6.2-1.3-8.4c0-1.1,0-2,0-2.7c0-0.3,0-0.6,0.1-0.8c0-0.1,0-0.2,0-0.2c0,0,0,0,0-0.1c0,0,0,0,0,0c0,0,0,0,0,0
	c0,0,0,0,0,0c0,0,0,0,2.8,0.3c2.8,0.3,2.8,0.3,2.8,0.3c0,0,0,0,0,0c0,0,0,0,0,0c0,0,0,0,0,0c0,0,0,0,0,0c0,0,0,0.1,0,0.1
	c0,0.1,0,0.3,0,0.6c0,0.5-0.1,1.3,0,2.2c0,1.9,0.3,4.4,1,6.9c0.7,2.5,2,5,3.9,6.9c1.9,1.9,4.7,3.5,8.8,4.1L65.5,59z M61.8,43.5
	c1.3,0.9,1.6,2.7,0.6,4c-0.9,1.3-2.7,1.6-4,0.6L61.8,43.5z M49.5,35l-2.8-0.3c0.1-1.2,1-2.1,2.2-2.4c1.2-0.3,2.4,0.2,3,1.2L49.5,35z
	 M65.9,56.2c1.6,0.2,2.6,1.7,2.4,3.2c-0.2,1.6-1.7,2.6-3.2,2.4L65.9,56.2z"/>
<path class="st2" d="M111.6,24.8l2.7-1c2.4,6.2,1,14.1-1,20.1c-1,3.1-2.3,5.8-3.5,7.9c-0.6,1-1.3,1.9-1.9,2.7
	c-0.3,0.4-0.7,0.7-1.2,1c-0.4,0.3-1.2,0.7-2.1,0.7l0-2.9l0-2.9c-0.6,0-1,0.2-1,0.3c-0.1,0,0,0,0.1-0.1c0.3-0.3,0.7-0.9,1.2-1.7
	c1-1.6,2.1-4,3-6.7c1.9-5.6,2.7-11.9,1-16.3L111.6,24.8z M73.9,4l-0.6-2.8c12.2-2.7,21.4-0.5,28.1,4.4c6.6,4.8,10.6,11.9,12.9,18.2
	l-2.7,1l-2.7,1c-2.2-5.8-5.6-11.7-11-15.6c-5.2-3.8-12.7-5.9-23.5-3.5L73.9,4z M52.2,38.4c-2.8,0.2-2.8,0.2-2.8,0.2c0,0,0,0,0,0
	c0,0,0,0,0,0c0,0,0,0,0,0c0,0,0,0,0-0.1c0-0.1,0-0.2,0-0.3c0-0.2,0-0.6,0-1c0-0.9,0-2.1,0-3.6c0.1-3,0.6-7,1.9-11.3
	c2.6-8.5,8.6-18.2,22-21.2L73.9,4l0.6,2.8c-10.8,2.4-15.6,10-17.8,17.3c-1.1,3.7-1.5,7.2-1.7,9.9c-0.1,1.3-0.1,2.4,0,3.1
	c0,0.4,0,0.7,0,0.8c0,0.1,0,0.2,0,0.2c0,0,0,0,0,0c0,0,0,0,0,0c0,0,0,0,0,0c0,0,0,0,0,0C55,38.2,55,38.2,52.2,38.4z M104.6,56.1
	c-1.6,0-2.9-1.3-2.9-2.8c0-1.6,1.3-2.9,2.8-2.9L104.6,56.1z M111.6,24.8l-2.7,1l0,0L111.6,24.8z M73.9,4l-0.6-2.8h0L73.9,4z
	 M55,38.2c0.1,1.6-1,3-2.6,3.1c-1.6,0.1-3-1-3.1-2.6L55,38.2z"/>
<path class="st2" d="M90.8,5.3C93.4,4,93.4,4,93.4,4c0,0,0,0,0,0c0,0,0,0,0,0c0,0,0,0,0,0c0,0,0,0.1,0,0.1c0,0.1,0.1,0.2,0.1,0.3
	c0.1,0.3,0.3,0.7,0.5,1.2c0.4,1,0.9,2.4,1.4,4.2c1,3.6,2.1,8.5,2.1,14.1c0.1,11.4-4.1,25.3-20.5,35.3L75.7,57l-1.5-2.4
	C88.5,45.7,92,33.9,91.9,24.1c0-5-1-9.4-1.9-12.6c-0.5-1.6-0.9-2.9-1.3-3.7c-0.2-0.4-0.3-0.8-0.4-1c0-0.1-0.1-0.2-0.1-0.2
	c0,0,0,0,0-0.1c0,0,0,0,0,0c0,0,0,0,0,0c0,0,0,0,0,0C88.3,6.5,88.3,6.5,90.8,5.3z M77.2,59.4c-1.3,0.8-3.1,0.4-3.9-0.9
	s-0.4-3.1,0.9-3.9L77.2,59.4z M88.3,6.5c-0.7-1.4-0.1-3.1,1.4-3.8C91,2,92.7,2.6,93.4,4L88.3,6.5z"/>
<path class="st3" d="M16.2,161.4l-12,2c0,0-8.3-35.3,19.4-58.4L16.2,161.4z"/>
<path class="st2" d="M17.2,76.5l111.7-36.7c-2-9.6,3.8-19.7,17.6-24.6c15-5.4,33.6-2.6,37.3,7.7c3.7,10.3-9,24.2-24,29.6
	c-13.8,4.9-24.7,0.9-29.2-7.8L21.1,87.3c0,0-10.1,4-12.1-1.8C6.9,79.8,17.2,76.5,17.2,76.5z"/>
<path class="st1" d="M179.2,141.2c0,0-10.8,4.5-15.3-2.2c0,0-3.4-4.2-13.7-3.7c-10.4,0.5-37.2,8-41.3,9l-55.3,12
	c0,0-4.2-3.5-7.1-0.5l-35.3,6.6c0,0,0-49.7,26.8-70.8l13.3-9.7c0,0,0.5-14.3,15-21.4c14.5-7.1,35.5-11.4,59-2.7s41.2,21.4,55.5,69.2
	"/>
<path class="st2" d="M29.3,183.4l-2.7,1.1c-1.8-4.5-4.4-7.1-6.6-8.6c-1.1-0.8-2.1-1.2-2.8-1.5c-0.3-0.1-0.6-0.2-0.8-0.3
	c-0.1,0-0.1,0-0.2-0.1c0,0,0,0,0,0c0,0,0,0,0,0c0,0,0,0,0,0c0,0,0,0,0,0c0,0,0,0,0,0c0,0,0,0,0.7-2.8c0.7-2.8,0.7-2.8,0.7-2.8
	c0,0,0,0,0,0c0,0,0,0,0,0c0,0,0,0,0,0c0,0,0,0,0,0c0,0,0.1,0,0.1,0c0.1,0,0.2,0.1,0.4,0.1c0.3,0.1,0.7,0.2,1.2,0.5
	c1,0.4,2.3,1.1,3.8,2.1c3,2.1,6.4,5.5,8.7,11.2L29.3,183.4z M38.1,216c-2.8,0.6-2.8,0.6-2.8,0.6c0,0,0,0,0,0c0,0,0,0,0,0
	c0,0,0,0,0,0c0,0,0,0,0,0c0,0,0-0.1,0-0.2c0-0.2-0.1-0.4-0.1-0.7c-0.1-0.6-0.3-1.5-0.6-2.6c-0.5-2.2-1.2-5.3-2-8.6
	c-1.7-6.8-3.8-14.8-5.9-19.9l2.7-1.1l2.7-1.1c2.2,5.5,4.4,13.9,6.1,20.7c0.8,3.4,1.5,6.5,2,8.8c0.2,1.1,0.4,2,0.6,2.6
	c0.1,0.3,0.1,0.6,0.2,0.7c0,0.1,0,0.1,0,0.2c0,0,0,0,0,0c0,0,0,0,0,0c0,0,0,0,0,0c0,0,0,0,0,0C40.9,215.4,40.9,215.4,38.1,216z
	 M79.9,273.6l-1,2.7c-28.9-11.4-35.7-33.8-43.5-59.4l2.7-0.8l2.7-0.8C48.7,241,55,260.7,81,270.9L79.9,273.6z M156.2,247.5l2.4,1.6
	c-10.4,15.6-23.1,25.3-36.9,29.6c-13.8,4.3-28.5,3.1-42.7-2.4l1-2.7l1-2.7c13.2,5.2,26.6,6.2,38.9,2.3c12.4-3.9,24.1-12.6,33.9-27.3
	L156.2,247.5z M166.4,149.3c2.8-0.4,2.8-0.4,2.8-0.4c0,0,0,0,0,0c0,0,0,0,0,0c0,0,0,0,0,0c0,0,0,0.1,0,0.2c0,0.1,0,0.3,0.1,0.6
	c0.1,0.5,0.2,1.3,0.3,2.2c0.2,1.9,0.5,4.7,0.9,8.2c0.6,6.9,1.2,16.4,1.2,26.9c0,10.5-0.7,22-2.6,32.8c-1.9,10.8-5.2,21.2-10.6,29.2
	l-2.4-1.6l-2.4-1.6c4.7-7.1,7.8-16.6,9.7-27.1c1.9-10.4,2.5-21.6,2.5-31.8c0-10.3-0.6-19.6-1.2-26.4c-0.3-3.4-0.6-6.1-0.8-8
	c-0.1-0.9-0.2-1.7-0.3-2.2c0-0.2-0.1-0.4-0.1-0.6c0-0.1,0-0.1,0-0.1c0,0,0,0,0,0c0,0,0,0,0,0c0,0,0,0,0,0
	C163.6,149.7,163.6,149.7,166.4,149.3z M16.3,174c-1.5-0.4-2.5-1.9-2.1-3.5c0.4-1.5,1.9-2.5,3.5-2.1L16.3,174z M29.3,183.4l-2.7,1.1
	l0,0L29.3,183.4z M38.1,216l-2.7,0.8c0-0.1,0-0.2-0.1-0.3L38.1,216z M79.9,273.6l-1,2.7l0,0L79.9,273.6z M156.2,247.5l-2.4-1.6l0,0
	L156.2,247.5z M163.6,149.7c-0.2-1.6,0.8-3,2.4-3.2c1.6-0.2,3,0.8,3.2,2.4L163.6,149.7z"/>
<path class="st2" d="M15.8,199.3l2.8-0.4c1.8,11.4,8.8,21,22.8,26.7l-1.1,2.6l-1.1,2.6c-15.7-6.3-24.2-17.6-26.3-31.1L15.8,199.3z
	 M24.1,175.5c1.3,2.5,1.4,2.5,1.4,2.5c0,0,0,0,0,0c0,0,0,0,0,0c0,0,0,0,0,0c0,0,0,0,0,0c0,0,0,0,0,0c0,0-0.1,0.1-0.2,0.1
	c-0.2,0.1-0.6,0.4-1,0.7c-0.8,0.7-1.9,1.8-3,3.4c-2,3.1-4,8.3-2.6,16.6l-2.8,0.5l-2.8,0.5c-1.5-9.6,0.7-16.3,3.5-20.6
	c1.4-2.1,2.9-3.6,4.1-4.6c0.6-0.5,1.1-0.9,1.5-1.1c0.2-0.1,0.3-0.2,0.5-0.3c0.1,0,0.1-0.1,0.1-0.1c0,0,0,0,0.1,0c0,0,0,0,0,0
	c0,0,0,0,0,0c0,0,0,0,0,0C22.7,173,22.7,173,24.1,175.5z M41.5,225.5c1.5,0.6,2.2,2.3,1.6,3.7c-0.6,1.5-2.3,2.2-3.7,1.6L41.5,225.5z
	 M15.8,199.3l2.8-0.5l0,0L15.8,199.3z M22.7,173c1.4-0.7,3.1-0.2,3.9,1.2c0.7,1.4,0.2,3.1-1.2,3.9L22.7,173z"/>
<path class="st2" d="M198.9,163.2l2.8,0.7c-1.5,5.9-6.7,27.8-32,40.3l-1.3-2.6l-1.3-2.6c22.9-11.3,27.6-31,29-36.5L198.9,163.2z
	 M188.9,138.7l0.5-2.8c4,0.8,7.1,2.6,9.2,5.1c2.1,2.5,3.2,5.4,3.8,8.3c1.1,5.7,0,11.6-0.7,14.6l-2.8-0.7l-2.8-0.7
	c0.7-2.7,1.5-7.7,0.7-12.2c-0.4-2.2-1.2-4.1-2.5-5.6c-1.2-1.4-3.1-2.6-6-3.2L188.9,138.7z M167.5,159.2c-2.7-0.9-2.7-0.9-2.7-0.9
	c0,0,0,0,0,0c0,0,0,0,0,0c0,0,0,0,0,0c0,0,0,0,0-0.1c0-0.1,0-0.1,0.1-0.2c0.1-0.2,0.2-0.5,0.3-0.8c0.2-0.7,0.6-1.6,1.1-2.7
	c1-2.2,2.4-5.2,4.3-8.1c3.7-5.5,10-12.2,18.7-10.5l-0.5,2.8l-0.5,2.8c-5-1-9.4,2.7-12.9,8c-1.7,2.5-3,5.2-3.9,7.2
	c-0.4,1-0.8,1.9-1,2.4c-0.1,0.3-0.2,0.5-0.2,0.7c0,0.1,0,0.1-0.1,0.2c0,0,0,0,0,0c0,0,0,0,0,0c0,0,0,0,0,0c0,0,0,0,0,0
	C170.3,160.1,170.3,160.1,167.5,159.2z M169.7,204.1c-1.4,0.7-3.1,0.1-3.8-1.3c-0.7-1.4-0.1-3.1,1.3-3.8L169.7,204.1z M170.3,160.1
	c-0.5,1.5-2.1,2.3-3.6,1.8c-1.5-0.5-2.3-2.1-1.8-3.6L170.3,160.1z"/>
<path class="st2" d="M163.6,136.6l-2.8,0.5c-3.7-21.1-13.8-34.7-23-43c-4.6-4.2-9-7-12.2-8.8c-1.6-0.9-2.9-1.5-3.8-1.9
	c-0.4-0.2-0.8-0.3-1-0.4c-0.1,0-0.2-0.1-0.2-0.1c0,0,0,0-0.1,0c0,0,0,0,0,0c0,0,0,0,0,0c0,0,0,0,0,0c0,0,0,0,1-2.7
	c1-2.7,1-2.7,1-2.7c0,0,0,0,0,0c0,0,0,0,0,0c0,0,0,0,0,0c0,0,0.1,0,0.1,0c0.1,0,0.2,0.1,0.3,0.1c0.3,0.1,0.7,0.3,1.2,0.5
	c1,0.5,2.5,1.2,4.2,2.1c3.5,2,8.2,5,13.2,9.5c10,9,20.9,23.7,24.8,46.3L163.6,136.6z M115.5,142.5l-1.5-2.5
	c10.9-6.5,23.5-8,33.2-7.9c4.9,0,9.1,0.4,12.1,0.8c1.5,0.2,2.7,0.4,3.5,0.6c0.4,0.1,0.7,0.1,1,0.2c0.1,0,0.2,0,0.3,0.1
	c0,0,0.1,0,0.1,0c0,0,0,0,0,0c0,0,0,0,0,0c0,0,0,0,0,0c0,0,0,0-0.6,2.8c-0.6,2.8-0.6,2.8-0.6,2.8c0,0,0,0,0,0c0,0,0,0,0,0
	c0,0,0,0,0,0c0,0,0,0,0,0c0,0-0.1,0-0.2,0c-0.2,0-0.5-0.1-0.9-0.2c-0.8-0.1-1.9-0.3-3.3-0.5c-2.8-0.4-6.8-0.8-11.4-0.8
	c-9.2,0-20.7,1.4-30.3,7.1L115.5,142.5z M120.5,82.8c-1.5-0.5-2.2-2.2-1.7-3.7c0.5-1.5,2.2-2.2,3.7-1.7L120.5,82.8z M163.6,136.6
	l2.8-0.5c0.2,0.9-0.2,1.9-0.8,2.6c-0.7,0.7-1.7,0.9-2.6,0.7L163.6,136.6z M117,145c-1.4,0.8-3.1,0.4-3.9-1c-0.8-1.4-0.4-3.1,1-3.9
	L117,145z"/>
<path class="st2" d="M75.7,57L75,54.2c13.9-3.4,36.3-7.3,58.1,2.1c21.9,9.5,42.4,32.3,53,80.6l-2.8,0.6l-2.8,0.6
	c-10.3-47.1-29.9-68-49.7-76.6c-19.9-8.7-40.8-5.2-54.4-1.8L75.7,57z M51.2,81.8c-2.8,0.5-2.8,0.5-2.8,0.5c0,0,0,0,0,0c0,0,0,0,0,0
	c0,0,0,0,0,0c0,0,0,0,0-0.1c0-0.1,0-0.1,0-0.2c0-0.2,0-0.4-0.1-0.7c0-0.6,0-1.5,0-2.5c0.2-2.1,0.7-4.9,2.3-8
	c3.1-6.2,10-12.9,24.4-16.5l0.7,2.8l0.7,2.8c-13.1,3.2-18.4,9-20.7,13.5c-1.2,2.3-1.6,4.4-1.7,5.9c-0.1,0.8-0.1,1.4,0,1.7
	c0,0.2,0,0.3,0,0.4c0,0,0,0.1,0,0.1c0,0,0,0,0,0c0,0,0,0,0,0c0,0,0,0,0,0c0,0,0,0,0,0C54,81.4,54,81.4,51.2,81.8z M4.2,163.4
	c-2.7,0.9-2.7,0.9-2.7,0.9c0,0,0,0,0,0c0,0,0,0,0,0c0,0,0,0,0,0c0,0,0-0.1,0-0.1c0-0.1-0.1-0.2-0.1-0.4c-0.1-0.4-0.2-0.9-0.4-1.5
	c-0.3-1.3-0.6-3.2-0.8-5.6c-0.4-4.8-0.2-11.6,2-19.6c4.3-16.2,16.6-37.1,47.5-57.5l1.6,2.4l1.6,2.4c-29.9,19.7-41.2,39.6-45.1,54.2
	c-2,7.3-2.1,13.4-1.8,17.7c0.2,2.1,0.5,3.8,0.7,4.9c0.1,0.5,0.2,1,0.3,1.2c0,0.1,0.1,0.2,0.1,0.3c0,0,0,0,0,0.1c0,0,0,0,0,0
	c0,0,0,0,0,0c0,0,0,0,0,0C6.9,162.5,6.9,162.5,4.2,163.4z M46.4,155.8c0.5,2.8,0.5,2.8,0.5,2.8c0,0,0,0,0,0c0,0,0,0,0,0c0,0,0,0,0,0
	c0,0,0,0-0.1,0c-0.1,0-0.2,0-0.3,0.1c-0.3,0.1-0.7,0.1-1.3,0.2c-1.1,0.2-2.7,0.5-4.6,0.9c-3.8,0.7-9,1.7-14.2,2.7
	c-5.2,1-10.4,1.9-14.5,2.6c-2,0.4-3.7,0.7-5,0.9c-0.6,0.1-1.2,0.2-1.6,0.2c-0.2,0-0.4,0.1-0.6,0.1c-0.1,0-0.4,0-0.7,0l0.2-2.8
	l0.2-2.8c-0.2,0-0.4,0-0.3,0c0.1,0,0.2,0,0.4,0c0.3,0,0.8-0.1,1.4-0.2c1.2-0.2,2.9-0.5,4.9-0.8c4-0.7,9.2-1.7,14.4-2.6
	c5.2-1,10.3-1.9,14.2-2.7c1.9-0.4,3.5-0.7,4.6-0.9c0.6-0.1,1-0.2,1.3-0.2c0.1,0,0.3-0.1,0.3-0.1c0,0,0.1,0,0.1,0c0,0,0,0,0,0
	c0,0,0,0,0,0c0,0,0,0,0,0C45.9,153,45.9,153,46.4,155.8z M47.9,104.9c2.1,2,2.1,1.9,2.1,1.9c0,0,0,0,0,0c0,0,0,0,0,0c0,0,0,0,0,0
	c0,0,0,0,0,0c0,0,0,0.1-0.1,0.1c-0.1,0.1-0.2,0.3-0.4,0.5c-0.4,0.5-0.9,1.2-1.5,2.2c-1.2,2-2.7,5-3.8,9c-2.1,7.9-2.5,20,4.8,35.9
	l-2.6,1.2l-2.6,1.2c-7.9-17.1-7.6-30.5-5.2-39.8c1.2-4.6,3-8.1,4.4-10.5c0.7-1.2,1.4-2.1,1.9-2.7c0.2-0.3,0.4-0.6,0.6-0.7
	c0.1-0.1,0.1-0.2,0.2-0.2c0,0,0,0,0.1-0.1c0,0,0,0,0,0c0,0,0,0,0,0c0,0,0,0,0,0C45.8,102.9,45.8,102.9,47.9,104.9z M54.7,155.8
	c-2.8,0.3-2.8,0.3-2.8,0.3c0,0,0,0,0,0c0,0,0,0,0,0c0,0,0,0,0,0c0,0,0-0.1,0-0.1c0-0.1,0-0.2,0-0.4c0-0.4-0.1-0.9-0.2-1.5
	c-0.1-1.3-0.3-3.2-0.6-5.5c-0.5-4.5-1.2-10.6-1.9-16.8c-0.7-6.2-1.5-12.4-2.2-17.3c-0.4-2.4-0.7-4.5-1-6c-0.2-0.8-0.3-1.4-0.4-1.8
	c-0.1-0.5-0.2-0.5,0-0.3l2.4-1.5l2.4-1.5c0.4,0.6,0.6,1.4,0.7,1.8c0.2,0.6,0.3,1.4,0.5,2.2c0.3,1.7,0.7,3.8,1,6.3
	c0.7,5,1.5,11.3,2.3,17.5c0.7,6.2,1.4,12.3,1.9,16.8c0.2,2.3,0.4,4.2,0.6,5.5c0.1,0.7,0.1,1.2,0.2,1.5c0,0.2,0,0.3,0,0.4
	c0,0,0,0.1,0,0.1c0,0,0,0,0,0c0,0,0,0,0,0c0,0,0,0,0,0C57.5,155.5,57.5,155.5,54.7,155.8z M108.8,142.2c0.8,2.7,0.8,2.7,0.8,2.7
	c0,0,0,0,0,0c0,0,0,0,0,0c0,0,0,0,0,0c0,0-0.1,0-0.1,0c-0.1,0-0.2,0.1-0.4,0.1c-0.3,0.1-0.8,0.2-1.4,0.4c-1.2,0.4-3,0.9-5.2,1.5
	c-4.3,1.2-10.2,2.8-16.4,4.5c-6.2,1.6-12.7,3.3-18.2,4.6c-5.5,1.3-10.3,2.3-12.9,2.5l-0.3-2.8l-0.3-2.8c2.2-0.2,6.5-1.1,12.1-2.4
	c5.5-1.3,11.9-3,18.1-4.6c6.1-1.6,12-3.3,16.3-4.5c2.2-0.6,3.9-1.1,5.2-1.5c0.6-0.2,1.1-0.3,1.4-0.4c0.2,0,0.3-0.1,0.4-0.1
	c0,0,0.1,0,0.1,0c0,0,0,0,0,0c0,0,0,0,0,0c0,0,0,0,0,0C108,139.5,108,139.5,108.8,142.2z M93.4,88.6c1.7-2.3,1.7-2.3,1.8-2.3
	c0,0,0,0,0,0c0,0,0,0,0,0c0,0,0,0,0,0c0,0,0,0,0.1,0.1c0.1,0,0.1,0.1,0.2,0.2c0.2,0.1,0.4,0.4,0.7,0.6c0.6,0.6,1.4,1.4,2.4,2.5
	c1.9,2.2,4.4,5.5,6.7,10c4.6,9.1,8.6,23.1,6.3,42.8l-2.8-0.3l-2.8-0.3c2.1-18.6-1.6-31.5-5.7-39.6c-2.1-4.1-4.3-7-5.9-8.9
	c-0.8-0.9-1.5-1.6-2-2c-0.2-0.2-0.4-0.4-0.5-0.5c-0.1,0-0.1-0.1-0.1-0.1c0,0,0,0,0,0c0,0,0,0,0,0c0,0,0,0,0,0c0,0,0,0,0,0
	C91.7,90.9,91.7,90.9,93.4,88.6z M186,136.9c0.3,1.5-0.6,3.1-2.2,3.4c-1.5,0.3-3.1-0.6-3.4-2.2L186,136.9z M51.2,81.8l2.8-0.5
	c0.2,1.1-0.3,2.2-1.2,2.8L51.2,81.8z M4.2,163.4L4,166.3c-1.1-0.1-2.1-0.9-2.5-1.9L4.2,163.4z M46.4,155.8l2.6-1.2
	c0.4,0.8,0.3,1.7-0.1,2.5c-0.4,0.8-1.1,1.3-2,1.5L46.4,155.8z M47.9,104.9l-2.1-2c0.6-0.6,1.5-1,2.4-0.9s1.7,0.6,2.1,1.3L47.9,104.9
	z M54.7,155.8l0.3,2.8c-1.6,0.1-2.9-1-3.1-2.6L54.7,155.8z M108.8,142.2l2.8,0.3c-0.1,1.1-0.9,2.1-2,2.4L108.8,142.2z M91.7,90.9
	c-1.2-1-1.5-2.8-0.5-4c1-1.2,2.8-1.5,4-0.5L91.7,90.9z"/>
<path class="st2" d="M131,96.3c2.2-1.8,2.2-1.8,2.2-1.8c0,0,0,0,0,0c0,0,0,0,0,0c0,0,0,0,0,0c0,0,0,0,0,0c0,0,0.1,0.1,0.1,0.2
	c0.1,0.1,0.3,0.3,0.4,0.6c0.4,0.5,0.9,1.2,1.5,2.2c1.2,1.9,2.7,4.6,4.1,7.9c2.8,6.8,5.3,16.4,3.6,27.7l-2.8-0.4l-2.8-0.4
	c1.5-10-0.7-18.6-3.2-24.6c-1.3-3-2.6-5.5-3.7-7.1c-0.5-0.8-1-1.4-1.3-1.8c-0.1-0.2-0.3-0.4-0.3-0.4c0,0-0.1-0.1-0.1-0.1
	c0,0,0,0,0,0c0,0,0,0,0,0c0,0,0,0,0,0c0,0,0,0,0,0C128.8,98.1,128.8,98.1,131,96.3z M143,133.1c-0.2,1.6-1.7,2.6-3.2,2.4
	c-1.6-0.2-2.6-1.7-2.4-3.2L143,133.1z M128.8,98.1c-1-1.2-0.8-3,0.4-4c1.2-1,3-0.8,4,0.4L128.8,98.1z"/>
<path class="st2" d="M179.6,164.5l0.6-2.8c2.2,0.4,3.8,1.5,4.9,3c1.1,1.5,1.4,3.1,1.5,4.4c0.1,1.3-0.1,2.6-0.3,3.4
	c-0.1,0.4-0.2,0.8-0.3,1.1c0,0.1-0.1,0.2-0.1,0.3c0,0,0,0.1,0,0.1c0,0,0,0,0,0c0,0,0,0,0,0c0,0,0,0,0,0c0,0,0,0,0,0c0,0,0,0-2.7-1
	c-2.7-1-2.7-1-2.7-1c0,0,0,0,0,0c0,0,0,0,0,0c0,0,0,0,0,0c0,0,0,0,0,0c0,0,0,0,0,0c0,0,0-0.1,0-0.2c0-0.1,0.1-0.4,0.2-0.6
	c0.1-0.6,0.2-1.2,0.2-1.9c0-0.7-0.2-1.1-0.4-1.3c-0.1-0.2-0.5-0.5-1.4-0.7L179.6,164.5z M168.7,177.3c-2.7-0.9-2.7-0.9-2.7-0.9
	c0,0,0,0,0,0c0,0,0,0,0,0c0,0,0,0,0,0c0,0,0,0,0,0c0,0,0-0.1,0-0.1c0-0.1,0.1-0.3,0.2-0.5c0.2-0.4,0.4-1,0.7-1.7
	c0.6-1.4,1.4-3.2,2.5-5c1-1.8,2.4-3.7,4.1-5.2c1.7-1.4,4-2.7,6.8-2.1l-0.6,2.8l-0.6,2.8c-0.4-0.1-1,0-1.9,0.8c-1,0.8-2,2.2-2.9,3.7
	c-0.9,1.5-1.6,3.1-2.1,4.3c-0.3,0.6-0.4,1.1-0.6,1.5c-0.1,0.2-0.1,0.3-0.1,0.4c0,0,0,0.1,0,0.1c0,0,0,0,0,0c0,0,0,0,0,0c0,0,0,0,0,0
	c0,0,0,0,0,0C171.4,178.2,171.4,178.2,168.7,177.3z M185.8,174.1c-0.6,1.5-2.2,2.2-3.7,1.7c-1.5-0.6-2.2-2.2-1.7-3.7L185.8,174.1z
	 M171.4,178.2c-0.5,1.5-2.1,2.3-3.6,1.8c-1.5-0.5-2.3-2.1-1.8-3.6L171.4,178.2z"/>
<path class="st2" d="M60.6,173.7c0.6,2.8,0.6,2.8,0.6,2.8c0,0,0,0,0,0c0,0,0,0,0,0c0,0,0,0,0,0c0,0,0,0,0,0c0,0,0,0-0.1,0
	c-0.1,0-0.2,0-0.3,0.1c-0.3,0.1-0.6,0.2-1.1,0.4c-1,0.4-2.2,1-3.4,2c-2.3,1.8-4.6,4.9-4.2,10.6l-2.8,0.2l-2.8,0.2
	c-0.6-7.8,2.8-12.6,6.4-15.5c1.7-1.4,3.5-2.2,4.8-2.8c0.7-0.3,1.2-0.4,1.6-0.6c0.2-0.1,0.4-0.1,0.5-0.1c0.1,0,0.1,0,0.2,0
	c0,0,0,0,0.1,0c0,0,0,0,0,0c0,0,0,0,0,0c0,0,0,0,0,0C60,170.9,60,170.9,60.6,173.7z M52.2,189.5c0.1,1.6-1.1,2.9-2.6,3.1
	c-1.6,0.1-2.9-1.1-3.1-2.6L52.2,189.5z M60,170.9c1.5-0.3,3.1,0.7,3.4,2.2c0.3,1.5-0.7,3.1-2.2,3.4L60,170.9z"/>
<path class="st2" d="M72.8,206.7c-4,1-8.4-3.3-9.9-9.5c-1.5-6.2,0.5-12,4.5-13c4-1,8.4,3.3,9.9,9.5
	C78.7,199.9,76.8,205.7,72.8,206.7z"/>
<path class="st2" d="M123.1,161c-1.1-2.7-1.1-2.7-1-2.7c0,0,0,0,0,0c0,0,0,0,0,0c0,0,0,0,0,0c0,0,0,0,0,0c0,0,0.1,0,0.1-0.1
	c0.1,0,0.3-0.1,0.5-0.2c0.4-0.1,1-0.3,1.7-0.4c1.4-0.3,3.3-0.5,5.6-0.4c4.6,0.4,10.1,2.6,13.9,9.3l-2.5,1.4l-2.5,1.4
	c-2.8-4.9-6.4-6.2-9.4-6.5c-1.5-0.1-2.9,0.1-3.9,0.3c-0.5,0.1-0.9,0.2-1.2,0.3c-0.1,0-0.2,0.1-0.3,0.1c0,0,0,0-0.1,0c0,0,0,0,0,0
	c0,0,0,0,0,0c0,0,0,0,0,0c0,0,0,0,0,0C124.1,163.7,124.1,163.7,123.1,161z M143.9,166.7c0.8,1.4,0.3,3.1-1.1,3.9
	c-1.4,0.8-3.1,0.3-3.9-1.1L143.9,166.7z M124.1,163.7c-1.5,0.6-3.1-0.1-3.7-1.6c-0.6-1.5,0.1-3.1,1.6-3.7L124.1,163.7z"/>
<path class="st2" d="M130,195.6c-4,0.9-8.4-3.4-9.8-9.6c-1.5-6.2,0.6-12,4.5-13c4-0.9,8.4,3.4,9.8,9.6
	C136,188.9,134,194.7,130,195.6z"/>
<path class="st2" d="M94,215.8l1.6-2.4c2.8,1.9,4.6,3,5.7,3.6c0.5,0.3,0.9,0.5,1.1,0.6c0.1,0,0.2,0.1,0.2,0.1c0,0,0,0,0,0
	c0,0,0,0,0,0c0,0,0,0,0,0c0,0,0,0,0,0c0,0,0,0,0,0c0,0,0,0,0,0c0,0,0,0-1.1,2.6c-1.1,2.6-1.1,2.6-1.1,2.6c0,0,0,0,0,0c0,0,0,0,0,0
	c0,0,0,0,0,0c0,0,0,0,0,0c0,0,0,0,0,0c0,0-0.1,0-0.1-0.1c-0.1,0-0.2-0.1-0.4-0.2c-0.3-0.2-0.7-0.4-1.3-0.7c-1.2-0.7-3.1-1.9-6-3.8
	L94,215.8z M94.7,204l1.2,2.6c-0.7,0.3-1.8,1.5-2.1,3.1c-0.3,1.2,0,2.6,1.8,3.8l-1.6,2.4l-1.6,2.4c-3.9-2.6-4.9-6.4-4.2-9.7
	c0.6-3,2.7-5.8,5.2-7L94.7,204z M95.4,189c2.6-1.1,2.6-1.1,2.6-1.1c0,0,0,0,0,0c0,0,0,0,0,0c0,0,0,0,0,0c0,0,0,0,0,0
	c0,0,0,0.1,0,0.1c0,0.1,0.1,0.3,0.2,0.4c0.1,0.4,0.3,0.9,0.5,1.5c0.4,1.3,0.9,3,1.2,4.9c0.3,1.8,0.4,4,0,6.1
	c-0.5,2.1-1.6,4.3-4.1,5.5l-1.2-2.6l-1.2-2.6c0.4-0.2,0.8-0.6,1-1.5c0.2-1,0.2-2.4,0-3.9c-0.2-1.5-0.6-3-1-4.1
	c-0.2-0.5-0.3-1-0.4-1.3c-0.1-0.2-0.1-0.3-0.1-0.3c0,0,0-0.1,0-0.1c0,0,0,0,0,0c0,0,0,0,0,0c0,0,0,0,0,0c0,0,0,0,0,0
	C92.8,190.1,92.8,190.1,95.4,189z M102.5,217.7c1.5,0.6,2.1,2.3,1.5,3.7c-0.6,1.5-2.3,2.1-3.7,1.5L102.5,217.7z M94.7,204l1.2,2.6
	l0,0L94.7,204z M92.8,190.1c-0.6-1.5,0.1-3.1,1.6-3.7c1.5-0.6,3.1,0.1,3.7,1.6L92.8,190.1z"/>
<path class="st2" d="M116.9,249.8l1.3,2.5c-7.5,4-14,4.8-18.7,4.6c-2.3-0.1-4.2-0.5-5.5-0.9c-0.7-0.2-1.2-0.4-1.5-0.5
	c-0.2-0.1-0.3-0.1-0.4-0.2c-0.1,0-0.1,0-0.1-0.1c0,0,0,0,0,0c0,0,0,0,0,0c0,0,0,0,0,0c0,0,0,0,0,0c0,0,0,0,1.2-2.6
	c1.2-2.6,1.2-2.6,1.2-2.6c0,0,0,0,0,0c0,0,0,0,0,0c0,0,0,0,0,0c0,0,0,0,0,0c0,0,0,0,0,0c0,0,0.1,0,0.2,0.1c0.2,0.1,0.6,0.2,1.1,0.3
	c1,0.3,2.4,0.6,4.3,0.7c3.7,0.2,9.2-0.4,15.7-3.9L116.9,249.8z M131.4,233.2c2.7,0.9,2.7,0.9,2.7,0.9c0,0,0,0,0,0c0,0,0,0,0,0
	c0,0,0,0,0,0c0,0,0,0,0,0c0,0,0,0.1,0,0.1c0,0.1-0.1,0.2-0.2,0.4c-0.1,0.4-0.3,0.9-0.6,1.5c-0.6,1.2-1.4,2.9-2.6,4.7
	c-2.4,3.7-6.4,8.2-12.4,11.4l-1.3-2.5l-1.3-2.5c5-2.6,8.3-6.4,10.3-9.5c1-1.6,1.7-3,2.2-4c0.2-0.5,0.4-0.9,0.5-1.1
	c0-0.1,0.1-0.2,0.1-0.3c0,0,0,0,0-0.1c0,0,0,0,0,0c0,0,0,0,0,0c0,0,0,0,0,0c0,0,0,0,0,0C128.7,232.3,128.7,232.3,131.4,233.2z
	 M91.8,255.3c-1.4-0.7-2-2.4-1.4-3.8c0.7-1.4,2.4-2,3.8-1.4L91.8,255.3z M116.9,249.8l-1.3-2.5l0,0L116.9,249.8z M128.7,232.3
	c0.5-1.5,2.1-2.3,3.6-1.8c1.5,0.5,2.3,2.1,1.8,3.6L128.7,232.3z"/>
<ellipse transform="matrix(0.9252 -0.3796 0.3796 0.9252 -82.0963 36.8951)" class="st1" cx="52.5" cy="226.6" rx="20.7" ry="20.8"/>
<path class="st1" d="M162.7,226.4c-10.6,4.3-22.7-0.7-27.1-11.4c-4.4-10.6,0.7-22.7,11.3-27.1c10.6-4.3,22.7,0.7,27.1,11.4
	C178.4,209.9,173.3,222,162.7,226.4z"/>
<path class="st2" d="M148.4,207.6l1.4-0.1l0.3,5l-1.4,0.1l-1.4,0.1l-0.3-5L148.4,207.6z M150.2,212.6c0.1,0.8-0.5,1.5-1.3,1.5
	c-0.8,0.1-1.5-0.5-1.5-1.3L150.2,212.6z M147,207.7c-0.1-0.8,0.5-1.5,1.3-1.5c0.8-0.1,1.5,0.5,1.5,1.3L147,207.7z"/>
<path class="st2" d="M157.1,204.2l1-1l3.7,3.4l-1,1l-1,1l-3.7-3.4L157.1,204.2z M161.8,206.6c0.6,0.5,0.6,1.4,0.1,2
	c-0.5,0.6-1.4,0.6-2,0.1L161.8,206.6z M156.1,205.2c-0.6-0.5-0.6-1.4-0.1-2c0.5-0.6,1.4-0.6,2-0.1L156.1,205.2z"/>
<path class="st2" d="M139.1,208l1.3,0.7l-2.4,4.4l-1.3-0.7l-1.3-0.7l2.4-4.4L139.1,208z M138,213.1c-0.4,0.7-1.2,1-1.9,0.6
	c-0.7-0.4-1-1.2-0.6-1.9L138,213.1z M137.9,207.3c0.4-0.7,1.2-1,1.9-0.6c0.7,0.4,1,1.2,0.6,1.9L137.9,207.3z"/>
<path class="st2" d="M62.7,222.4l1.4,0.2l-0.9,7.9l-1.4-0.2l-1.4-0.2l0.9-7.9L62.7,222.4z M63.3,230.5c-0.1,0.8-0.8,1.3-1.6,1.3
	c-0.8-0.1-1.3-0.8-1.3-1.6L63.3,230.5z M61.3,222.3c0.1-0.8,0.8-1.4,1.6-1.3c0.8,0.1,1.3,0.8,1.3,1.6L61.3,222.3z"/>
<path class="st2" d="M52.8,223.9l1.2,0.7l-4.1,6.9l-1.2-0.7l-1.2-0.7l4.1-6.9L52.8,223.9z M49.9,231.5c-0.4,0.7-1.3,0.9-2,0.5
	c-0.7-0.4-0.9-1.3-0.5-2L49.9,231.5z M51.6,223.2c0.4-0.7,1.3-0.9,2-0.5c0.7,0.4,0.9,1.3,0.5,2L51.6,223.2z"/>
</svg>
