<?xml version="1.0" encoding="utf-8"?>
<!-- Generator: Adobe Illustrator 25.2.3, SVG Export Plug-In . SVG Version: 6.00 Build 0)  -->
<svg version="1.1" id="Layer_1" xmlns="http://www.w3.org/2000/svg" xmlns:xlink="http://www.w3.org/1999/xlink" x="0px" y="0px"
	 viewBox="0 0 351 452" style="enable-background:new 0 0 351 452;" xml:space="preserve">
<style type="text/css">
	.st0{fill:#049260;}
	.st1{fill:#F2C0C3;}
	.st2{fill:#C5C6E4;}
	.st3{fill:#FFFFFF;}
	.st4{fill:#F3F5DF;}
	.st5{fill:none;stroke:#049260;stroke-width:5.6693;stroke-linecap:round;stroke-linejoin:round;stroke-miterlimit:10;}
	.st6{fill:none;stroke:#049260;stroke-width:4.252;stroke-linecap:round;stroke-linejoin:round;stroke-miterlimit:10;}
	.st7{fill:#FFF158;}
	.st8{fill:none;stroke:#049260;stroke-width:2.8346;stroke-linecap:round;stroke-linejoin:round;stroke-miterlimit:10;}
</style>
<g>
	<path class="st0" d="M142.4-155.41c0.04-0.03,0.06-0.05,0.06-0.08c0.09-0.9-0.25-1.69-0.85-2.34c-0.62-0.87-1.54-1.47-2.63-1.57
		c-0.15-0.01-0.3,0-0.45,0.01c-0.26-0.05-0.53-0.1-0.81-0.13c-2.6-0.24-72.24-5.2-81.38-5.85c-0.47-7.14-6.06-13.09-15.76-14
		c-10.79-1.02-22.56,4.57-23.33,12.76c-0.77,8.19,9.75,15.88,20.53,16.89c9.7,0.91,16.3-3.89,18.09-10.81
		c9.1,1.07,78.44,9.21,81.04,9.45c0.28,0.03,0.54,0.03,0.81,0.03c0.15,0.03,0.29,0.08,0.45,0.09c1.09,0.1,2.11-0.31,2.88-1.05
		c0.71-0.52,1.18-1.24,1.27-2.14c0-0.03-0.01-0.06-0.04-0.09c0.04-0.19,0.09-0.37,0.11-0.57
		C142.42-155.02,142.4-155.22,142.4-155.41z"/>
</g>
<g>
	<g>
		<path class="st1" d="M131.01,78.99c0,0-5.13-14.45-15.81-16.74c-10.68-2.3-18.46-2.55-25.02,2.34S80.64,83.1,81.5,86.74
			c0.87,3.64,3.17,16.87,17.57,17.99s31.89-5.55,34.17-12.17c2.28-6.62,0.13-16.1,0.13-16.1L131.01,78.99z"/>
		<g>
			<g>
				<path class="st0" d="M132.65,78.7c-4.91-12.93-18.44-22.59-32.55-20.35c-13.27,2.11-22.27,16.19-21.04,29.12
					c0.64,6.72,4.07,13.22,9.94,16.8c3.51,2.14,7.74,2.93,11.79,3.17c9.07,0.52,18.98-1.79,26.67-6.7c3.4-2.17,6.65-5.07,8.37-8.79
					c1.8-3.87,1.82-8.12,0.19-12.06c-0.48-1.15-1.03-2.24-1.7-3.3c-0.59-0.94-2.06-1.54-3.06-0.8c-3.84,2.81-6.65,6.59-8.13,11.13
					c-0.9,2.74,3.42,3.92,4.31,1.19c1.1-3.35,3.22-6.37,6.07-8.46c-1.02-0.27-2.04-0.53-3.06-0.8c1.12,1.78,1.73,3.04,2.15,5.09
					c0.02,0.1,0.13,0.73,0.09,0.49c-0.03-0.24,0.03,0.3,0.04,0.39c0.03,0.41,0.05,0.83,0.04,1.25c0,0.22-0.02,0.44-0.03,0.66
					c-0.01,0.09-0.07,0.62-0.03,0.35c0.04-0.27-0.05,0.26-0.06,0.34c-0.05,0.24-0.1,0.48-0.16,0.72c-0.09,0.36-0.21,0.71-0.33,1.06
					c-0.03,0.08-0.22,0.57-0.12,0.34c0.08-0.19-0.18,0.38-0.23,0.5c-0.37,0.74-0.81,1.44-1.28,2.11c-0.23,0.33-0.06,0.08-0.12,0.17
					c-0.12,0.15-0.25,0.31-0.38,0.46c-0.3,0.36-0.62,0.7-0.95,1.03c-0.63,0.64-1.31,1.24-2.02,1.8c-0.2,0.16-0.01,0.01,0.03-0.02
					c-0.11,0.09-0.23,0.17-0.35,0.26c-0.18,0.13-0.35,0.26-0.53,0.38c-0.39,0.27-0.79,0.54-1.2,0.79c-0.87,0.54-1.76,1.05-2.67,1.51
					c-1.88,0.96-3.32,1.54-5.39,2.22c-4.07,1.33-7.93,2.07-12,2.26c-2.01,0.09-4.04,0.05-6.04-0.17c-0.1-0.01-0.63-0.08-0.46-0.06
					c0.17,0.02-0.35-0.06-0.45-0.07c-0.48-0.08-0.97-0.17-1.45-0.28c-0.85-0.19-1.7-0.42-2.52-0.7c-0.18-0.06-0.37-0.13-0.55-0.2
					c-0.11-0.04-0.7-0.28-0.26-0.09c-0.37-0.16-0.74-0.33-1.09-0.52c-0.68-0.36-1.35-0.76-1.96-1.23c-2.38-1.83-4.31-4.37-5.4-7.17
					c-4.13-10.55,1.55-24.1,11.98-28.56c11.13-4.75,24.03,2.29,29.72,12.06c0.73,1.25,1.36,2.54,1.87,3.89
					c0.43,1.13,1.51,1.9,2.75,1.56C132.17,81.15,133.08,79.83,132.65,78.7L132.65,78.7z"/>
			</g>
		</g>
		<g>
			<g>
				<path class="st0" d="M91.17,62.6c-4.58,13.5,0.86,28.22,11.8,36.95c2.48,1.98,5.14,3.62,8.11,4.74
					c1.13,0.43,2.45-0.47,2.75-1.56c0.35-1.26-0.43-2.32-1.56-2.75c-4.27-1.62-8.48-5.21-11.55-8.95
					c-3.66-4.48-6.23-10.16-6.71-15.95c-0.32-3.86,0.22-7.63,1.46-11.29C96.41,61.06,92.09,59.88,91.17,62.6L91.17,62.6z"/>
			</g>
		</g>
		<path class="st0" d="M169.29,102.34c0.04-0.03,0.06-0.06,0.06-0.09c-0.01-0.9-0.47-1.64-1.2-2.21c-0.78-0.79-1.85-1.27-3.05-1.25
			c-0.17,0-0.33,0.04-0.49,0.06c-0.29-0.02-0.59-0.04-0.89-0.04c-2.85,0.05-79.21,2.86-89.22,3.23c-1.36-6.97-8.14-12.2-18.8-12.03
			c-11.86,0.19-24,6.98-23.87,15.12c0.13,8.13,12.49,14.53,24.34,14.34c10.66-0.17,17.27-5.62,18.4-12.63
			c10.02,0.05,86.43,0.39,89.28,0.34c0.3,0,0.6-0.03,0.89-0.06c0.17,0.02,0.33,0.05,0.5,0.04c1.19-0.02,2.26-0.54,3.01-1.35
			c0.71-0.59,1.14-1.35,1.13-2.24c0-0.03-0.02-0.06-0.06-0.09c0.02-0.19,0.05-0.38,0.05-0.57
			C169.36,102.71,169.32,102.53,169.29,102.34z"/>
	</g>
	<path class="st2" d="M127.91,265.71c-0.48-1.55-18.17,5.3-28.65,22.53c-10.48,17.23-22.52,38.86-23.89,51.73s0.32,32.26,2.9,37.38
		c2.58,5.12,8.59,14.1,15.72,14.45c7.13,0.35,96.52-1.3,96.52-1.3l-15.26-69.82c0,0,11.33,18.75,16.9,22.5
		c5.56,3.75,13.83,7.42,25.58-2.07c11.74-9.49,21.83-36.62,21.83-36.62l-17.55-8c0,0-3.87,17.72-9.58,19.89
		c-5.71,2.17-13.21,5.9-17.73-6.33c-4.53-12.23-12.79-31-19.44-33.94c-6.65-2.93-15.26-13.54-15.26-13.54l-3.28,3.09
		c0,0-0.89,11.08-8.24,13.5C141.13,281.57,133.48,283.62,127.91,265.71z"/>
	<path class="st3" d="M222.01,296.49l17.55,6.26l5.42-6.26c0,0,9.56,4.46,11.54,0c1.98-4.46,2.8-12.59,6.63-13.21
		s10.03-3.23,9.02-5.31c-1.01-2.07-10.35-4.94-18.61-4.17c0,0-1.96-7.8-3.3-8.61c-1.34-0.8-8.5-3.07-10.25,0
		c-1.75,3.07-3.58,13.81-3.58,13.81S224.35,289.95,222.01,296.49z"/>
	<path class="st3" d="M109.14,336.78c0,0,12.59-7.33,12.81-11.55c0.22-4.22-0.93-8.59,1.4-10.03c2.33-1.44,5.9-3.55,7.32,0.48
		c1.42,4.03,0.37,9.54,3.24,9.55c2.87,0.01,13.63-0.45,15.53,1.2c1.91,1.65,4.1,4.49,1.14,6.05c-2.96,1.57-8.07,4.29-8.07,4.29
		s1.57,7.37-0.79,9.18s-4.82,0.49-9.58,0.82s-12.28,5.77-12.28,5.77S106.01,339.24,109.14,336.78z"/>
	<path class="st3" d="M77.04,191.01c0,0-13.66-12.59-20.27-5.99s-5.22,18.76,0,23.84s15.92,11.81,21.31,12.49s8.32,1.78,8.32,1.78
		s17.16,30.42,27.16,34.25c10,3.83,13.83,4.98,13.83,4.98s0.73,13.24,6.23,16.14c5.5,2.9,12.17,3.51,16.66-1.85
		c4.5-5.35,6.91-18.26,7.18-18.37c0.27-0.11,22.16-15.78,22.85-22.58c0.68-6.8,1.52-23.95,1.52-23.95s12.18-12.31,12.52-16.82
		c0.34-4.51-3.12-19.96-14.04-24.95l3.69-5.33c0,0,0.35-4.16,0.44-8.56l-112.52,19.6L77.04,191.01z"/>
	<path class="st1" d="M75.55,189c0,0,2.11-6.69,0.5-10.38c0,0,27.08-8.65,31.78-7.34c0,0,10.39,0.46,18.5-2.77
		c0,0,33.94-6.36,43.07-9.49l22.66-4.37c0,0-14.91-35.18-34.83-39.01l-16.72-4.26c0,0-6.8-8.99-15.7-10.11
		c-8.89-1.12-19.33-2.71-26.5,2.09s-24.45,10.1-30.51,23.84s-12.23,32.06-7.88,55.16L75.55,189z"/>
	<path class="st4" d="M184.65,156.84c0,0-7.28-25.03-13.23-32.43c0,0,18.69,20.85,20.63,29.16L184.65,156.84z"/>
	<path class="st5" d="M190.52,388.84l-15.65-69.91c0,0,15.13,31.83,30.26,29.22c15.13-2.61,30.78-28.7,34.43-45.39
		c0,0-13.04-2.61-17.22-7.3c0,0-5.22,16.83-9.91,20.93c-4.7,4.11-11.48,4.11-20.35-14.68c-7.58-16.06-18.96-31.84-35.59-39.34
		c1.95,0.88-2.49,17.95-14.08,19.14c-10.03,1.03-13.3-9.5-14.5-15.8c-0.07-0.36-8.29,3.46-8.7,3.69
		c-8.02,4.56-14.65,11.36-19.95,18.84c-12.34,17.42-21.52,38.51-23.48,59.9c-0.87,9.55-0.5,20.05,2.49,29.21
		c4.11,12.56,20.42,18.27,26.45,7.39c4.48-8.08,8.16-21.53,14.84-30.86c0,0-13.57-8.35-9.91-19.3c0,0-8.87,7.83-10.96,14.61"/>
	<path class="st5" d="M75.37,187.97c0,0,4.02,25.57,13.41,41.74c9.39,16.17,21.91,35.06,51.65,32.66
		c17.92-1.45,36.41-11.31,40.07-30.45c3.54-18.47-2.83-37.37-1.71-55.88c0.05-0.78,0.08-1.56,0.24-2.33
		c1.39-6.61,5.91-9.04,5.91-9.04"/>
	<path class="st5" d="M76.08,191.87c0,0-10.77-11.2-18.43-7.37c-7.65,3.83-5.22,20.17,0,25.39s15.95,15.04,27.8,13.26"/>
	<path class="st5" d="M79.52,206.32c0,0-6.58-7.57-10.4-4.44s-0.68,8.35,3.49,8"/>
	<path class="st5" d="M181.3,212.03c0,0,13.05-5.97,13.4-20.58S180.32,170,180.32,170"/>
	<path class="st6" d="M135.22,197.01c0,0,0,1.26,0,4.11c0,2.85,2.09,5.63,4.17,6.32s5.57,3.3,4.17,6.17
		c-1.39,2.87-4.01,5.65-4.01,5.65"/>
	<path class="st6" d="M167.57,186.88c0,0-1.83-10.65-13.48-8.87"/>
	<path class="st6" d="M103.91,203.53c0,0,8.09-4.51,15.65-6.51c0,0-4.96-5.39-19.3-3.04"/>
	
		<ellipse transform="matrix(0.9965 -0.0831 0.0831 0.9965 -15.6698 13.5333)" class="st0" cx="154.68" cy="194.94" rx="5.41" ry="9.07"/>
	<g>
		<path class="st0" d="M148.46,233.11c-4.38-0.19-8.74,0.25-13.03-0.68c-2.85-0.62-6.73-2.65-9.61-2.2
			c-10.68,1.68-4.98,15.29,1.41,18.41c4.19,2.05,10.32,2.61,14.65,0.87c3.59-1.44,7.36-3.85,9.88-6.81
			C154.93,238.99,154.54,233.36,148.46,233.11z"/>
	</g>
	<path class="st5" d="M89.57,127.19c0,0-23.31,22.65-16.36,50.22c0.31,1.24,1.73,1.84,2.84,1.21c5.4-3.06,19.07-9.2,31.78-7.34"/>
	<path class="st5" d="M87.22,139.97c0,0-3.04,18.41,2.65,32.94"/>
	<path class="st5" d="M111.74,125.36c0,0-9.07,21.46,2.75,43.48c0.38,0.71,1.16,1.1,1.95,1c5.29-0.65,25.3-3.25,36.65-6.44
		c0.89-0.25,1.42-1.16,1.19-2.06c-1.36-5.47-5.87-23.88-7.85-35.98c0,0,13.1,5.51,14.33,32.95c0.04,0.94,0.86,1.65,1.8,1.54
		c5.47-0.65,22.35-2.72,28.43-4.26c0.89-0.23,1.39-1.17,1.06-2.02c-2.85-7.4-17.11-39.3-52.5-42.3"/>
	<path class="st5" d="M60.09,183.7c-2.12-15.39-2.38-31.88,2.9-46.69c5.18-14.51,16.79-25.29,30.58-31.71
		c14.9-6.93,33.65-8.18,45.98,4.41"/>
	<path class="st5" d="M142.26,335.36c0.75,3.58,1.75,12.02-3.7,12.57c-2.27,0.23-4.17-1.25-6.41-1.16
		c-1.97,0.08-3.88,1.94-5.61,2.74c-2.67,1.24-5.36,2.45-8.06,3.63"/>
	<path class="st5" d="M109.14,336.78c0,0,7.23-4.55,9.35-6.63c2.12-2.09,4.21-3.65,3.69-9.13c-0.52-5.48,2.09-7.57,4.7-7.3
		c2.61,0.26,5.22,2.35,5.22,6c0,3.65-1.3,5.31,1.83,5.52c3.13,0.22,7.3-0.48,11.74,0c2.56,0.27,6.99,2.03,6.13,5.39
		c-0.88,3.44-6.71,4.03-9.52,4.74"/>
	<path class="st5" d="M224.47,297.23c0,0,1.27-6.21,4.67-11.95c3.39-5.74,7.83-7.83,8.09-8.87c0.26-1.04-0.26-10.7,4.17-12
		s9.39-0.52,9.91,2.61c0.52,3.13-0.52,7.04,3.91,7.04c4.43,0,16.7-1.3,16.96,3.91c0.26,5.22-4.96,4.43-7.83,4.96
		s-4.7,2.87-5.22,6.26c-0.52,3.39-1.83,8.26-6.78,8.04c-4.96-0.21-8.09-2.12-9.39,0.01c-1.3,2.13-3.39,5.52-3.39,5.52"/>
	<path class="st5" d="M246.35,296.49c0,0-4.13-10.96,1.98-15.91"/>
	<polygon class="st7" points="169.39,293.62 153.72,318.14 158.96,322.32 179.04,300.41 	"/>
	<polygon class="st7" points="164.17,331.71 201.48,322.32 205.13,333.01 166.38,338.49 	"/>
	<polygon class="st7" points="275.31,255.54 296.17,233.36 285.74,226.22 268.78,252.41 	"/>
	<polygon class="st7" points="282.48,263.8 282.48,270.93 321.74,267.36 319.91,253.97 	"/>
	<polygon class="st5" points="169.39,293.62 153.72,318.14 158.96,322.32 179.04,300.41 	"/>
	<polygon class="st5" points="164.17,331.71 201.48,322.32 205.13,333.01 166.38,338.49 	"/>
	<polygon class="st5" points="275.31,255.54 296.17,233.36 285.74,226.22 268.78,252.41 	"/>
	<polygon class="st5" points="282.48,263.8 282.48,270.93 321.74,267.36 319.91,253.97 	"/>
	<circle class="st1" cx="175.26" cy="212.62" r="15.26"/>
	<circle class="st1" cx="98.31" cy="225.64" r="15.26"/>
	<g>
		<path class="st8" d="M166.26,212.03c0,0,3.13,3.33,3.13,5.42"/>
		<path class="st8" d="M173.57,209.9c0,0,2.61,1.98,3.39,3.72"/>
	</g>
	<g>
		<path class="st8" d="M95.83,223.36c0,0-1.57,3.48-1.83,4.79"/>
		<path class="st8" d="M102.35,223.14c0,0,2.09,3.7,2.61,5"/>
		<path class="st8" d="M109.91,221.36c0,0,2.87,3.09,3.65,4.28"/>
	</g>
</g>
</svg>
