<?xml version="1.0" encoding="utf-8"?>
<!-- Generator: Adobe Illustrator 23.0.6, SVG Export Plug-In . SVG Version: 6.00 Build 0)  -->
<svg version="1.1" id="Layer_1" xmlns="http://www.w3.org/2000/svg" xmlns:xlink="http://www.w3.org/1999/xlink" x="0px" y="0px"
	 viewBox="0 0 15.99 15.98" style="enable-background:new 0 0 15.99 15.98;" xml:space="preserve">
<style type="text/css">
	.st0{fill:#B1B1B1;}
</style>
<path class="st0" d="M14.57,14.57c-0.33,0.33-0.87,0.33-1.2,0c-0.33-0.33-0.33-0.87,0-1.2c0.33-0.33,0.87-0.33,1.2,0
	C14.9,13.71,14.9,14.24,14.57,14.57z M6.78,11.93c-2.84,0-5.14-2.3-5.14-5.14c0-2.84,2.3-5.14,5.14-5.14c2.84,0,5.14,2.3,5.14,5.14
	C11.92,9.63,9.62,11.93,6.78,11.93z M15.22,12.5l-2.7-2.08c0.67-1.05,1.05-2.29,1.05-3.64C13.57,3.04,10.54,0,6.79,0S0,3.04,0,6.78
	s3.03,6.78,6.78,6.78c1.34,0,2.59-0.38,3.64-1.06l2.07,2.71c0.72,0.94,2.09,1.03,2.93,0.19C16.26,14.59,16.16,13.21,15.22,12.5z"/>
<ellipse class="st0" cx="6.78" cy="6.79" rx="4.08" ry="4.08"/>
</svg>
