<?xml version="1.0" encoding="utf-8"?>
<!-- Generator: Adobe Illustrator 25.2.3, SVG Export Plug-In . SVG Version: 6.00 Build 0)  -->
<svg version="1.1" id="Layer_1" xmlns="http://www.w3.org/2000/svg" xmlns:xlink="http://www.w3.org/1999/xlink" x="0px" y="0px"
	 viewBox="0 0 158.67 143.98" style="enable-background:new 0 0 158.67 143.98;" xml:space="preserve">
<style type="text/css">
	.st0{fill:#FFFFFF;}
	.st1{fill:#049260;}
	.st2{fill:none;stroke:#049260;stroke-width:2.8346;stroke-linecap:round;stroke-miterlimit:10;}
	.st3{fill:#E93743;}
	.st4{fill:#929292;stroke:#049260;stroke-width:1.4173;stroke-miterlimit:10;}
</style>
<g>
	<path class="st0" d="M30.69,72c0,0,9.65,14.61,16.43,20.87s13.17,14.74,13.17,14.74l-1.32,16.83h46.75l6.22-0.39l13.83,12.52
		l8.09-12L102.3,95.48l-9.65-6.78c0,0,34.17-10.17,42.52-22.83s13.17-28.3,5.22-37.57l-13.17-1.96c0,0-13.7,10.96-25.43,3.39
		s-13.3-18-18.65-21.26S65.64,0.52,55.47,1.83s-21.91,10.7-23.09,13.7L30.69,72z"/>
	<path class="st1" d="M136.6,125.91c-0.82-0.03-3.76-3.87-4.31-4.47c-4.86-5.23-8.6-11.02-14.27-15.49
		c-4.51-3.56-16.64-11.53-21.23-14.52c-0.75-0.49-0.64-1.62,0.19-1.95c5.18-2.05,18.8-7.47,20.41-8.29
		c10.9-5.56,20.34-12.41,25.86-23.79c4.43-9.13,4.17-22.7-1.04-31.04c-5.22-8.35-5.48-6.52-5.48-6.52s-9.39,4.7-15.65,7.3
		c-6.26,2.61-10.43,4.43-15.65,2.61c-5.22-1.83-12.26-13.04-18.52-19.3C78.92,2.45,67.49-1.22,56.34,0.36
		c-10.64,1.5-22.83,7.7-26.56,18.42l2.61,0.78c-0.18-0.05,1.6-3.59,1.72-3.78C40.2,5.65,57.99-0.16,69.02,3.33
		c8.05,2.55,14.34,8.26,19.58,14.85c4.75,5.99,9.33,13.85,17.41,15.53c9.85,2.05,20.94-3.86,29.68-7.62
		c1.7-0.73,4.36,7.75,4.77,8.95c4.85,14.2-3.22,27.66-14.47,36.06c-10.37,7.74-22.79,12.28-34.9,16.5
		c-2.21,0.77-2.95,0.96-2.09,3.36c1.12,3.13,4.21,4.34,6.95,5.64c6.87,3.26,13.49,6.86,19.24,11.9c6,5.25,16.59,17.24,16.59,17.24
		L136.6,125.91z"/>
	<path class="st1" d="M103.34,84.26c0,0,3.65,9.39,14.61,14.61s18,0.26,17.74-3.91c-0.26-4.17-7.83-9.39-12.52-11.48
		c-4.7-2.09-5.22-5.48-5.22-5.48L103.34,84.26z"/>
	<path class="st1" d="M31.86,18c4.87-1.22,7.33,4.05,8.54,7.83c2.17,6.77,3.37,13.88,4.81,20.83c1.52,7.29,2.71,14.68,2.75,22.15
		c0.06,10.04-0.53,23.04-7.89,30.77c-0.37,0.39-0.76,0.77-1.17,1.12c-9.39,8.09-20.09,8.35-27.91,6.78
		c-5.04-1.01-9.76-4.56-10.79-9.8c-0.83-4.21,0.93-8.85,4.41-11.39c3.44-2.51,8.04-2.13,11.6-4.38c4.96-3.13,11.22-9.91,11.48-16.43
		c0.26-6.52,0.52-19.83-0.26-29.22C26.64,26.87,26.64,19.31,31.86,18z"/>
	<path class="st1" d="M105.3,124.14c-1.32-2.06-2.22-4.36-3-6.67c-0.43-1.27-1.82-3.99-1.14-5.26c0.18,0,0.31,0.09,0.44,0.22
		c0,0,25.79,24.19,25.79,24.19c0.22,0.2,0.2,0.55-0.05,0.71l-0.8,0.53c-0.17,0.11-0.39,0.1-0.54-0.03l-15.52-13.3
		c-0.08-0.07-0.19-0.11-0.29-0.11h-4.48C105.54,124.44,105.3,124.14,105.3,124.14z"/>
	<path class="st1" d="M45.77,68.87c0,0,1.91,8.17,8,13.22s12,8,18.96,8.17c0,0-0.52,3.13-2.43,4c-1.91,0.87-6.96,0.17-10.09-2.43
		c-3.13-2.61-14.09-16-16.35-20.17L45.77,68.87z"/>
	<path class="st1" d="M97.83,62.69c0.49,0.05,0.97,0.41,0.97,0.89c0,0.24-0.11,0.46-0.22,0.67c-1.14,2.08-2.99,3.71-4.66,5.36
		c-2.36,2.34-4.93,4.49-7.69,6.34c-6.04,4.05-14.06,6.43-21.36,4.83c-7.52-1.65-16.85-10.43-11.65-18.58
		c2.9-4.54,8.66-4.9,13.4-3.53c7.55,2.18,14.01,6.35,22.13,6.06c1.65-0.06,3.3-0.27,4.9-0.69c1.22-0.32,2.81-1.35,4.06-1.35
		C97.76,62.68,97.79,62.68,97.83,62.69z"/>
	<path class="st0" d="M84.68,70.1c0.02,0.53-0.15,1.1-0.54,1.65c-3.21,4.54-10.83,5.38-15.89,4.45c-4.97-0.91-9.89-4.63-9.98-10.14
		c-0.05-3.27,2.4-3.94,4.92-3.06c3.77,1.31,7.57,2.51,11.44,3.47c2.7,0.68,5.43,1.23,8.17,1.7C83.98,68.37,84.64,69.16,84.68,70.1z"
		/>
	<path class="st2" d="M63.28,43.12l-1.56-3.62c-1.25-2.74-0.03-6.01,2.71-7.26l0,0c2.74-1.25,6.01-0.03,7.26,2.71l1.56,3.62"/>
	<g>
		<path class="st1" d="M141.56,17.77c-0.07-0.06-0.13-0.13-0.2-0.19c-3.09-2.75-8.66-1.61-11.5,0.91
			c-5.07,4.52-5.86,13.58,2.46,14.83c3.18,0.48,6.73-1.07,8.51-3.77C142.96,26.31,144.78,20.92,141.56,17.77z"/>
	</g>
	<g>
		<path class="st3" d="M139.49,22.36c-0.51-3.8-6.63-2.81-8.3-0.47c-0.5,0.69-0.62,1.57-0.69,2.42c-0.26,2.89,0.97,8.37,5.05,6.39
			c2.39-1.16,3.87-4.96,3.98-7.46C139.53,22.92,139.52,22.64,139.49,22.36z"/>
	</g>
	<path class="st4" d="M123.51,139.48c-1.74,1.57-3.48,6.09,5.74,0c9.22-6.09,14.78-13.04,16.7-13.74c1.91-0.7,5.96-1.63,9.22-6.09
		c3.3-4.52,3.48-8.87,1.57-10.26c-1.91-1.39-7.3,0.17-11.3,5.39c-2.4,3.13-2.99,7.39-3.48,8.87
		C140.73,127.31,125.25,137.91,123.51,139.48z"/>
	<path class="st4" d="M29.39,52.96c0,0-3.48,18.2-3.31,20.52s0.07,3.79,1.3,3.81c1.23,0.01,2.38-4.03,2.92-7.47
		s1.72-15.4,2.08-16.57c0.36-1.18,1.13-3.34,2.73-3.45c1.6-0.1,2.97-0.42,3.99-3.61c1.02-3.19,1.28-6.03,1.63-7.14
		c1.03-3.27-2.19-3.66-3.27,0.11c-1.14,3.96-1.15,4.04-2.11,3.98c-1.23-0.08-0.81-4.71-0.3-6.56c0.6-2.19-2.42-3.1-2.98-0.64
		c-0.5,2.21-0.83,6.47-2.27,6.16c-1.53-0.33-0.72-3.31-0.42-4.68c0.62-2.85-2.51-4.65-2.8-0.7c-0.12,1.61-0.97,4.03-1.33,8.02
		c-0.19,2.08,1.79,2.92,3.38,4.04C29.58,49.47,29.39,52.96,29.39,52.96z"/>
	<g>
		<path class="st1" d="M144.54,131.06c0.33-1.06,0.3-2.18-0.39-3.47c-0.29-0.54-0.8-0.92-1.32-1.24c-2.78-1.76-6.19-2.69-9.49-2.44
			c0.3,0.02,0.59,0.02,0.89,0.03c-3.25-0.11-6.47,1.32-7.95,4.33c-2.11,4.28-0.8,9.98,1.34,13.98c1.5,2.81,5.47,1.57,7.73,0.66
			c3.43-1.38,5.46-5.77,7.44-8.7C143.54,133.11,144.21,132.11,144.54,131.06z"/>
	</g>
	<g>
		<path class="st0" d="M140.03,126.79c-1.84-0.91-3.94-1.37-5.97-1.03c-2.02,0.34-3.94,1.52-4.95,3.31c-0.53,0.94-0.79,2-0.97,3.07
			c-0.41,2.41-0.41,4.88-0.01,7.28c0.14,0.87,0.41,1.79,0.98,2.48c1,1.22,2.87,0.75,4.11,0.21c1.63-0.7,2.45-2.1,3.58-3.37
			c1.59-1.79,3.18-3.58,4.77-5.37c0.6-0.67,1.22-1.39,1.4-2.27C143.36,129.27,141.71,127.63,140.03,126.79z"/>
	</g>
	<polygon class="st0" points="30.69,72 46.82,93.78 57.99,89.65 38.9,66.52 	"/>
	<g>
		<path class="st1" d="M40.33,66.78c0.01-0.15,0-0.3-0.03-0.46c-0.19-1.28-1.07-2.74-1.53-3.95c-0.25-0.64-1.49-2.76-1.3-3.42
			c0,0-0.04,0.14-0.04,0.14c-0.09-0.33-0.19-0.65-0.3-0.97c-0.74-2.12-1.73-3.97-2.76-5.14c-1.62-1.82-2.14-0.23-3.85-0.01
			c-3.64,0.48-7.15,1.53-7.81,5.64c-0.44,2.77-0.14,6.15,0.84,8.78c1.19,3.19,4.93,5.36,8.22,5.52
			C34.61,73.06,40.21,69.97,40.33,66.78z"/>
	</g>
	<g>
		<path class="st0" d="M34,55.61c-1.54-1.86-5.26-0.55-7.24,0.19c-1.32,0.5-2.41,1.28-2.78,2.78c-1,4.09,0.96,11.36,5.33,12.75
			c1.52,0.49,3.47,0.22,4.96-0.28c5.77-1.93,2.03-11.78-0.07-15.18C34.13,55.79,34.07,55.7,34,55.61z"/>
	</g>
	<path class="st1" d="M42.56,92.61c0.3,0.76,1.67,1.75,2.26,2.4c2.87,3.14,5.58,6.45,7.79,10.1c2.16,3.57,4.33,7.77,3.38,12.07
		c-0.54,2.47-1.34,4.9-2.24,7.26h5.23c0,0,2.62-7.83,2.88-10.17s-0.26-6.26-2.35-8.61c-2.09-2.35-20.26-21.74-20.26-21.74
		S42.56,92.61,42.56,92.61z"/>
</g>
</svg>
