<?xml version="1.0" encoding="utf-8"?>
<!-- Generator: Adobe Illustrator 25.2.3, SVG Export Plug-In . SVG Version: 6.00 Build 0)  -->
<svg version="1.1" id="Layer_1" xmlns="http://www.w3.org/2000/svg" xmlns:xlink="http://www.w3.org/1999/xlink" x="0px" y="0px"
	 viewBox="0 0 159.02 143.98" style="enable-background:new 0 0 159.02 143.98;" xml:space="preserve">
<style type="text/css">
	.st0{fill:#FFFFFF;}
	.st1{fill:#049260;}
	.st2{fill:none;stroke:#049260;stroke-width:2.8346;stroke-linecap:round;stroke-miterlimit:10;}
	.st3{fill:#E93743;}
	.st4{fill:#929292;stroke:#049260;stroke-width:1.4173;stroke-miterlimit:10;}
</style>
<g>
	<path class="st0" d="M128.27,72c0,0-9.65,14.61-16.43,20.87c-6.78,6.26-13.17,14.74-13.17,14.74l1.32,16.83H53.23l-6.22-0.39
		l-13.83,12.52l-8.09-12l31.57-29.09l9.65-6.78c0,0-34.17-10.17-42.52-22.83s-13.17-28.3-5.22-37.57l13.17-1.96
		c0,0,13.7,10.96,25.43,3.39s13.3-18,18.65-21.26c5.35-3.26,17.48-7.96,27.65-6.65s21.91,10.7,23.09,13.7L128.27,72z"/>
	<path class="st1" d="M22.36,125.91c0.82-0.03,3.76-3.87,4.31-4.47c4.86-5.23,8.6-11.02,14.27-15.49
		c4.51-3.56,16.64-11.53,21.23-14.52c0.75-0.49,0.64-1.62-0.19-1.95c-5.18-2.05-18.8-7.47-20.41-8.29
		c-10.9-5.56-20.34-12.41-25.86-23.79c-4.43-9.13-4.17-22.7,1.04-31.04c5.22-8.35,5.48-6.52,5.48-6.52s9.39,4.7,15.65,7.3
		s10.43,4.43,15.65,2.61c5.22-1.83,12.26-13.04,18.52-19.3c7.99-7.99,19.41-11.65,30.57-10.08c10.64,1.5,22.83,7.7,26.56,18.42
		l-2.61,0.78c0.18-0.05-1.6-3.59-1.72-3.78c-6.1-10.14-23.89-15.94-34.92-12.45c-8.05,2.55-14.34,8.26-19.58,14.85
		c-4.75,5.99-9.33,13.85-17.41,15.53c-9.85,2.05-20.94-3.86-29.68-7.62c-1.7-0.73-4.36,7.75-4.77,8.95
		c-4.85,14.2,3.22,27.66,14.47,36.06c10.37,7.74,22.79,12.28,34.9,16.5c2.21,0.77,2.95,0.96,2.09,3.36
		c-1.12,3.13-4.21,4.34-6.95,5.64c-6.87,3.26-13.49,6.86-19.24,11.9c-6,5.25-16.59,17.24-16.59,17.24L22.36,125.91z"/>
	<path class="st1" d="M55.62,84.26c0,0-3.65,9.39-14.61,14.61s-18,0.26-17.74-3.91s7.83-9.39,12.52-11.48
		c4.7-2.09,5.22-5.48,5.22-5.48L55.62,84.26z"/>
	<path class="st1" d="M127.09,18c-4.87-1.22-7.33,4.05-8.54,7.83c-2.17,6.77-3.37,13.88-4.81,20.83
		c-1.52,7.29-2.71,14.68-2.75,22.15c-0.06,10.04,0.53,23.04,7.89,30.77c0.37,0.39,0.76,0.77,1.17,1.12
		c9.39,8.09,20.09,8.35,27.91,6.78c5.04-1.01,9.76-4.56,10.79-9.8c0.83-4.21-0.93-8.85-4.41-11.39c-3.44-2.51-8.04-2.13-11.6-4.38
		c-4.96-3.13-11.22-9.91-11.48-16.43c-0.26-6.52-0.52-19.83,0.26-29.22C132.31,26.87,132.31,19.31,127.09,18z"/>
	<path class="st1" d="M53.65,124.14c1.32-2.06,2.22-4.36,3-6.67c0.43-1.27,1.82-3.99,1.14-5.26c-0.18,0-0.31,0.09-0.44,0.22
		c0,0-25.79,24.19-25.79,24.19c-0.22,0.2-0.2,0.55,0.05,0.71l0.8,0.53c0.17,0.11,0.39,0.1,0.54-0.03l15.52-13.3
		c0.08-0.07,0.19-0.11,0.29-0.11h4.48C53.42,124.44,53.65,124.14,53.65,124.14z"/>
	<path class="st1" d="M113.18,68.87c0,0-1.91,8.17-8,13.22c-6.09,5.04-12,8-18.96,8.17c0,0,0.52,3.13,2.43,4
		c1.91,0.87,6.96,0.17,10.09-2.43s14.09-16,16.35-20.17L113.18,68.87z"/>
	<path class="st1" d="M61.13,62.69c-0.49,0.05-0.97,0.41-0.97,0.89c0,0.24,0.11,0.46,0.22,0.67c1.14,2.08,2.99,3.71,4.66,5.36
		c2.36,2.34,4.93,4.49,7.69,6.34c6.04,4.05,14.06,6.43,21.36,4.83c7.52-1.65,16.85-10.43,11.65-18.58c-2.9-4.54-8.66-4.9-13.4-3.53
		c-7.55,2.18-14.01,6.35-22.13,6.06c-1.65-0.06-3.3-0.27-4.9-0.69c-1.22-0.32-2.81-1.35-4.06-1.35
		C61.2,62.68,61.16,62.68,61.13,62.69z"/>
	<path class="st0" d="M74.28,70.1c-0.02,0.53,0.15,1.1,0.54,1.65c3.21,4.54,10.83,5.38,15.89,4.45c4.97-0.91,9.89-4.63,9.98-10.14
		c0.05-3.27-2.4-3.94-4.92-3.06c-3.77,1.31-7.57,2.51-11.44,3.47c-2.7,0.68-5.43,1.23-8.17,1.7C74.98,68.37,74.31,69.16,74.28,70.1z
		"/>
	<path class="st2" d="M95.67,43.12l1.56-3.62c1.25-2.74,0.03-6.01-2.71-7.26l0,0c-2.74-1.25-6.01-0.03-7.26,2.71l-1.56,3.62"/>
	<g>
		<path class="st1" d="M17.39,17.77c0.07-0.06,0.13-0.13,0.2-0.19c3.09-2.75,8.66-1.61,11.5,0.91c5.07,4.52,5.86,13.58-2.46,14.83
			c-3.18,0.48-6.73-1.07-8.51-3.77C15.99,26.31,14.18,20.92,17.39,17.77z"/>
	</g>
	<g>
		<path class="st3" d="M19.47,22.36c0.51-3.8,6.63-2.81,8.3-0.47c0.5,0.69,0.62,1.57,0.69,2.42c0.26,2.89-0.97,8.37-5.05,6.39
			c-2.39-1.16-3.87-4.96-3.98-7.46C19.42,22.92,19.43,22.64,19.47,22.36z"/>
	</g>
	<path class="st4" d="M35.44,139.48c1.74,1.57,3.48,6.09-5.74,0c-9.22-6.09-14.78-13.04-16.7-13.74c-1.91-0.7-5.96-1.63-9.22-6.09
		c-3.3-4.52-3.48-8.87-1.57-10.26c1.91-1.39,7.3,0.17,11.3,5.39c2.4,3.13,2.99,7.39,3.48,8.87
		C18.23,127.31,33.7,137.91,35.44,139.48z"/>
	<path class="st4" d="M129.57,52.96c0,0,3.48,18.2,3.31,20.52c-0.17,2.31-0.07,3.79-1.3,3.81c-1.23,0.01-2.38-4.03-2.92-7.47
		s-1.72-15.4-2.08-16.57c-0.36-1.18-1.13-3.34-2.73-3.45c-1.6-0.1-2.97-0.42-3.99-3.61c-1.02-3.19-1.28-6.03-1.63-7.14
		c-1.03-3.27,2.19-3.66,3.27,0.11c1.14,3.96,1.15,4.04,2.11,3.98c1.23-0.08,0.81-4.71,0.3-6.56c-0.6-2.19,2.42-3.1,2.98-0.64
		c0.5,2.21,0.83,6.47,2.27,6.16c1.53-0.33,0.72-3.31,0.42-4.68c-0.62-2.85,2.51-4.65,2.8-0.7c0.12,1.61,0.97,4.03,1.33,8.02
		c0.19,2.08-1.79,2.92-3.38,4.04C129.38,49.47,129.57,52.96,129.57,52.96z"/>
	<g>
		<path class="st1" d="M14.41,131.06c-0.33-1.06-0.3-2.18,0.39-3.47c0.29-0.54,0.8-0.92,1.32-1.24c2.78-1.76,6.19-2.69,9.49-2.44
			c-0.3,0.02-0.59,0.02-0.89,0.03c3.25-0.11,6.47,1.32,7.95,4.33c2.11,4.28,0.8,9.98-1.34,13.98c-1.5,2.81-5.47,1.57-7.73,0.66
			c-3.43-1.38-5.46-5.77-7.44-8.7C15.42,133.11,14.74,132.11,14.41,131.06z"/>
	</g>
	<g>
		<path class="st0" d="M18.93,126.79c1.84-0.91,3.94-1.37,5.97-1.03c2.02,0.34,3.94,1.52,4.95,3.31c0.53,0.94,0.79,2,0.97,3.07
			c0.41,2.41,0.41,4.88,0.01,7.28c-0.14,0.87-0.41,1.79-0.98,2.48c-1,1.22-2.87,0.75-4.11,0.21c-1.63-0.7-2.45-2.1-3.58-3.37
			c-1.59-1.79-3.18-3.58-4.77-5.37c-0.6-0.67-1.22-1.39-1.4-2.27C15.59,129.27,17.25,127.63,18.93,126.79z"/>
	</g>
	<polygon class="st0" points="128.27,72 112.14,93.78 100.96,89.65 120.05,66.52 	"/>
	<g>
		<path class="st1" d="M118.63,66.78c-0.01-0.15,0-0.3,0.03-0.46c0.19-1.28,1.07-2.74,1.53-3.95c0.25-0.64,1.49-2.76,1.3-3.42
			c0,0,0.04,0.14,0.04,0.14c0.09-0.33,0.19-0.65,0.3-0.97c0.74-2.12,1.73-3.97,2.76-5.14c1.62-1.82,2.14-0.23,3.85-0.01
			c3.64,0.48,7.15,1.53,7.81,5.64c0.44,2.77,0.14,6.15-0.84,8.78c-1.19,3.19-4.93,5.36-8.22,5.52
			C124.35,73.06,118.74,69.97,118.63,66.78z"/>
	</g>
	<g>
		<path class="st0" d="M124.96,55.61c1.54-1.86,5.26-0.55,7.24,0.19c1.32,0.5,2.41,1.28,2.78,2.78c1,4.09-0.96,11.36-5.33,12.75
			c-1.52,0.49-3.47,0.22-4.96-0.28c-5.77-1.93-2.03-11.78,0.07-15.18C124.82,55.79,124.89,55.7,124.96,55.61z"/>
	</g>
	<path class="st1" d="M116.4,92.61c-0.3,0.76-1.67,1.75-2.26,2.4c-2.87,3.14-5.58,6.45-7.79,10.1c-2.16,3.57-4.33,7.77-3.38,12.07
		c0.54,2.47,1.34,4.9,2.24,7.26h-5.23c0,0-2.62-7.83-2.88-10.17s0.26-6.26,2.35-8.61c2.09-2.35,20.26-21.74,20.26-21.74
		S116.4,92.61,116.4,92.61z"/>
</g>
</svg>
