<?xml version="1.0" encoding="utf-8"?>
<!-- Generator: Adobe Illustrator 23.0.6, SVG Export Plug-In . SVG Version: 6.00 Build 0)  -->
<svg version="1.1" id="Layer_1" xmlns="http://www.w3.org/2000/svg" xmlns:xlink="http://www.w3.org/1999/xlink" x="0px" y="0px"
	 viewBox="0 0 10 10" style="enable-background:new 0 0 10 10;" xml:space="preserve">
<style type="text/css">
	.st0{fill:#1F3D2B;}
</style>
<path class="st0" d="M4.5,0.5C4.5,0.22,4.72,0,5,0s0.5,0.22,0.5,0.5V1c0,0.28-0.22,0.5-0.5,0.5S4.5,1.28,4.5,1V0.5z"/>
<circle class="st0" cx="5" cy="5" r="2.5"/>
<path class="st0" d="M5,8.5C4.72,8.5,4.5,8.72,4.5,9v0.5C4.5,9.78,4.72,10,5,10s0.5-0.22,0.5-0.5V9C5.5,8.72,5.28,8.5,5,8.5z"/>
<path class="st0" d="M1.46,2.17c-0.2-0.2-0.2-0.51,0-0.71c0.2-0.2,0.51-0.2,0.71,0l0.35,0.35c0.2,0.2,0.2,0.51,0,0.71
	c-0.2,0.2-0.51,0.2-0.71,0L1.46,2.17z"/>
<path class="st0" d="M7.47,7.47c-0.2,0.2-0.2,0.51,0,0.71l0.35,0.35c0.2,0.2,0.51,0.2,0.71,0c0.2-0.2,0.2-0.51,0-0.71L8.18,7.47
	C7.99,7.28,7.67,7.28,7.47,7.47z"/>
<path class="st0" d="M0.5,5.5C0.22,5.5,0,5.28,0,5s0.22-0.5,0.5-0.5H1c0.28,0,0.5,0.22,0.5,0.5S1.28,5.5,1,5.5H0.5z"/>
<path class="st0" d="M8.5,5c0,0.28,0.22,0.5,0.5,0.5h0.5C9.78,5.5,10,5.28,10,5S9.78,4.5,9.5,4.5H9C8.72,4.5,8.5,4.72,8.5,5z"/>
<path class="st0" d="M1.87,8.28c-0.21,0.18-0.53,0.15-0.7-0.06C0.99,8,1.02,7.69,1.23,7.51l0.38-0.32c0.21-0.18,0.53-0.15,0.7,0.06
	c0.18,0.21,0.15,0.53-0.06,0.7L1.87,8.28z"/>
<path class="st0" d="M7.68,2.75c0.18,0.21,0.49,0.24,0.7,0.06l0.38-0.32C8.98,2.31,9.01,2,8.83,1.79c-0.18-0.21-0.49-0.24-0.7-0.06
	L7.74,2.05C7.53,2.22,7.5,2.54,7.68,2.75z"/>
</svg>
