<?xml version="1.0" encoding="utf-8"?>
<!-- Generator: Adobe Illustrator 25.2.3, SVG Export Plug-In . SVG Version: 6.00 Build 0)  -->
<svg version="1.1" id="Layer_1" xmlns="http://www.w3.org/2000/svg" xmlns:xlink="http://www.w3.org/1999/xlink" x="0px" y="0px"
	 viewBox="0 0 351 452" style="enable-background:new 0 0 351 452;" xml:space="preserve">
<style type="text/css">
	.st0{clip-path:url(#SVGID_2_);fill:#FFFFFF;}
	
		.st1{clip-path:url(#SVGID_2_);fill:none;stroke:#049260;stroke-width:4.252;stroke-linecap:round;stroke-linejoin:round;stroke-miterlimit:10;}
	
		.st2{clip-path:url(#SVGID_2_);fill:none;stroke:#049260;stroke-width:5.6693;stroke-linecap:round;stroke-linejoin:round;stroke-miterlimit:10;}
	.st3{clip-path:url(#SVGID_2_);fill:#E87AAF;}
	.st4{clip-path:url(#SVGID_2_);fill:#FFE2A8;}
	.st5{clip-path:url(#SVGID_2_);fill:#049260;}
	.st6{clip-path:url(#SVGID_2_);fill:#FED353;}
	.st7{clip-path:url(#SVGID_2_);fill:#DCF7F6;}
	.st8{clip-path:url(#SVGID_2_);}
	.st9{fill:#FFFFFF;}
	.st10{fill:#049260;}
	.st11{fill:#F2C0C3;}
	.st12{fill:none;stroke:#049260;stroke-width:2.8346;stroke-linecap:round;stroke-linejoin:round;stroke-miterlimit:10;}
	.st13{fill:#F3F5DF;}
</style>
<g>
	<defs>
		<path id="SVGID_1_" d="M351.5,452.35h-331c-11.05,0-20-8.95-20-20v-412c0-11.05,8.95-20,20-20h331V452.35z"/>
	</defs>
	<clipPath id="SVGID_2_">
		<use xlink:href="#SVGID_1_"  style="overflow:visible;"/>
	</clipPath>
	<path class="st0" d="M173.2,198.81l36.78-44.78c0,0-1.57-14.51,8.09-15.29s10.96,8.56,9.13,11.98c-1.83,3.41-9.39,7.29-9.39,7.29
		l-34.49,50.94"/>
	<path class="st0" d="M90.49,205.78l-51.38-34.31c0,0-5.22-13-12.52-11.25s-9.91,12.22-5.48,14.42s12.52,5.91,12.52,5.91
		l47.58,38.81"/>
	<path class="st1" d="M173.2,198.81l36.78-44.78c0,0-1.57-14.51,8.09-15.29s10.96,8.56,9.13,11.98c-1.83,3.41-9.39,7.29-9.39,7.29
		l-33.65,49.69"/>
	<path class="st2" d="M90.49,205.78l-51.38-34.31c0,0-5.22-13-12.52-11.25s-9.91,12.22-5.48,14.42s12.52,5.91,12.52,5.91
		l47.58,38.81"/>
	<path class="st3" d="M117.57,209.25c0,0,5.6,18.96,15.87,19.22c10.27,0.26,14.74-4.39,15.77-17.33l11.71,21.76l-23.74,11.48
		l-17.2-3.3L117.57,209.25z"/>
	<path class="st4" d="M110.68,204.57l2.09,36.56c0.04,0.75-0.2,1.49-0.68,2.07l-12.13,14.75l-4.15,82.43l108.15-3.56L173.2,231.87
		l-15.99-27.3l-7.99,6.58l7.94,19.66c0.64,1.59-0.18,3.4-1.82,3.94c-4.92,1.62-11.26,5.46-30.86,6.29
		c-1.18,0.05-2.21-0.74-2.29-1.92l-2.33-23.05l-2.28-6.83L110.68,204.57z"/>
	<path class="st3" d="M173.68,233.52l14.47-18.18c0.55-0.69,0.5-1.69-0.11-2.32l-18.25-18.83c-0.63-0.66-1.68-0.67-2.34-0.04
		l-9.14,8.81l-1.11,1.61L173.68,233.52z"/>
	<path class="st3" d="M99.97,257.96v-19.83l-20.51-15.27c-0.67-0.5-0.81-1.45-0.3-2.12l15.37-20.25c0.73-0.96,2.07-1.22,3.11-0.6
		l13.05,7.8l2.18,34.96L99.97,257.96z"/>
	<path class="st0" d="M149.21,211.15c-1.03,12.93-5.49,17.59-15.77,17.33c-10.27-0.26-15.87-19.22-15.87-19.22L149.21,211.15z"/>
	<path class="st5" d="M171.36,328.29c-1.18-0.83-3.42-2.33-3.53-3.91c0-0.01-0.54-8.38-0.54-8.38c-0.2-3.09,4.5-4.48,6.81-5.03
		c2.94-0.7,6.87-0.62,9.95,0.03c0.06-1.11,0.12-2.17,0.18-3.17c-2.05-0.27-5.64-0.59-10.05-0.47c-3.15,0.08-5.82,0.98-7.8,1.69
		c-2.32,0.83-3.85,3.02-3.89,5.48c-0.06,3.53,0.07,8.62,1.12,11.28c1.69,4.26,7.02,7.57,20.28,7.46c-0.04-0.7-0.08-1.41-0.11-2.13
		C179.74,330.88,174.7,330.62,171.36,328.29z"/>
	<path class="st6" d="M174.1,310.98c-2.31,0.55-7.01,1.94-6.81,5.03c0,0,0.54,8.37,0.54,8.38c0.1,1.58,2.34,3.09,3.53,3.91
		c3.34,2.33,8.38,2.58,12.43,2.87c-0.05-1.24-0.09-2.5-0.11-3.77c-3.46-0.29-6.69-1.88-7.77-2.76c-0.42-0.34-0.67-0.84-0.7-1.38
		l-0.41-6.37c-0.07-1.08,0.75-2.01,1.83-2.08c0,0,3.7-0.24,7.24,0.11c0.05-1.34,0.11-2.64,0.18-3.89
		C180.97,310.36,177.04,310.28,174.1,310.98z"/>
	<path class="st2" d="M149.21,211.15c-1.03,12.93-5.49,17.59-15.77,17.33c-10.27-0.26-15.87-19.22-15.87-19.22"/>
	<path class="st2" d="M149.21,211.15c-1.03,12.93-5.49,17.59-15.77,17.33c-10.27-0.26-15.87-19.22-15.87-19.22"/>
	<path class="st1" d="M110.77,206.13l2,35.01c0.04,0.75-0.2,1.49-0.68,2.07l-12.13,14.75l-4.15,82.43l108.15-3.56L173.2,231.87
		l-15.99-27.3l-7.99,6.58l7.94,19.66c0.64,1.59-0.18,3.4-1.82,3.94c-4.92,1.62-11.26,5.46-30.86,6.29
		c-1.18,0.05-2.21-0.74-2.29-1.92l-2.33-23.05l-2.28-6.83L110.77,206.13z"/>
	<path class="st1" d="M173.68,233.52l14.47-18.18c0.55-0.69,0.5-1.69-0.11-2.32l-18.25-18.83c-0.63-0.66-1.68-0.67-2.34-0.04
		l-9.14,8.81l-1.11,1.61L173.68,233.52z"/>
	<path class="st1" d="M99.97,257.96v-19.83l-20.51-15.27c-0.67-0.5-0.81-1.45-0.3-2.12l15.37-20.25c0.73-0.96,2.07-1.22,3.11-0.6
		l13.05,7.8l2.09,33.44L99.97,257.96z"/>
	<line class="st2" x1="0.5" y1="344.04" x2="351.5" y2="331.6"/>
	<path class="st1" d="M176.62,314.79c-1.08,0.07-1.9,1-1.83,2.08l0.41,6.37c0.03,0.54,0.29,1.04,0.7,1.38
		c1.07,0.89,4.31,2.48,7.77,2.76c-0.07-4.19,0.03-8.51,0.19-12.49C180.33,314.56,176.62,314.79,176.62,314.79z"/>
	<path class="st6" d="M307.41,308.83c1.08,0,1.96,0.88,1.96,1.96v6.39c0,0.54-0.22,1.05-0.61,1.42c-0.98,0.92-3.95,2.57-7.25,3.13
		c0.06,1.26,0.09,2.52,0.11,3.8c3.97-0.53,8.81-1.09,11.92-3.56c1.13-0.9,3.27-2.54,3.27-4.13c0-0.01,0-8.39,0-8.39
		c0-3.09-4.78-4.18-7.12-4.58c-2.92-0.49-6.75-0.24-9.76,0.56c0.18,1.23,0.35,2.52,0.52,3.88
		C303.88,308.78,307.41,308.83,307.41,308.83z"/>
	<path class="st5" d="M317.26,302.45c-2.02-0.58-4.74-1.12-7.89-1.18c-4.94-0.09-8.37,0.61-9.92,1.02c0.16,0.98,0.32,2.03,0.48,3.14
		c3.01-0.8,6.83-1.06,9.76-0.56c2.34,0.39,7.12,1.48,7.12,4.58c0,0,0,8.38,0,8.39c0,1.59-2.14,3.23-3.27,4.13
		c-3.1,2.48-7.95,3.03-11.92,3.56c0.01,0.72,0.02,1.44,0.01,2.16c13.03-0.78,18.08-4.35,19.47-8.68c0.88-2.73,0.68-7.81,0.39-11.33
		C321.3,305.21,319.63,303.12,317.26,302.45z"/>
	<path class="st5" d="M301.62,325.52c-0.02-1.27-0.06-2.54-0.11-3.8c-0.19-4.38-0.59-8.63-1.06-12.42
		c-0.17-1.36-0.34-2.65-0.52-3.88c-0.16-1.11-0.32-2.16-0.48-3.14c-0.43-2.64-0.83-4.79-1.12-6.24c-0.24-1.2-1.32-2.05-2.55-2
		l-108.66,4.52c-1.25,0.05-2.28,1.03-2.38,2.28c-0.14,1.63-0.33,4.07-0.51,7c-0.06,1-0.12,2.06-0.18,3.17
		c-0.07,1.25-0.13,2.55-0.18,3.89c-0.16,3.98-0.25,8.3-0.19,12.49c0.02,1.28,0.06,2.54,0.11,3.77c0.03,0.72,0.07,1.43,0.11,2.13
		c0.2,3.21,0.52,6.19,1.04,8.66c2.87,13.83,12.78,24.52,19.3,25.57s40.43-2.09,49.57-2.35s32.35-0.52,36.52-4.17
		c4.17-3.65,10.43-11.31,11.22-29.4c0.06-1.3,0.08-2.62,0.09-3.93C301.64,326.96,301.63,326.24,301.62,325.52z M296.33,342.22
		c-2.35,14.09-11.22,17.48-20.61,17.48s-51.39,2.35-67.57,2.61c-16.17,0.26-17.22-12-19.62-23.22c-1.88-8.75-1.9-25.92-1.82-33.04
		c0.02-1.85,1.41-3.4,3.25-3.62c7.87-0.95,28.86-3.25,46.89-3.25h53.48c1.81,0,3.36,1.31,3.65,3.1
		C295.24,310.12,298.21,330.94,296.33,342.22z"/>
	<path class="st6" d="M290.33,299.17h-53.48c-18.03,0-39.02,2.3-46.89,3.25c-1.84,0.22-3.23,1.77-3.25,3.62
		c-0.08,7.13-0.06,24.29,1.82,33.04c2.41,11.22,3.45,23.48,19.62,23.22c16.17-0.26,58.17-2.61,67.57-2.61s18.26-3.39,20.61-17.48
		c1.88-11.28-1.09-32.09-2.35-39.94C293.69,300.48,292.14,299.17,290.33,299.17z"/>
	<path class="st5" d="M257.89,282.65c-0.6-6.53-1.65-14.48,0.25-20.83c1.44-4.81,6.55-7.69,11.4-7.69c3.84,0,6.59-3.02,9.9-4.43
		c8.15-3.47,15.99,4.27,16.69,12.12c0.54,6.04-4.26,8.12-9.3,9.4c-1.74,0.44-3.67,0.78-5.23,1.71c-2.11,1.24-3.3,3.51-4.79,5.37
		c-2.01,2.51-5.11,2.14-7.95,2.03c-2.11-0.08-6.36-0.45-7.84,1.46c-1.22,1.57-2.61,2.61-2.61,2.61L257.89,282.65z"/>
	<path class="st7" d="M259.46,280.56c3.63-4.19,8.92-1.63,13.51-3.16c3.01-1.01,4.94-3.64,6.97-5.91c2.64-2.94,6.85-4.29,9.39-7.41
		c2.44-2.99,2.46-7.83,0.04-10.92c-2.3-2.93-8.2-3.88-11.12-1.29c-1.78,1.58-3.76,3.09-6.12,3.64c-2.54,0.58-5.21,0.09-7.61,1.36
		c-2.14,1.14-4.33,3.08-4.95,5.5c-1.02,3.98-0.99,8.14-0.71,12.22C258.93,275.72,260.13,279.78,259.46,280.56z"/>
	<path class="st5" d="M244.67,286.65c0,0-5.22-10.78-5.22-14.17c0-4.94,3.73-7.01,6.4-10.42c1.85-2.36,1.32-5.29,1.67-8.05
		c1.4-11.22,14.76-13.67,21.67-20.28c5.76-5.51,7.5-14.13,5.78-21.74c-1.84-8.16-7.95-15.01-15.38-18.64
		c-8.54-4.16-18.14-2.98-25.77,2.5c-6.9,4.96-15.3,8.28-18.79,16.62c-1.91,4.56-1.77,9.31-0.29,13.96c1.18,3.72,5.57,8.67,3.92,12.8
		c-0.56,1.4-1.89,2.32-3.22,3.02c-5.74,3-10.03,8.54-9.41,15.38c0.99,10.87,15.21,12.37,22.56,17.05
		C234.22,278.29,239.04,283.01,244.67,286.65z"/>
	<path class="st7" d="M237.54,278.48c0,0-1.57-5.04-1.39-7.48c0.4-5.65,7.41-7.53,9.19-12.52c0.89-2.5,0.5-5.32,1.38-7.93
		c1.73-5.14,5.32-7.54,9.64-10.34c3.4-2.2,7.15-4.3,9.84-7.39c4.91-5.64,6.13-14.44,4.28-21.52c-1.96-7.47-8.61-12.68-15.94-14.38
		c-6.22-1.44-12,0.71-17.44,3.58c-5.4,2.84-12.34,5.16-16.6,9.63c-4.39,4.61-5.04,10.63-3.25,16.55c1.26,4.16,5.77,9.39,3.42,13.91
		c-1.53,2.92-4.94,3.85-7.37,5.8c-3.48,2.78-5.3,8.42-3.97,12.72c1.34,4.33,6.51,6.71,10.36,8.3c5.14,2.12,9.97,4.41,14.25,8.01
		C234.83,276.17,237.2,277.36,237.54,278.48z"/>
	<path class="st1" d="M309.37,317.17v-6.39c0-1.08-0.88-1.96-1.96-1.96c0,0-3.53-0.05-6.97,0.47c0.47,3.8,0.87,8.04,1.06,12.42
		c3.3-0.56,6.27-2.21,7.25-3.13C309.15,318.22,309.37,317.71,309.37,317.17z"/>
	<g class="st8">
		<path class="st9" d="M92.69,156.96l-8.43,6.34c0,0-4.54,2.9-2.84,8.17c1.7,5.27,5.44,14.15,14.78,15.62h2.54
			c0,0,3.73,9.98,8.56,14.31c4.84,4.33,10.81,8.38,13.48,10.12c2.67,1.74,25.87,0.74,25.87,0.74s2.51-0.25,5.65-2.93
			c3.14-2.68,8.4-8.11,8.95-12.87s2.9-13.99,2.9-13.99l3.15-3c0,0,3.01-3.01,4.19-8c1.19-4.99,1.33-11-2.85-12.64
			s-4.19-1.63-4.19-1.63l-2.1-1.06c0,0,3.58-6.06,3.56-9.34c0,0-63.43,3.08-74.33,10.16"/>
		<g>
			<g>
				<path class="st10" d="M162.76,158.62c2.77,0.31,5.6,1.12,6.67,3.97c0.76,2.03,0.84,4.32,0.7,6.46c-0.15,2.2-0.62,4.52-1.75,6.44
					c-0.93,1.59-2.31,2.69-4.15,2.42c-0.89-0.13-1.77,0.22-2.04,1.16c-0.22,0.78,0.27,1.91,1.16,2.04c5.06,0.74,8.17-3.13,9.39-7.62
					c0.63-2.33,0.86-4.81,0.72-7.22c-0.15-2.34-0.58-4.88-1.97-6.84c-2.05-2.89-5.38-3.76-8.73-4.13c-0.9-0.1-1.65,0.83-1.66,1.66
					C161.09,157.94,161.87,158.52,162.76,158.62L162.76,158.62z"/>
			</g>
		</g>
		<g>
			<g>
				<path class="st10" d="M95.45,166.23c-3.28-2.1-6.3-5.31-10.57-4.41c-3.01,0.64-4.86,3.06-5.24,6.03
					c-0.75,5.94,2.6,12.28,7.02,16.02c3.7,3.13,8.23,5.14,13.09,5.45c2.13,0.13,2.12-3.18,0-3.31c-6.1-0.38-12.33-4.3-15.07-9.81
					c-1.31-2.63-3.67-9.26,0.18-10.92c3.27-1.41,6.43,2.23,8.91,3.81C95.58,170.24,97.25,167.37,95.45,166.23L95.45,166.23z"/>
			</g>
		</g>
		<path class="st11" d="M130.64,93.64c0,0-3.17-8.93-9.77-10.35c-6.6-1.42-11.4-1.58-15.46,1.45s-5.9,11.44-5.36,13.69
			c0.54,2.25,1.96,10.42,10.86,11.12c8.9,0.69,19.7-3.43,21.11-7.52s0.08-9.95,0.08-9.95L130.64,93.64z"/>
		<g>
			<g>
				<path class="st10" d="M132.24,93.2c-3.13-8.14-11.65-14.28-20.58-12.74c-8.22,1.42-13.82,10.13-13.08,18.19
					c0.39,4.24,2.51,8.27,6.16,10.59c2.2,1.39,4.89,1.91,7.46,2.07c5.66,0.35,11.89-1.1,16.69-4.16c2.49-1.59,4.73-3.75,5.73-6.59
					c1.04-2.97,0.25-6.12-1.36-8.72c-0.43-0.7-1.53-1.14-2.27-0.59c-2.44,1.81-4.18,4.15-5.15,7.04c-0.68,2.03,2.52,2.9,3.2,0.88
					c0.67-2.01,1.92-3.8,3.63-5.06c-0.76-0.2-1.51-0.4-2.27-0.59c2.39,3.83,1.42,7.34-2.09,10.03c-3.68,2.82-8.64,4.2-13.22,4.45
					c-5.06,0.28-9.98-0.84-12.27-5.91c-2.84-6.29,0.6-14.52,6.67-17.48c7.65-3.72,16.78,2.23,19.57,9.48
					C129.8,96.05,133.01,95.19,132.24,93.2L132.24,93.2z"/>
			</g>
		</g>
		<g>
			<g>
				<path class="st10" d="M106.08,83.25c-3.42,10.22,2.43,22.24,12.5,26.1c1.99,0.76,2.86-2.44,0.88-3.2
					c-3.64-1.4-6.69-4.53-8.64-7.83c-2.58-4.37-3.15-9.38-1.54-14.19C109.95,82.1,106.75,81.23,106.08,83.25L106.08,83.25z"/>
			</g>
		</g>
		<path class="st10" d="M158.26,108.53c0.02-0.02,0.04-0.04,0.04-0.06c-0.01-0.59-0.31-1.08-0.79-1.45
			c-0.51-0.52-1.22-0.84-2.01-0.83c-0.11,0-0.22,0.02-0.33,0.04c-0.19-0.01-0.39-0.03-0.59-0.02c-1.88,0.03-52.21,1.89-58.81,2.13
			c-0.9-4.59-5.37-8.04-12.39-7.93c-7.81,0.13-15.82,4.6-15.73,9.96c0.09,5.36,8.23,9.58,16.04,9.45c7.03-0.11,11.38-3.7,12.13-8.32
			c6.61,0.03,56.97,0.26,58.85,0.23c0.2,0,0.39-0.02,0.58-0.04c0.11,0.01,0.22,0.03,0.33,0.03c0.79-0.01,1.49-0.36,1.98-0.89
			c0.47-0.39,0.75-0.89,0.74-1.48c0-0.02-0.01-0.04-0.04-0.06c0.02-0.12,0.03-0.25,0.03-0.38
			C158.3,108.78,158.28,108.65,158.26,108.53z"/>
		<path class="st11" d="M93.88,164.22c0,0,0.79-4.58-0.17-6.53c0,0,18.8-5.34,21.83-4.32c0,0,4.66-0.03,5.72-0.44
			s-1.06,0.41-1.06,0.41l26.51-4.08l5.17-1.12l19.37-1.85c0,0-0.73-11.1-7.09-17.24c-6.37-6.14-16.41-13.99-25.34-14.81l-4.04-1.36
			c0,0,1.29-4.48-7.64-4.98s-17.76,1.24-24.52,4.97c-6.76,3.73-15.44,13.07-19,24.62c-3.56,11.55-0.08,25.58-0.08,25.58l9.47,3
			L93.88,164.22z"/>
		<g>
			<g>
				<path class="st10" d="M162.76,158.62c2.77,0.31,5.6,1.12,6.67,3.97c0.76,2.03,0.84,4.32,0.7,6.46c-0.15,2.2-0.62,4.52-1.75,6.44
					c-0.93,1.59-2.31,2.69-4.15,2.42c-0.89-0.13-1.77,0.22-2.04,1.16c-0.22,0.78,0.27,1.91,1.16,2.04c5.06,0.74,8.17-3.13,9.39-7.62
					c0.63-2.33,0.86-4.81,0.72-7.22c-0.15-2.34-0.58-4.88-1.97-6.84c-2.05-2.89-5.38-3.76-8.73-4.13c-0.9-0.1-1.65,0.83-1.66,1.66
					C161.09,157.94,161.87,158.52,162.76,158.62L162.76,158.62z"/>
			</g>
		</g>
		<g>
			<g>
				<path class="st10" d="M99.77,186c-6.1-0.38-12.33-4.3-15.07-9.81c-1.31-2.63-3.67-9.26,0.18-10.92
					c3.27-1.41,6.43,2.23,8.91,3.81c1.8,1.15,3.47-1.72,1.67-2.86c-3.28-2.1-6.3-5.31-10.57-4.41c-3.01,0.64-4.86,3.06-5.24,6.03
					c-0.75,5.94,2.6,12.28,7.02,16.02c3.7,3.13,8.23,5.14,13.09,5.45C101.9,189.45,101.89,186.13,99.77,186L99.77,186z"/>
			</g>
		</g>
		<g>
			<g>
				<path class="st10" d="M96.65,173.23c-2.21-1.54-4.88-3.07-7.65-2.11c-1.32,0.46-2.45,1.32-3,2.63c-0.59,1.41-0.24,2.9,0.7,4.06
					c0.46,0.56,1.07,0.97,1.76,1.21c0.85,0.3,1.7,0.14,2.5-0.22c0.79-0.35,1.04-1.57,0.59-2.27c-0.53-0.82-1.42-0.97-2.27-0.59
					c0.24-0.09,0.28-0.12,0.11-0.06c-0.18,0.04-0.13,0.03,0.15-0.01c-0.03,0-0.06,0-0.1,0c-0.18-0.01-0.13,0,0.16,0.03
					c-0.02-0.02-0.47-0.15-0.17-0.03c0.28,0.11-0.1-0.07-0.15-0.1c-0.27-0.16,0.23,0.25,0.02,0.01c-0.05-0.05-0.1-0.1-0.14-0.15
					c-0.11-0.13-0.09-0.1,0.07,0.09c0.01-0.01-0.16-0.25-0.17-0.27c-0.18-0.28,0.08,0.31,0,0.02c-0.03-0.1-0.05-0.32-0.1-0.4
					c0.03,0.25,0.04,0.32,0.03,0.19c0-0.05,0-0.1,0-0.15c-0.02-0.33-0.07,0.39,0.01-0.02c0.08-0.39-0.14,0.19,0.02-0.06
					c0.01-0.01,0.15-0.28,0.17-0.28c-0.15,0.19-0.17,0.22-0.06,0.08c0.05-0.05,0.1-0.11,0.15-0.16c0.03-0.02,0.05-0.05,0.08-0.07
					c0.14-0.11,0.11-0.1-0.08,0.05c0.01-0.06,0.27-0.18,0.32-0.21c0.08-0.04,0.26-0.18,0.35-0.18c-0.21,0.09-0.25,0.11-0.14,0.06
					c0.05-0.02,0.11-0.04,0.16-0.05c0.13-0.04,0.25-0.07,0.38-0.1c0.06-0.01,0.11-0.02,0.17-0.03c0.18-0.03,0.15-0.02-0.1,0.01
					c0.02-0.07,0.73-0.01,0.79,0c0.33,0.02-0.35-0.09,0.07,0.02c0.16,0.04,0.33,0.07,0.49,0.12c0.16,0.05,0.32,0.1,0.47,0.16
					c0.44,0.15-0.28-0.15,0.13,0.05c0.3,0.15,0.6,0.3,0.89,0.47c0.59,0.34,1.14,0.73,1.7,1.12c0.71,0.5,1.87,0.15,2.27-0.59
					C97.69,174.65,97.41,173.76,96.65,173.23L96.65,173.23z"/>
			</g>
		</g>
		<g>
			<g>
				<path class="st10" d="M92.38,163.42c1.44,10.64,2.62,22.01,8.02,31.51c5.01,8.82,13.54,15.44,23.07,18.74
					c9.76,3.38,21.71,3.04,30.23-3.32c7.87-5.86,10.75-15.8,10.91-25.25c0.11-6.6-1.72-13.03-1.67-19.61
					c0.03-4.21-0.06-10.59,3.8-13.34c1.72-1.23,0.07-4.1-1.67-2.86c-3.76,2.69-4.85,7.27-5.24,11.64c-0.49,5.52,0.3,10.84,1,16.3
					c1.15,8.91,0.58,19.2-5.12,26.59c-6.21,8.05-17.63,9.97-27.09,7.87c-9.35-2.07-18.11-7.76-23.6-15.64
					c-6.73-9.68-7.92-22.14-9.45-33.51c-0.12-0.89-1.26-1.36-2.04-1.16C92.58,161.63,92.26,162.53,92.38,163.42L92.38,163.42z"/>
			</g>
		</g>
		<g>
			<g>
				<path class="st10" d="M103.45,123.75c-4.68,4.28-8.47,9.41-10.48,15.47c-2,6.02-2.15,12.5-1.76,18.78c0.06,0.98,1.02,2,2.1,1.6
					c6.95-2.58,14.74-5.08,22.24-4.57c2.13,0.14,2.12-3.17,0-3.31c-3.93-0.27-7.92,0.39-11.74,1.26c-3.87,0.88-7.66,2.06-11.38,3.43
					c0.7,0.53,1.4,1.07,2.1,1.6c-0.36-5.9-0.28-11.92,1.55-17.59c1.81-5.65,5.39-10.35,9.73-14.31
					C107.37,124.65,105.02,122.32,103.45,123.75L103.45,123.75z"/>
			</g>
		</g>
		<g>
			<g>
				<path class="st10" d="M138.35,111.89c-5.31-5.3-13.26-6.24-20.42-5.74c-6.2,0.44-12.18,2.55-17.32,6.03
					c-10.3,6.99-17.12,18.65-19.4,30.78c-1.28,6.8-1.19,13.86,0.71,20.54c0.58,2.05,3.78,1.18,3.2-0.88
					c-3.11-10.93-1.08-23,4.28-32.9c5.37-9.92,14.44-18,25.8-19.94c3.41-0.58,7.05-0.6,10.48-0.17c3.84,0.49,7.56,1.84,10.34,4.61
					C137.52,115.74,139.86,113.4,138.35,111.89L138.35,111.89z"/>
			</g>
		</g>
		<g>
			<g>
				<path class="st10" d="M121.96,162.98c-1.94-2-5.05-2.85-7.72-1.98c-2.59,0.85-4.7,3.15-5.15,5.88
					c-0.14,0.85,0.22,1.83,1.16,2.04c0.8,0.18,1.89-0.24,2.04-1.16c0.04-0.24,0.09-0.48,0.16-0.71c0.03-0.12,0.07-0.23,0.11-0.35
					c0.05-0.13,0.13-0.29,0.03-0.08c0.11-0.22,0.22-0.43,0.35-0.64c0.08-0.12,0.16-0.24,0.24-0.36c-0.09,0.13-0.08,0.1,0.01-0.01
					c0.16-0.18,0.32-0.36,0.5-0.53c0.11-0.1,0.22-0.19,0.33-0.29c-0.12,0.11-0.11,0.08,0.01-0.01c0.2-0.14,0.41-0.27,0.62-0.38
					c0.03-0.02,0.47-0.22,0.13-0.08c0.11-0.05,0.23-0.09,0.34-0.12c0.24-0.08,0.48-0.12,0.72-0.18c0.24-0.07-0.37,0.02,0.08-0.01
					c0.12-0.01,0.25-0.02,0.37-0.02c0.25-0.01,0.5,0.02,0.74,0.03c0.26,0.01-0.37-0.08,0.08,0.01c0.12,0.03,0.24,0.05,0.36,0.08
					c0.24,0.06,0.47,0.15,0.71,0.22c0.17,0.05-0.18-0.1,0.08,0.04c0.11,0.06,0.22,0.11,0.33,0.17c0.11,0.06,0.22,0.12,0.32,0.19
					c0.03,0.02,0.36,0.25,0.2,0.13c-0.16-0.12,0.15,0.13,0.18,0.15c0.11,0.1,0.22,0.21,0.32,0.31c0.61,0.62,1.74,0.65,2.34,0
					C122.57,164.66,122.6,163.65,121.96,162.98L121.96,162.98z"/>
			</g>
		</g>
		<g>
			<g>
				<path class="st10" d="M153.86,156.15c-1.85-2.13-4.98-3.06-7.7-2.29c-2.61,0.74-4.74,2.98-5.33,5.63
					c-0.19,0.84,0.25,1.83,1.16,2.04c0.84,0.19,1.84-0.25,2.04-1.16c0.05-0.24,0.12-0.47,0.2-0.7c0.13-0.43-0.09,0.15,0.02-0.08
					c0.05-0.11,0.1-0.22,0.16-0.33c0.11-0.22,0.25-0.42,0.38-0.62c0.16-0.26-0.07,0.07,0.05-0.07c0.08-0.09,0.16-0.19,0.24-0.27
					c0.17-0.18,0.35-0.34,0.53-0.5c0.23-0.2-0.08,0.05,0.07-0.05c0.1-0.07,0.2-0.14,0.3-0.2c0.21-0.13,0.42-0.24,0.64-0.35
					c-0.21,0.1-0.05,0.02,0.08-0.03c0.11-0.04,0.23-0.08,0.35-0.11c0.1-0.03,0.19-0.05,0.29-0.07c0.04-0.01,0.52-0.08,0.16-0.04
					c0.25-0.03,0.51-0.04,0.76-0.03c0.1,0,0.2,0.01,0.3,0.01c0.48,0.02-0.3-0.07,0.17,0.02c0.23,0.04,0.45,0.09,0.67,0.16
					c0.12,0.04,0.24,0.08,0.36,0.12c0.45,0.15-0.15-0.08,0.1,0.04c0.23,0.11,0.45,0.23,0.67,0.36c0.11,0.07,0.21,0.14,0.32,0.21
					c-0.19-0.13,0,0,0.08,0.07c0.21,0.18,0.41,0.38,0.59,0.6c0.57,0.66,1.77,0.63,2.34,0C154.5,157.8,154.47,156.85,153.86,156.15
					L153.86,156.15z"/>
			</g>
		</g>
		<g>
			<g>
				<path class="st10" d="M131.04,168.79c-0.8,3.71,1.7,7.01,4.85,8.69c0.76,0.41,1.55,0.62,2.2,1.02
					c-0.14-0.09,0.21,0.05,0.02,0.03c-0.07-0.19-0.08-0.2-0.03-0.03c-0.01-0.07-0.02-0.13-0.03-0.2c0.02-0.49,0.06-0.04-0.03,0.03
					c0.09-0.2,0.09-0.22,0-0.05c-0.03,0.06-0.07,0.12-0.11,0.17c-0.07,0.09-0.05,0.08,0.04-0.05c-0.05,0.06-0.1,0.11-0.15,0.17
					c-0.12,0.13-0.25,0.27-0.37,0.4c-0.23,0.23-0.46,0.46-0.69,0.69c-0.52,0.54-1.05,1.13-1.35,1.83c-0.35,0.82-0.24,1.78,0.59,2.27
					c0.7,0.41,1.91,0.23,2.27-0.59c0.07-0.16,0.15-0.3,0.23-0.46c0.04-0.06,0.08-0.13,0.13-0.19c-0.1,0.13-0.09,0.12,0.03-0.03
					c0.22-0.24,0.44-0.48,0.67-0.71c0.53-0.54,1.08-1.07,1.49-1.71c1.08-1.65,0.42-3.66-1.29-4.56c-0.78-0.41-1.48-0.6-2.22-1.03
					c-0.73-0.41-1.27-0.83-1.84-1.43c-0.27-0.28-0.38-0.41-0.57-0.7c-0.12-0.18-0.23-0.36-0.33-0.56c-0.04-0.08-0.08-0.16-0.12-0.24
					c0.05,0.12,0.03,0.09-0.04-0.1c-0.06-0.17-0.11-0.34-0.15-0.51c0-0.01-0.08-0.52-0.06-0.26c-0.02-0.18-0.02-0.36-0.02-0.53
					c0-0.12,0.01-0.24,0.03-0.36c-0.01,0.14,0,0.11,0.04-0.1c0.19-0.87-0.26-1.79-1.16-2.04
					C132.25,167.41,131.23,167.91,131.04,168.79L131.04,168.79z"/>
			</g>
		</g>
		<g>
			<g>
				<path class="st10" d="M124.58,196.08c3.4,3.15,7.32,5.5,11.98,6.09c3.94,0.49,9.41,0.12,11.52-3.83
					c1.01-1.88-1.85-3.56-2.86-1.67c-1.49,2.78-6.23,2.59-8.87,2.15c-3.67-0.62-6.75-2.59-9.43-5.08
					C125.36,192.29,123.01,194.63,124.58,196.08L124.58,196.08z"/>
			</g>
		</g>
		<g>
			<g>
				<path class="st10" d="M102.26,131.6c-2.66,3.22-2.95,7.77-2.56,11.77c0.38,3.9,1.31,8.26,3.64,11.5
					c0.52,0.72,1.45,1.08,2.27,0.59c0.71-0.42,1.12-1.53,0.59-2.27c-1.94-2.7-2.81-6.3-3.16-9.55c-0.33-3.03-0.5-7.21,1.56-9.7
					c0.58-0.69,0.67-1.66,0-2.34C104.02,131.01,102.83,130.91,102.26,131.6L102.26,131.6z"/>
			</g>
		</g>
		<g>
			<g>
				<g>
					<path class="st10" d="M155.84,166.05c-0.49-2.93-2.71-5.43-5.72-5.83c-2.91-0.39-5.75,1.19-7.04,3.82
						c-0.75,1.52-1,3.17-0.66,4.83c0.17,0.85,1.23,1.42,2.04,1.16c0.9-0.29,1.34-1.13,1.16-2.04c-0.02-0.08-0.03-0.16-0.05-0.25
						c0.03,0.23,0.03,0.25,0.01,0.06c-0.01-0.17-0.02-0.34-0.02-0.51c0-0.13,0.01-0.25,0.02-0.38c0.02-0.19,0.02-0.17-0.01,0.06
						c0.01-0.08,0.03-0.17,0.05-0.25c0.06-0.3,0.16-0.58,0.25-0.87c0.07-0.17,0.06-0.16-0.02,0.03c0.04-0.08,0.07-0.16,0.11-0.24
						c0.08-0.16,0.16-0.31,0.26-0.46c0.07-0.11,0.15-0.22,0.22-0.33c0.11-0.15,0.1-0.14-0.02,0.02c0.06-0.07,0.11-0.13,0.17-0.2
						c0.21-0.23,0.43-0.44,0.67-0.63c-0.32,0.26,0.14-0.08,0.2-0.12c0.15-0.09,0.31-0.17,0.47-0.25c0.38-0.19-0.31,0.08,0.1-0.03
						c0.17-0.05,0.34-0.11,0.52-0.15c0.09-0.02,0.18-0.04,0.27-0.05c-0.22,0.03-0.24,0.03-0.05,0.01c0.13,0,0.25-0.02,0.38-0.02
						c0.17,0,0.33,0.01,0.5,0.02c0.19,0.02,0.16,0.02-0.07-0.01c0.08,0.01,0.16,0.03,0.24,0.05c0.12,0.03,0.24,0.06,0.36,0.09
						c0.09,0.03,0.58,0.24,0.18,0.05c0.27,0.13,0.51,0.27,0.76,0.43c0.15,0.11,0.14,0.1-0.03-0.03c0.07,0.05,0.13,0.11,0.19,0.17
						c0.13,0.11,0.25,0.24,0.37,0.36c0.06,0.06,0.3,0.38,0.08,0.07c0.11,0.15,0.21,0.3,0.3,0.45c0.08,0.14,0.16,0.28,0.23,0.43
						c0.03,0.06,0.06,0.13,0.09,0.19c-0.07-0.17-0.08-0.17-0.01,0.01c0.12,0.4,0.23,0.78,0.3,1.19c0.14,0.86,1.25,1.41,2.04,1.16
						C155.61,167.79,155.99,166.97,155.84,166.05L155.84,166.05z"/>
				</g>
			</g>
			<path class="st12" d="M153.96,165.52c0,0,3.53-0.52,4.37-1.3"/>
			<path class="st12" d="M152.93,163.53c0,0,2.9-2.31,3.34-3.18"/>
		</g>
		<g>
			<g>
				<g>
					<path class="st10" d="M115.08,175.2c-0.03-0.2-0.04-0.21-0.01-0.04c-0.01-0.1-0.02-0.21-0.03-0.31c-0.01-0.2-0.02-0.4-0.01-0.6
						c0-0.15,0.02-0.29,0.03-0.44c-0.03,0.41,0.04-0.17,0.06-0.25c0.04-0.18,0.09-0.35,0.15-0.52c0.03-0.09,0.21-0.42,0.03-0.1
						c0.17-0.3,0.32-0.61,0.53-0.89c-0.24,0.32,0.02-0.01,0.07-0.05c0.11-0.12,0.24-0.23,0.36-0.35c0.14-0.12,0.13-0.11-0.04,0.02
						c0.07-0.05,0.14-0.1,0.21-0.14c0.1-0.07,0.21-0.14,0.32-0.2c0.08-0.04,0.58-0.27,0.17-0.11c0.16-0.06,0.32-0.12,0.48-0.17
						c0.12-0.04,0.25-0.07,0.37-0.09c0.09-0.02,0.18-0.04,0.27-0.05c-0.22,0.03-0.23,0.03-0.04,0.01c0.31-0.02,0.61-0.04,0.91-0.02
						c0.08,0.01,0.17,0.01,0.25,0.02c-0.23-0.03-0.25-0.03-0.07,0c0.16,0.04,0.32,0.07,0.48,0.11c0.12,0.03,0.23,0.08,0.35,0.11
						c0.17,0.07,0.15,0.06-0.06-0.03c0.07,0.03,0.15,0.07,0.22,0.11c0.15,0.07,0.29,0.16,0.42,0.25c0.08,0.05,0.37,0.29,0.06,0.03
						c0.26,0.22,0.49,0.45,0.71,0.7c-0.19-0.21-0.04-0.06,0.05,0.08c0.1,0.15,0.19,0.3,0.28,0.45c0.02,0.04,0.24,0.48,0.15,0.29
						c-0.09-0.19,0.1,0.28,0.12,0.33c0.13,0.38,0.21,0.77,0.27,1.16c0.14,0.86,1.25,1.41,2.04,1.16c0.93-0.3,1.31-1.12,1.16-2.04
						c-0.45-2.8-2.46-5.34-5.33-5.9c-2.86-0.56-5.89,0.55-7.39,3.12c-0.93,1.6-1.07,3.43-0.76,5.23c0.15,0.86,1.24,1.41,2.04,1.16
						C114.85,176.94,115.24,176.12,115.08,175.2L115.08,175.2z"/>
				</g>
			</g>
			<path class="st12" d="M113.43,174.63c0,0-3.51,0.68-4.56,0.23"/>
			<path class="st12" d="M113.74,172.42c0,0-3.5-1.21-4.2-1.89"/>
		</g>
		<g>
			<g>
				<path class="st10" d="M96.65,173.23c-2.21-1.54-4.88-3.07-7.65-2.11c-1.32,0.46-2.45,1.32-3,2.63c-0.59,1.41-0.24,2.9,0.7,4.06
					c0.46,0.56,1.07,0.97,1.76,1.21c0.85,0.3,1.7,0.14,2.5-0.22c0.79-0.35,1.04-1.57,0.59-2.27c-0.53-0.82-1.42-0.97-2.27-0.59
					c0.24-0.09,0.28-0.12,0.11-0.06c-0.18,0.04-0.13,0.03,0.15-0.01c-0.03,0-0.06,0-0.1,0c-0.18-0.01-0.13,0,0.16,0.03
					c-0.02-0.02-0.47-0.15-0.17-0.03c0.28,0.11-0.1-0.07-0.15-0.1c-0.27-0.16,0.23,0.25,0.02,0.01c-0.05-0.05-0.1-0.1-0.14-0.15
					c-0.11-0.13-0.09-0.1,0.07,0.09c0.01-0.01-0.16-0.25-0.17-0.27c-0.18-0.28,0.08,0.31,0,0.02c-0.03-0.1-0.05-0.32-0.1-0.4
					c0.03,0.25,0.04,0.32,0.03,0.19c0-0.05,0-0.1,0-0.15c-0.02-0.33-0.07,0.39,0.01-0.02c0.08-0.39-0.14,0.19,0.02-0.06
					c0.01-0.01,0.15-0.28,0.17-0.28c-0.15,0.19-0.17,0.22-0.06,0.08c0.05-0.05,0.1-0.11,0.15-0.16c0.03-0.02,0.05-0.05,0.08-0.07
					c0.14-0.11,0.11-0.1-0.08,0.05c0.01-0.06,0.27-0.18,0.32-0.21c0.08-0.04,0.26-0.18,0.35-0.18c-0.21,0.09-0.25,0.11-0.14,0.06
					c0.05-0.02,0.11-0.04,0.16-0.05c0.13-0.04,0.25-0.07,0.38-0.1c0.06-0.01,0.11-0.02,0.17-0.03c0.18-0.03,0.15-0.02-0.1,0.01
					c0.02-0.07,0.73-0.01,0.79,0c0.33,0.02-0.35-0.09,0.07,0.02c0.16,0.04,0.33,0.07,0.49,0.12c0.16,0.05,0.32,0.1,0.47,0.16
					c0.44,0.15-0.28-0.15,0.13,0.05c0.3,0.15,0.6,0.3,0.89,0.47c0.59,0.34,1.14,0.73,1.7,1.12c0.71,0.5,1.87,0.15,2.27-0.59
					C97.69,174.65,97.41,173.76,96.65,173.23L96.65,173.23z"/>
			</g>
		</g>
		<g>
			<g>
				<path class="st10" d="M92.38,163.42c1.44,10.64,2.62,22.01,8.02,31.51c5.01,8.82,13.54,15.44,23.07,18.74
					c9.76,3.38,21.71,3.04,30.23-3.32c7.87-5.86,10.75-15.8,10.91-25.25c0.11-6.6-1.72-13.03-1.67-19.61
					c0.03-4.21-0.06-10.59,3.8-13.34c1.72-1.23,0.07-4.1-1.67-2.86c-3.76,2.69-4.85,7.27-5.24,11.64c-0.49,5.52,0.3,10.84,1,16.3
					c1.15,8.91,0.58,19.2-5.12,26.59c-6.21,8.05-17.63,9.97-27.09,7.87c-9.35-2.07-18.11-7.76-23.6-15.64
					c-6.73-9.68-7.92-22.14-9.45-33.51c-0.12-0.89-1.26-1.36-2.04-1.16C92.58,161.63,92.26,162.53,92.38,163.42L92.38,163.42z"/>
			</g>
		</g>
		<circle class="st11" cx="158.97" cy="182.47" r="9.67"/>
		<g>
			<g>
				<g>
					<path class="st10" d="M152.61,182.44c0.08,0.14,0.15,0.27,0.22,0.41c0.02,0.04,0.12,0.24,0.03,0.07
						c0.04,0.07,0.06,0.16,0.09,0.23c0.1,0.28,0.17,0.56,0.22,0.85c0,0.02,0.04,0.26,0.02,0.14c-0.01-0.12,0.01,0.12,0.01,0.14
						c0.01,0.15,0.02,0.29,0.02,0.44c0,0.15,0,0.29-0.02,0.44c-0.01,0.08-0.01,0.17-0.03,0.25c0.04-0.22-0.01,0.06-0.02,0.1
						c-0.07,0.4,0.11,0.87,0.55,0.97c0.39,0.09,0.89-0.12,0.97-0.55c0.27-1.47,0.03-2.99-0.72-4.29c-0.21-0.36-0.72-0.51-1.08-0.28
						C152.53,181.59,152.39,182.06,152.61,182.44L152.61,182.44z"/>
				</g>
			</g>
			<g>
				<g>
					<path class="st10" d="M156.83,181.3c0.1,0.03,0.2,0.07,0.31,0.11c0.02,0.01,0.2,0.09,0.1,0.04c-0.11-0.05,0.05,0.02,0.07,0.03
						c0.2,0.09,0.39,0.19,0.57,0.3c0.19,0.11,0.37,0.23,0.54,0.36c0.02,0.01,0.15,0.11,0.06,0.04c-0.09-0.07,0.06,0.05,0.08,0.07
						c0.08,0.07,0.17,0.14,0.25,0.21c0.16,0.14,0.31,0.3,0.46,0.46c0.07,0.07,0.13,0.15,0.19,0.22c0.02,0.03,0.1,0.11,0.11,0.14
						c-0.02-0.02-0.03-0.04-0.05-0.07c0.02,0.03,0.05,0.06,0.07,0.09c0.26,0.35,0.47,0.72,0.65,1.12c0.17,0.38,0.75,0.5,1.08,0.28
						c0.39-0.25,0.47-0.68,0.28-1.08c-0.84-1.82-2.47-3.21-4.35-3.85c-0.39-0.13-0.88,0.15-0.97,0.55
						C156.18,180.77,156.41,181.16,156.83,181.3L156.83,181.3z"/>
				</g>
			</g>
		</g>
		<circle class="st11" cx="107.9" cy="189.14" r="9.67"/>
		<g>
			<g>
				<g>
					<path class="st10" d="M113.32,187.36c0.08,0,0.17,0.01,0.25,0.02c-0.07-0.01-0.14-0.02-0.21-0.03
						c0.23,0.03,0.44,0.09,0.65,0.18c-0.06-0.03-0.13-0.05-0.19-0.08c0.22,0.1,0.43,0.22,0.62,0.37c-0.05-0.04-0.11-0.08-0.16-0.12
						c0.19,0.15,0.36,0.32,0.51,0.51c-0.04-0.05-0.08-0.11-0.12-0.16c0.14,0.18,0.25,0.38,0.34,0.59c-0.03-0.06-0.05-0.13-0.08-0.19
						c0.08,0.2,0.14,0.41,0.17,0.62c-0.01-0.07-0.02-0.14-0.03-0.21c0,0.01,0,0.02,0,0.04c0.03,0.22,0.07,0.4,0.23,0.56
						c0.14,0.14,0.36,0.24,0.56,0.23c0.2-0.01,0.42-0.08,0.56-0.23c0.13-0.14,0.26-0.36,0.23-0.56c-0.06-0.46-0.17-0.87-0.39-1.28
						c-0.18-0.33-0.42-0.64-0.7-0.89c-0.62-0.57-1.4-0.91-2.24-0.94c-0.41-0.02-0.81,0.37-0.79,0.79
						C112.56,187.01,112.88,187.34,113.32,187.36L113.32,187.36z"/>
				</g>
			</g>
			<g>
				<g>
					<path class="st10" d="M107.79,187.49c0.52,1.06,1.03,2.11,1.55,3.17c0.18,0.37,0.74,0.5,1.08,0.28
						c0.38-0.25,0.48-0.68,0.28-1.08c-0.52-1.06-1.03-2.11-1.55-3.17c-0.18-0.37-0.74-0.5-1.08-0.28
						C107.69,186.66,107.59,187.09,107.79,187.49L107.79,187.49z"/>
				</g>
			</g>
			<g>
				<g>
					<path class="st10" d="M103.75,187.31c-0.12,0.21-0.26,0.42-0.41,0.61c0.04-0.05,0.08-0.11,0.12-0.16
						c-0.26,0.33-0.55,0.62-0.88,0.88c0.05-0.04,0.11-0.08,0.16-0.12c-0.11,0.08-0.21,0.16-0.32,0.23
						c-0.17,0.11-0.31,0.27-0.36,0.47c-0.05,0.19-0.03,0.44,0.08,0.61c0.11,0.17,0.27,0.32,0.47,0.36c0.2,0.05,0.43,0.04,0.61-0.08
						c0.78-0.51,1.44-1.19,1.9-2.01c0.1-0.18,0.13-0.41,0.08-0.61c-0.05-0.18-0.19-0.38-0.36-0.47
						C104.45,186.83,103.96,186.92,103.75,187.31L103.75,187.31z"/>
				</g>
			</g>
		</g>
		<path class="st13" d="M168.3,146.67c0,0-3.28-17.88-12.15-24.94c0,0,14.02,12.03,15.1,24.57L168.3,146.67z"/>
		<g>
			<g>
				<path class="st10" d="M117.43,124.39c-2.9,4.09-3.48,9.69-3.36,14.56c0.12,4.95,0.97,10.31,3.5,14.64
					c0.28,0.48,0.86,0.86,1.43,0.82c9.43-0.64,18.91-1.51,28.15-3.56c1.12-0.25,1.43-1.52,0.99-2.43
					c-1.76-3.67-2.94-7.59-3.67-11.59c-0.36-2-0.6-4.01-0.74-6.04c-0.07-1.02-0.12-2.04-0.15-3.07c-0.01-0.44-0.02-0.88-0.03-1.32
					c0-0.29,0-0.59-0.01-0.88c0.07-0.56,0-0.59-0.21-0.07c-0.48,0.27-0.95,0.55-1.43,0.82c-0.57-0.01-0.74-0.31-0.24,0.1
					c0.18,0.15,0.38,0.28,0.57,0.42c0.53,0.41,1.05,0.84,1.54,1.29c1.34,1.23,2.03,3.24,2.54,4.93c1.45,4.8,1.4,9.86,1.04,14.82
					c-0.06,0.84,0.81,1.72,1.66,1.66c7.55-0.6,15.17-0.36,22.66-1.61c0.66-0.11,1.27-0.93,1.22-1.6
					c-1.34-15.47-13.46-27.08-27.67-31.84c-3.88-1.3-7.94-2.06-12.02-2.28c-2.13-0.11-2.13,3.2,0,3.31
					c13.17,0.69,26.8,7.95,33.12,19.81c1.81,3.4,2.93,7.16,3.26,11c0.41-0.53,0.81-1.07,1.22-1.6c-7.19,1.19-14.54,0.91-21.78,1.49
					c0.55,0.55,1.1,1.1,1.66,1.66c0.31-4.24,0.35-8.49-0.43-12.69c-0.6-3.25-1.7-7.26-4.27-9.54c-1.13-1-5.08-4.65-5.71-1.19
					c-0.18,0.97-0.03,2.11-0.01,3.09c0.03,1.1,0.08,2.19,0.15,3.29c0.14,2.03,0.38,4.05,0.71,6.06c0.76,4.59,2.14,9.03,4.15,13.24
					c0.33-0.81,0.66-1.62,0.99-2.43c-8.96,1.99-18.13,2.82-27.27,3.44c0.48,0.27,0.95,0.55,1.43,0.82
					c-2.24-3.83-2.94-8.6-3.05-12.97c-0.11-4.34,0.32-9.24,2.91-12.89C121.53,124.32,118.66,122.67,117.43,124.39L117.43,124.39z"/>
			</g>
		</g>
	</g>
</g>
</svg>
