<?xml version="1.0" encoding="utf-8"?>
<!-- Generator: Adobe Illustrator 23.0.6, SVG Export Plug-In . SVG Version: 6.00 Build 0)  -->
<svg version="1.1" id="Layer_1" xmlns="http://www.w3.org/2000/svg" xmlns:xlink="http://www.w3.org/1999/xlink" x="0px" y="0px"
	 viewBox="0 0 243.4 333.2" style="enable-background:new 0 0 243.4 333.2;" xml:space="preserve">
<style type="text/css">
	.st0{clip-path:url(#SVGID_2_);}
	.st1{fill:#F2C0C3;}
	.st2{fill:#049260;}
	.st3{fill:#FFFFFF;}
	.st4{fill:#83C9BF;}
	.st5{fill:none;stroke:#049260;stroke-width:4.252;stroke-linecap:round;stroke-linejoin:round;stroke-miterlimit:10;}
	.st6{fill:none;stroke:#049260;stroke-width:2.8346;stroke-linecap:round;stroke-linejoin:round;stroke-miterlimit:10;}
	.st7{fill:#E93743;}
	.st8{fill:none;}
</style>
<g>
	<g>
		<defs>
			<rect id="SVGID_1_" x="0.2" y="0.2" width="243.4" height="333.2"/>
		</defs>
		<clipPath id="SVGID_2_">
			<use xlink:href="#SVGID_1_"  style="overflow:visible;"/>
		</clipPath>
		<g class="st0">
			<g>
				<path class="st1" d="M145.3,24.9c0,0,3.4-14.5,13.4-17.8s17.5-4.5,24.3-0.4c6.8,4,11.2,16.8,10.8,20.4
					c-0.4,3.6-1.2,16.6-15,19.2s-31.3-1.9-34.2-8s-1.9-15.5-1.9-15.5L145.3,24.9z"/>
				<g>
					<g>
						<path class="st2" d="M147.9,25.7c2.8-11,13.3-20.6,25.1-19.7c11.3,0.9,19.5,12.7,18.8,23.5c-0.2,3.1-1.3,6.2-3.2,8.7
							c-0.8,1-1.6,2-2.6,2.8c-0.1,0.1-0.2,0.2-0.3,0.2c0,0,0.3-0.2,0.1-0.1c-0.1,0.1-0.3,0.2-0.4,0.3c-0.3,0.2-0.6,0.4-1,0.6
							c-0.3,0.2-0.7,0.4-1.1,0.6c-0.2,0.1-0.3,0.2-0.5,0.2c-0.1,0-0.6,0.3-0.3,0.1c-0.8,0.3-1.6,0.6-2.4,0.9
							c-0.8,0.3-1.7,0.5-2.5,0.6c-1,0.2-1.8,0.3-2.4,0.4c-1.9,0.2-3.9,0.3-5.8,0.3c-2,0-4.1-0.2-5.8-0.5c-1.9-0.3-3.9-0.7-5.8-1.3
							c-2-0.6-3.4-1.1-5.1-2c-0.8-0.4-1.5-0.8-2.3-1.3c-0.4-0.2-0.7-0.5-1.1-0.7c-0.5-0.3-0.2-0.2-0.7-0.6c-0.6-0.5-1.2-1.1-1.8-1.7
							c-0.1-0.2-0.7-0.9-0.5-0.6c-0.3-0.3-0.5-0.7-0.7-1c-0.2-0.3-0.4-0.6-0.5-0.9c-0.1-0.2-0.1-0.3-0.2-0.5c0.2,0.4,0-0.1-0.1-0.2
							c-0.1-0.4-0.3-0.7-0.3-1.1c0-0.2-0.1-0.3-0.1-0.5c0-0.1-0.1-0.7-0.1-0.4c0,0.3,0-0.3,0-0.4c0-0.2,0-0.4,0-0.6
							c0-0.5,0-0.9,0-1.3c0-0.1,0.1-0.6,0-0.4c0,0.2,0.1-0.3,0.1-0.4c0.1-0.5,0.2-0.9,0.3-1.3c0.3-1,0.6-1.6,1-2.5
							c-1,0.3-2,0.5-3,0.8c3.2,1.8,5.6,4.5,7.1,7.9c0.5,1.1,2,1.3,3,0.8c1.1-0.6,1.3-1.9,0.8-3c-1.8-4-4.9-7.3-8.7-9.4
							c-0.9-0.5-2.4-0.3-3,0.8c-1.8,3.8-2.7,8.1-1.3,12.1c1.3,3.7,4,6.6,7.3,8.8c7.2,4.8,16.7,6.4,25.2,5.9c4.2-0.3,8.4-1,12.2-2.9
							c5.1-2.4,8.7-7.2,10.2-12.6c3.6-12.9-4.9-27.8-17.7-31.5c-13.2-3.9-27.1,5.3-32.3,17.3c-0.7,1.5-1.2,3.1-1.7,4.8
							C143.1,27.2,147.2,28.4,147.9,25.7L147.9,25.7z"/>
					</g>
				</g>
				<g>
					<g>
						<path class="st2" d="M178,6.7c3.4,7.2,3.2,15.4-0.1,22.5c-2.6,5.7-6.9,11.1-12.6,14c-2.5,1.3-0.3,5,2.2,3.7
							c4.9-2.5,9-6.8,11.9-11.5c3.5-5.5,5.6-12.2,5.4-18.8c-0.1-4.3-1.3-8.3-3.1-12.2c-0.5-1.1-2-1.3-3-0.8
							C177.7,4.4,177.5,5.6,178,6.7L178,6.7z"/>
					</g>
				</g>
				<path class="st2" d="M111,51.5C111,51.5,110.9,51.4,111,51.5c-0.1-1,0.2-1.7,0.9-2.3c0.7-0.8,1.7-1.4,2.8-1.5c0.2,0,0.3,0,0.5,0
					c0.3,0,0.6-0.1,0.9-0.1c2.8-0.3,76.5-5.8,86.2-6.5c0.6-6.8,6.5-12.6,16.8-13.6c11.4-1.1,23.9,4.1,24.6,12s-10.4,15.3-21.9,16.4
					c-10.3,1-17.2-3.5-19.1-10.2c-9.6,1.1-83.1,9.7-85.9,10c-0.3,0-0.6,0-0.9,0c-0.2,0-0.3,0.1-0.5,0.1c-1.2,0.1-2.2-0.3-3-1
					c-0.8-0.5-1.2-1.2-1.3-2c0,0,0-0.1,0.1-0.1c0-0.2-0.1-0.4-0.1-0.5C111,51.9,111,51.7,111,51.5z"/>
			</g>
			<path class="st3" d="M107.2,107.4c0,0,0.8,11.2,0,10.3l0.1,3.3c0,0-10.8,6.7-10.8,12.2c0,5.5,2.5,17.9,10.7,22.5
				c0,0-0.4,10.5,5,20.1s15.7,19.9,21.3,22.7c0,0,0.2,10.8,9.1,14.5s22.2,5.4,31.2-12.3c0,0,28.1-25,29.2-53.2s-2.1-24.5-2.1-24.5
				l-6.5-21.1L107.2,107.4z"/>
			<circle class="st1" cx="192.2" cy="161.4" r="14"/>
			<path class="st1" d="M221.8,104.9c0,0,4.3-23-5-31.3c-9.3-8.3-14.7-23.5-33.2-26.7s-25.5-4.7-36.1,3.4s-5.4,7.4-14.1,9.6
				c-8.7,2.2-33.8,18.9-36.9,47.4c0,0,34.7,2.8,39.2,2.8c0,0,29-0.7,36-1.4l17.2,0.1L221.8,104.9z"/>
			<path class="st3" d="M199.5,120.9c0,0-23.8-20.8-10.7-37.2c0,0,5.1-4.9,10.7-3.8c5.6,1,4.1,13.1,9,15.4
				c4.9,2.3,8.3,11.6,8.3,11.6L199.5,120.9z"/>
			<polygon class="st4" points="128.1,212 135.7,199.1 119.9,194.3 			"/>
			<path class="st4" d="M138,333.4h72.7c0,0-18.1-86.3-17.4-109.9c0,0,34.4-33,40.4-64.7s-2.9-47-14.3-53.9l-19.8,16
				c0,0,9.5,28.6-5.5,51.7s-20.3,27.9-20.3,27.9s-0.4,12.5-2.4,17c0,0-7.6,2.1-16.7-1.7l-20.3,3.3l-0.1,13.6l-9.2,62.6L138,333.4z"
				/>
			<path class="st3" d="M125.1,293.8c0,0,16-21.8,12.9-42.4s-6.3-33.4-18.1-36.9l-5.7-1.9c0,0-7.2-22.9,1-26.3
				c0,0-2.5-11.4-17.2-10.7s-24.5,2.8-29.2,6.9s-11.8,11.4-14.3,21.3c-2.4,9.9-3.2,17.8-10.6,20.9S19,227,19,227l-9,2.9
				c0,0-3.1,6.4-2.3,12S13,276,48.2,279.3l20.6,1.6c0,0-13.6,40.4-13.2,52.5H138L125.1,293.8z"/>
			<path class="st5" d="M210.6,333.4c0,0-15.3-63.6-17.4-109.9c0,0,37.6-39.6,40.4-64.7s1.4-41-11.8-53.9l-22.3,16
				c0,0,15.6,44.9-25.7,79.7c0,0-6.3,15.3-19.1,15.3c-12.9,0-21.6-9-20.2-15.3c0,0-8-3.1-10.8-5.6"/>
			<path class="st2" d="M173,202.3c4.3-7.7,3.9,20.2,3.9,20.2c-10.8,0.7-19.8-6.8-19.8-6.8S170.7,206.4,173,202.3z"/>
			<path class="st2" d="M134.5,200.6c-10.2,6.7-4.5,24-4.5,24c9.7,0.7,22.6-8.8,22.6-8.8C133.4,215.3,134.5,200.6,134.5,200.6z"/>
			<path class="st5" d="M101.4,113.6c0,0,7.3,2.1,7.7,9.2c0.3,7.1,0,34.6,0,41.6c0,21.1,23.8,38.8,43.5,39.3
				c13.9,0.4,25-6.1,28.1-9.5"/>
			<path class="st5" d="M141.1,183.2c0,0,8.3,5.2,18.4,2.1s11.8-9.7,11.8-9.7"/>
			<path class="st5" d="M154,138.7c0,3.6,0.6,7.4-1.6,10.5c-1.7,2.4-7.6,6.1-3.6,9.5c3.5,2.9,5.4,3.3,5.4,3.3"/>
			<path class="st5" d="M177.1,125.1c0,0,11.3-3.5,13,8"/>
			<path class="st5" d="M121.3,133.1c0,0,2.4-10.1,12.2-10.3"/>
			<path class="st5" d="M109.1,156.8c0,0-13.3-6.6-12.6-20.2c0.7-13.6,11.6-17.4,11.6-17.4"/>
			<path class="st5" d="M171.4,70.1c6.3,13.2,0,40,0,40h-39.3c-1.7-8.7,3.1-37.6,3.1-37.6c-11.1,4.2-11.5,34.8-11.5,34.8H96.6
				c2.1-37.9,44.6-50.4,44.6-50.4s9-15.7,33-11.8s51.5,23.7,47.7,59.8"/>
			<path class="st5" d="M174.1,110.1c0,0,11.1,1,14.6,0"/>
			<path class="st5" d="M188.8,67.4c0,0,8.4,5.6,10.8,12.5"/>
			<path class="st5" d="M199.5,120.9c0,0-10.1-6.3-12.2-19.5s0.8-19.7,6.1-21.6c5.3-1.8,9.9,2.8,10.6,6.3s6.8,15.1,15.2,20.6"/>
			<path class="st5" d="M138,333.4c0,0-8-27.5-12.9-39.6"/>
			<path class="st5" d="M55.5,333.4c0,0,8.3-47.3,13.2-52.5"/>
			<path class="st5" d="M114.2,263.5c0,0-9.6,14.6-30.5,16s-41.7,1-53.6-4.9S2.7,251.4,9.3,230.5l5.6-4.2c0,0,20.2,3.8,26.8,0
				c10.4-6.1,12.8-18.7,16.3-29.3c7.4-22.4,42.3-29.9,57.3-10.8"/>
			<path class="st2" d="M114.2,212.6c0,0-5.4-25,1-26.3c6.4-1.4,7.5,7.8,9.9,13.2s9,19.6,12.9,26.9s3.9,17,16.2,19.8
				c12.3,2.8,21.4,1.7,22.9,9.4c1.5,7.6-8.8,17.4-20,18.1s-21.6-3.5-21.6-3.5L114.2,212.6z"/>
			<path class="st2" d="M66.5,254.3c-0.8,0-1.1,1.1-0.4,1.5c9.9,4.8,22.4,11.5,33.8,8.5c7.8-2.1,16-13.5,13.2-21.7
				c-1.6-4.8-7.4-6.9-12.1-6.2c-5.8,0.8-9.1,6-13.3,9.4C81,251.2,74.7,254.5,66.5,254.3z"/>
			<path class="st3" d="M81.3,256.7c-0.7,0.3-0.7,1.2,0,1.4c1.6,0.7,3.4,1.7,4.2,1.9c7.8,2,15.3-0.8,19.5-7.8
				c4.8-8-0.9-13.9-8.4-7.2C90.8,250.2,86.6,254.7,81.3,256.7z"/>
			<g>
				<path class="st6" d="M177.1,163.4c0,0,4.3-5.2,4.3-6.6"/>
				<path class="st6" d="M185.3,166.1c0,0,4.2-4.9,3.5-7.5"/>
				<path class="st6" d="M194.1,163.4c0,0,0.9-2.4,0-4.7"/>
			</g>
			<path class="st5" d="M79.9,220l0.3-4.1c0.2-3.1,3.1-5.5,6.6-5.4l0,0c3.5,0.2,6.2,2.9,6,6l-0.3,4.1"/>
			
				<ellipse transform="matrix(7.560266e-02 -0.9971 0.9971 7.560266e-02 -13.3499 263.9633)" class="st2" cx="135.7" cy="139.2" rx="8" ry="4.8"/>
			
				<ellipse transform="matrix(7.560288e-02 -0.9971 0.9971 7.560288e-02 22.8066 307.2452)" class="st2" cx="177.1" cy="141.3" rx="8" ry="4.8"/>
			<circle class="st5" cx="154.9" cy="226.8" r="5.5"/>
			<g>
				<g>
					<path class="st2" d="M18.2,221.4c-1.7-1.8-3.8-2.9-6.3-2.9c-1.8,0-3.6,0.6-5.2,1.4c-1.5,0.8-3,2.1-3.8,3.6
						c-0.6,1.1-0.9,2.2-1,3.5c-0.1,1.3,0.3,2.4,0.8,3.5c0.4,0.9,1.2,1.8,1.9,2.5c0.7,0.7,1.5,1.3,2.4,1.9c0.6,0.4,1.3,0.8,2,1.1
						c1,0.4,1.9,0.9,3,1c1.5,0.3,2.7,0.3,4.1,0c0.3-0.1,0.6-0.1,0.9-0.2c0.6-0.2,1.2-0.4,1.7-0.8c1-0.6,1.9-1.4,2.4-2.5
						c0.6-1.1,0.8-2.1,0.9-3.3c0.2-1.8-0.5-3.7-1.3-5.3C20.1,223.6,19.2,222.4,18.2,221.4c-0.8-0.8-2-1.3-3.2-1.3
						c-1.1,0-2.4,0.5-3.2,1.3c-1.7,1.8-1.7,4.5,0,6.3c0.2,0.2,0.4,0.4,0.6,0.7c-0.2-0.3-0.5-0.6-0.7-0.9c0.6,0.7,1,1.5,1.4,2.3
						c-0.1-0.4-0.3-0.7-0.4-1.1c0.2,0.6,0.4,1.1,0.5,1.7c-0.1-0.4-0.1-0.8-0.2-1.2c0.1,0.4,0.1,0.7,0,1.1c0.1-0.4,0.1-0.8,0.2-1.2
						c0,0.3-0.1,0.5-0.2,0.7c0.1-0.4,0.3-0.7,0.4-1.1c-0.1,0.2-0.2,0.4-0.3,0.5c0.2-0.3,0.5-0.6,0.7-0.9c-0.1,0.2-0.3,0.3-0.4,0.4
						c0.3-0.2,0.6-0.5,0.9-0.7c-0.2,0.2-0.4,0.3-0.7,0.4c0.4-0.1,0.7-0.3,1.1-0.4c-0.4,0.1-0.8,0.3-1.2,0.3c0.4-0.1,0.8-0.1,1.2-0.2
						c-0.4,0.1-0.9,0-1.3,0c0.4,0.1,0.8,0.1,1.2,0.2c-0.8-0.1-1.5-0.3-2.2-0.6c0.4,0.1,0.7,0.3,1.1,0.4c-0.9-0.4-1.7-0.9-2.5-1.5
						c0.3,0.2,0.6,0.5,0.9,0.7c-0.6-0.5-1.2-1-1.7-1.6c0.2,0.3,0.5,0.6,0.7,0.9c-0.2-0.3-0.4-0.5-0.5-0.8c0.1,0.4,0.3,0.7,0.4,1.1
						c-0.1-0.2-0.1-0.4-0.2-0.7c0.1,0.4,0.1,0.8,0.2,1.2c0-0.2,0-0.4,0-0.7c-0.1,0.4-0.1,0.8-0.2,1.2c0-0.3,0.1-0.5,0.2-0.7
						c-0.1,0.4-0.3,0.7-0.4,1.1c0.1-0.3,0.3-0.6,0.5-0.8c-0.2,0.3-0.5,0.6-0.7,0.9c0.3-0.3,0.6-0.6,0.9-0.9
						c-0.3,0.2-0.6,0.5-0.9,0.7c0.5-0.4,1.1-0.7,1.6-0.9c-0.4,0.1-0.7,0.3-1.1,0.4c0.6-0.2,1.2-0.4,1.8-0.5
						c-0.4,0.1-0.8,0.1-1.2,0.2c0.4-0.1,0.8-0.1,1.2,0c-0.4-0.1-0.8-0.1-1.2-0.2c0.3,0,0.5,0.1,0.7,0.2c-0.4-0.1-0.7-0.3-1.1-0.4
						c0.3,0.1,0.6,0.3,0.8,0.5c-0.3-0.2-0.6-0.5-0.9-0.7c0.3,0.3,0.6,0.6,0.9,0.9c0.8,0.8,2,1.3,3.2,1.3c1.1,0,2.4-0.5,3.2-1.3
						c0.8-0.9,1.4-2,1.3-3.2C19.5,223.3,19.1,222.3,18.2,221.4z"/>
				</g>
			</g>
			<path class="st3" d="M123.3,298.8c0,0,11.3-23.2,14.4-34.1c3.1-10.9,1-35.3-9.3-44.5c-10.3-9.2-13.7-8.7-16.3-7.6
				c-2.6,1.1-6.3,5.3-2.9,9.9c3.4,4.7,9,11.4,7.6,21.5s-1.9,25.6-4.7,29.6"/>
			<path class="st5" d="M121.3,302.5c0,0,7.7-13.2,12.2-26.1s9.4-26.8,2.8-42.4s-16.6-20.5-22-21.4s-9.5,5.1-5.1,9.9
				s8.3,13.5,7.6,21.5c-0.7,8-2,27.1-9.5,36.9"/>
			<g>
				<path class="st7" d="M6.8,228.6c-2-3.3,3.4-6.3,6.2-5.5c0.8,0.2,1.5,0.9,2.1,1.5c2,2.1,4.5,7.1,0,8.1c-2.6,0.6-6.1-1.5-7.8-3.4
					C7.1,229.1,7,228.9,6.8,228.6z"/>
			</g>
			<circle class="st1" cx="117.6" cy="158.7" r="14"/>
			<g>
				<path class="st6" d="M114.2,160.6c0,0,4.3-1.1,4.6-3.9"/>
				<path class="st6" d="M123.3,163.4c0,0,2.8-3.1,1.8-6.6"/>
			</g>
			<rect x="0.2" y="0.2" class="st8" width="243.4" height="333.2"/>
		</g>
	</g>
</g>
</svg>
