<?xml version="1.0" encoding="utf-8"?>
<!-- Generator: Adobe Illustrator 25.2.3, SVG Export Plug-In . SVG Version: 6.00 Build 0)  -->
<svg version="1.1" id="Layer_1" xmlns="http://www.w3.org/2000/svg" xmlns:xlink="http://www.w3.org/1999/xlink" x="0px" y="0px"
	 viewBox="0 0 137.35 124.92" style="enable-background:new 0 0 137.35 124.92;" xml:space="preserve">
<style type="text/css">
	.st0{fill:#FFEDC3;}
	.st1{fill:#FFE19A;}
	.st2{fill:#FFDB94;}
	.st3{fill:#466F41;}
	.st4{fill:none;stroke:#685C4E;stroke-width:2.8346;stroke-linecap:round;stroke-linejoin:round;stroke-miterlimit:10;}
	.st5{fill:#6D655D;}
	.st6{fill:#FF977C;}
	.st7{fill:#FFB9A7;}
</style>
<g>
	<path class="st0" d="M53.55,19.5c0,0,21.04,3.83,35.3,15.13s22.96,21.63,25.22,28.03c0,0-30.43,15.97-57.74,28.14
		c-14.81,6.61-32.65,14.49-45.87,20.32c-5.78,2.55-11.38-3.9-8.05-9.27L53.55,19.5z"/>
	<path class="st1" d="M53.55,19.5c0,0,21.04,3.83,35.3,15.13s22.96,21.63,25.22,28.03c0,0,8.52-18.64,20.17-9.25
		c0,0-4.52-13.22-18.43-25.57S82.59,5.42,67.46,1.42C67.46,1.42,48.51,2.11,53.55,19.5z"/>
	<path class="st2" d="M134.25,53.42c-4-3.86-10.19-2.81-14.12,0.91c-2.82,2.67-6.05,8.34-6.05,8.34s-8.02,4.9-11.59,6.54
		c-29.13,13.43-58.25,26.87-87.38,40.3c-2.54,1.17-5.23,2.37-8.02,2.15c-2.79-0.23-5.63-2.45-5.49-5.25
		c-0.08,4.04,3.08,7.61,6.83,9.1c3.75,1.48,7.97,1.24,11.94,0.53c9.42-1.68,18.2-5.8,26.86-9.87c25.69-12.1,51.38-24.19,77.07-36.29
		c2.7-1.27,5.45-2.57,7.68-4.56C135,62.64,137.85,56.9,134.25,53.42z"/>
	<path class="st2" d="M124.66,52.82c0,0,4.32-2.63,10.16,0c0,0-7.28-21.59-31.15-34.13C103.67,18.68,122.21,41.84,124.66,52.82z"/>
	<path class="st0" d="M55.64,19.5c0,0-2.43-9.91,2.96-12.17c0,0,43.8,12.48,64.86,44.5c0,0-4.42-14.72-20.99-34.13
		c0,0-26.35-14.07-34.76-16.22c0,0-17.8-0.76-14.15,18.02H55.64z"/>
	<g>
		<circle class="st3" cx="100.94" cy="58.42" r="3.39"/>
		<circle class="st4" cx="100.94" cy="58.42" r="3.39"/>
	</g>
	<g>
		<circle class="st3" cx="40.98" cy="64.88" r="3.39"/>
		<circle class="st4" cx="40.98" cy="64.88" r="3.39"/>
	</g>
	<g>
		<circle class="st5" cx="50.55" cy="78.46" r="2.09"/>
		<circle class="st4" cx="50.55" cy="78.46" r="2.09"/>
	</g>
	<g>
		<circle class="st5" cx="84.68" cy="49.39" r="2.09"/>
		<circle class="st4" cx="84.68" cy="49.39" r="2.09"/>
	</g>
	<path class="st4" d="M53.55,19.5c0,0,21.04,3.83,35.3,15.13s22.96,21.63,25.22,28.03c0,0,8.52-18.64,20.17-9.25
		c0,0-4.52-13.22-18.43-25.57S82.59,5.42,67.46,1.42C67.46,1.42,48.51,2.11,53.55,19.5z"/>
	<path class="st4" d="M134.25,53.42c-4-3.86-10.19-2.81-14.12,0.91c-2.82,2.67-6.05,8.34-6.05,8.34s-8.02,4.9-11.59,6.54
		c-29.13,13.43-58.25,26.87-87.38,40.3c-2.54,1.17-5.23,2.37-8.02,2.15c-2.79-0.23-5.63-2.45-5.49-5.25
		c-0.08,4.04,3.08,7.61,6.83,9.1c3.75,1.48,7.97,1.24,11.94,0.53c9.42-1.68,18.2-5.8,26.86-9.87c25.69-12.1,51.38-24.19,77.07-36.29
		c2.7-1.27,5.45-2.57,7.68-4.56C135,62.64,137.85,56.9,134.25,53.42z"/>
	<g>
		<circle class="st6" cx="60.47" cy="44.32" r="14.09"/>
		<path class="st7" d="M50.51,54.3c-1.23-1.34-1.08-5.65-1.03-7.27c0.21-6.41,5.37-11.65,11.09-13.87c1.4-0.54,5.22-1.99,6.68-1.18
			c0,0-9.03-5.01-16.69,2.33C42.91,41.65,47.08,50.55,50.51,54.3z"/>
		<circle class="st4" cx="60.47" cy="44.32" r="14.09"/>
	</g>
	<path class="st2" d="M84.68,84.9c0,3.83,1.74,7.3,4.7,7.3s4.17-2.43,4.17-7.3s0-6.43,0-6.43"/>
	<path class="st2" d="M22.07,111.5c0,0,0,4,0,6.43s-1.39,5.57-4,5.57s-5.22-1.04-5.22-7.83s0-3.48,0-3.48"/>
	<path class="st4" d="M84.68,84.9c0,3.83,1.74,7.3,4.7,7.3s4.17-2.43,4.17-7.3s0-6.43,0-6.43"/>
	<path class="st4" d="M22.07,111.5c0,0,0,4,0,6.43s-1.39,5.57-4,5.57s-5.22-1.04-5.22-7.83s0-3.48,0-3.48"/>
	<g>
		<path class="st6" d="M22.25,69.83c-0.27,0-0.53,0.03-0.8,0.04L9.6,90.08C11.89,94.77,16.68,98,22.25,98
			c7.78,0,14.09-6.31,14.09-14.09S30.03,69.83,22.25,69.83z"/>
		<path class="st4" d="M22.25,69.83c7.78,0,14.09,6.31,14.09,14.09S30.03,98,22.25,98c-5.56,0-10.38-3.23-12.66-7.91"/>
	</g>
	<g>
		<path class="st6" d="M74.73,62.47c-7.78,0-14.09,6.31-14.09,14.09c0,4.02,1.69,7.63,4.39,10.2L88.75,75.4
			C88.16,68.16,82.11,62.47,74.73,62.47z"/>
		<path class="st7" d="M64.56,86.08c-1.23-1.34-1.08-5.65-1.03-7.27c0.21-6.41,5.37-11.65,11.09-13.87c1.4-0.54,5.22-1.99,6.68-1.18
			c0,0-9.03-5.01-16.69,2.33C56.95,73.43,61.13,82.34,64.56,86.08z"/>
		<path class="st4" d="M65.02,86.77c-2.7-2.57-4.38-6.19-4.38-10.21c0-7.78,6.31-14.09,14.09-14.09c6.81,0,12.49,4.83,13.8,11.25"/>
	</g>
	<path class="st4" d="M53.55,19.5c0,0,21.04,3.83,35.3,15.13s22.96,21.63,25.22,28.03c0,0-30.43,15.97-57.74,28.14
		c-14.81,6.61-32.65,14.49-45.87,20.32c-5.78,2.55-11.38-3.9-8.05-9.27L53.55,19.5z"/>
</g>
</svg>
