<?xml version="1.0" encoding="utf-8"?>
<!-- Generator: Adobe Illustrator 25.2.3, SVG Export Plug-In . SVG Version: 6.00 Build 0)  -->
<svg version="1.1" id="Layer_1" xmlns="http://www.w3.org/2000/svg" xmlns:xlink="http://www.w3.org/1999/xlink" x="0px" y="0px"
	 viewBox="0 0 351 452" style="enable-background:new 0 0 351 452;" xml:space="preserve">
<style type="text/css">
	.st0{fill:#80CBBE;}
	.st1{fill:#FFFFFF;stroke:#049260;stroke-width:5.976;stroke-linecap:round;stroke-linejoin:round;stroke-miterlimit:10;}
	.st2{fill:none;stroke:#049260;stroke-width:5.6693;stroke-linecap:round;stroke-linejoin:round;stroke-miterlimit:10;}
	.st3{fill:#F2C0C3;}
	.st4{fill:#049260;}
	.st5{fill:#FFFFFF;}
	.st6{fill:#F3F5DF;}
	.st7{fill:none;stroke:#049260;stroke-width:4.252;stroke-linecap:round;stroke-linejoin:round;stroke-miterlimit:10;}
	.st8{fill:none;stroke:#049260;stroke-width:2.9635;stroke-linecap:round;stroke-linejoin:round;stroke-miterlimit:10;}
</style>
<g>
	<path class="st0" d="M111.27,408.71h114.26l-9.9-61.3c0,0,18.26,12.26,26.35-1.57s0-39.65,0-39.65s-13.3-45.65-27.39-55.57
		c-14.09-9.91-16.17-9.91-16.17-9.91l-18,12c0,0-1.57,13.04-6.26,15.39c-4.7,2.35-10.43,8.61-15.65,4.96
		c-5.22-3.65-12-15.39-12.52-19.57c0,0-24.26-17.22-30.26-27.13l-5.74-1.83c0,0-15.65-1.83-17.74,20.09
		c-2.09,21.91,3.65,66.52,7.83,75.39c4.17,8.87,12.26,25.3,12.26,25.3L111.27,408.71z"/>
	<ellipse class="st1" cx="139.2" cy="324.71" rx="19.04" ry="13.04"/>
	<line class="st2" x1="111.03" y1="408.71" x2="111.03" y2="342.97"/>
	<path class="st2" d="M225.29,408.71c0,0-8.35-50.09-8.87-57.39"/>
	<path class="st2" d="M209.64,302.79c0,0-3.13-13.04-4.17-16.7"/>
	<path class="st2" d="M128.77,273.06c0,0,7.83,21.39,10.43,35.48"/>
	<path class="st2" d="M159.17,323.66c0,0,26.84-16.17,43.34-18.78s24.34,4.7,26.42,9.39c0,0-8.92-4.17-15.94,4.7
		c-7.02,8.87-29.45,30.51-43.02,37.43c-13.57,6.92-24.52,16.83-36,11.62c-11.48-5.22-24.52-23.35-32.35-46.89
		c-7.83-23.54-10.96-54.85-10.43-67.37c0.33-8.02,1.4-17.64,6.63-24.12c5.55-6.86,15.75-5.74,23.42-4.24
		c10.5,2.04,20.9,3.79,31.49,5.53c13.79,2.27,27.74,4.6,41.16,8.58c19.11,5.66,30.76,25.01,39.2,41.9
		c6.78,13.57,12.52,35.48,12.52,49.04s-2.61,20.35-17.22,20.87c-9.63,0.34-33.15-14.45-30.26-13"/>
	<path class="st2" d="M189.79,308.53c0,0-25.02-12.52-50.59,3.13"/>
	<g>
		<path class="st3" d="M163.19,63.66c0,0,5.13-14.45,15.81-16.74c10.68-2.3,18.46-2.55,25.02,2.34c6.56,4.9,9.55,18.52,8.68,22.15
			s-3.17,16.87-17.57,17.99s-31.89-5.55-34.17-12.17c-2.28-6.62-0.13-16.1-0.13-16.1L163.19,63.66z"/>
		<g>
			<g>
				<path class="st4" d="M165.86,64.56c4.05-10.67,15.99-19.37,27.71-17.11c11.21,2.16,18.45,14.18,17.04,25.19
					c-0.68,5.27-3.75,10.44-8.54,12.93c-0.36,0.19-0.72,0.36-1.09,0.52c0.36-0.15-0.03,0.01-0.17,0.06
					c-0.21,0.08-0.42,0.16-0.64,0.23c-0.83,0.28-1.67,0.51-2.52,0.7c-0.45,0.1-0.89,0.18-1.34,0.26c-0.21,0.04-0.42,0.07-0.64,0.1
					c0.39-0.06-0.26,0.03-0.38,0.04c-1,0.11-2.01,0.18-3.02,0.21c-7.97,0.21-16.32-1.76-23.09-6.02c-1.68-1.05-2.63-1.77-4.06-3.21
					c-0.31-0.31-0.6-0.63-0.89-0.96c-0.13-0.15-0.26-0.3-0.38-0.45c-0.23-0.28,0.1,0.16-0.18-0.24c-0.48-0.67-0.92-1.37-1.28-2.11
					c-0.1-0.19-0.19-0.39-0.28-0.59c0.16,0.36,0,0.01-0.05-0.15c-0.13-0.38-0.26-0.76-0.36-1.15c-0.1-0.39-0.18-0.78-0.24-1.18
					c0.06,0.4,0.01,0.04-0.01-0.15c-0.02-0.25-0.04-0.5-0.04-0.75c-0.01-0.38,0-0.77,0.03-1.15c0.01-0.2,0.03-0.39,0.06-0.58
					c-0.06,0.48,0.06-0.26,0.08-0.39c0.18-0.9,0.46-1.8,0.82-2.65c-0.12,0.29,0.11-0.23,0.15-0.3c0.1-0.21,0.21-0.42,0.32-0.63
					c0.27-0.51,0.56-1.01,0.87-1.5c-1.02,0.27-2.04,0.53-3.06,0.8c2.85,2.09,4.98,5.11,6.07,8.46c0.89,2.72,5.21,1.56,4.31-1.19
					c-1.48-4.54-4.29-8.32-8.13-11.13c-1-0.73-2.47-0.14-3.06,0.8c-2.34,3.73-3.57,8.11-2.55,12.47c0.91,3.91,3.57,7.24,6.66,9.7
					c7.26,5.77,17.03,8.51,26.21,8.74c4.14,0.1,8.48-0.33,12.34-1.91c5.59-2.29,9.71-7.2,11.58-12.9
					c4.18-12.8-3.14-28.09-15.53-33.07c-13.13-5.28-28.28,2.83-34.88,14.45c-0.84,1.49-1.54,3.05-2.15,4.65
					c-0.43,1.13,0.48,2.45,1.56,2.75C164.37,66.47,165.43,65.7,165.86,64.56L165.86,64.56z"/>
			</g>
		</g>
		<g>
			<g>
				<path class="st4" d="M198.72,48.46c2.12,6.24,2.01,12.75-0.36,18.91c-2.02,5.24-5.62,9.88-9.95,13.42
					c-1.93,1.58-4.43,3.09-6.48,3.87c-1.13,0.43-1.9,1.51-1.56,2.75c0.3,1.08,1.61,1.99,2.75,1.56
					c11.73-4.45,20.42-16.68,21.52-29.04c0.38-4.27-0.23-8.6-1.61-12.65C202.12,44.56,197.8,45.73,198.72,48.46L198.72,48.46z"/>
			</g>
		</g>
		<path class="st4" d="M124.91,87.01c-0.04-0.03-0.06-0.06-0.06-0.09c0.01-0.9,0.47-1.64,1.2-2.21c0.78-0.79,1.85-1.27,3.05-1.25
			c0.17,0,0.33,0.04,0.49,0.06c0.29-0.02,0.59-0.04,0.89-0.04c2.85,0.05,79.21,2.86,89.22,3.23c1.36-6.97,8.14-12.2,18.8-12.03
			c11.86,0.19,24,6.98,23.87,15.12s-12.49,14.53-24.34,14.34c-10.66-0.17-17.27-5.62-18.4-12.63c-10.02,0.05-86.43,0.39-89.28,0.34
			c-0.3,0-0.6-0.03-0.89-0.06c-0.17,0.02-0.33,0.05-0.5,0.04c-1.19-0.02-2.26-0.54-3.01-1.35c-0.71-0.59-1.14-1.35-1.13-2.24
			c0-0.03,0.02-0.06,0.06-0.09c-0.02-0.19-0.05-0.38-0.05-0.57C124.85,87.39,124.88,87.2,124.91,87.01z"/>
	</g>
	<path class="st5" d="M115.46,167.4c0,0-8.61-1.57-12.52,2.35c-3.91,3.91-7.83,15.91-6,21.65c1.83,5.74,11.74,15.91,16.96,19.3
		c0,0-1.04,15.65,4.96,22.17c6,6.52,22.96,19.3,28.43,20.61c0,0-1.3,10.17,4.43,14.35c5.74,4.17,16.96,9.39,25.57-2.87
		c8.61-12.26,4.96-13.04,4.96-13.04s26.61-17.22,33.13-34.43c0,0,15.65,0,20.61-10.7s5.48-24.26-8.61-21.65c0,0,0.52-10.43,0-14.87
		l-18.78-16.43L104.51,137.4l3.65,7.83c0,0,0.52,8.87,1.04,10.96L115.46,167.4z"/>
	<path class="st3" d="M101.11,144.45l30.78,3.91c0,0,3.91,1.3,7.83,1.57l39.65,5.48c0,0,6.26,2.61,9.13,2.61l30.52,5.48
		c0,0,15.13,5.48,16.17,5.48s4.96-32.09,0.52-41.48s-19.83-34.43-36-39.13c0,0-20.61-4.17-29.48-1.57l-14.61,9.39l-17.74,6
		l-28.7,20.61L101.11,144.45z"/>
	<path class="st6" d="M108.16,145.23c0,0,7.83-24.78,20.35-37.04c0,0-25.3,20.87-27.39,34.43L108.16,145.23z"/>
	<path class="st2" d="M148.07,255.84c0,0-0.02,19.3,16.42,17.22c16.45-2.09,18.03-20.35,18.03-20.35"/>
	<path class="st2" d="M108.94,155.66c0,0,5.22,7.3,4.7,14.09c-0.52,6.78,0.07,27.65,0.04,41.22c-0.04,13.57,6.22,28.7,25.53,39.13
		c19.3,10.43,42.26,6.26,57.91-8.35s22.43-34.96,30.78-63.65"/>
	<path class="st2" d="M225.29,186.92c0,0,12-6.71,13.57,3.19s-3.71,26.26-25.85,29.82"/>
	<path class="st2" d="M231.03,197.4c0,0-6.18,1.62-11.96,8.38"/>
	<path class="st2" d="M113.64,169.75c0,0-10-6.26-15.22,8.87c-5.22,15.13,8.51,28.17,15.25,32.35"/>
	<path class="st2" d="M113.67,189.72c0,0-4.9-3.63-8.21-5.02"/>
	<path class="st2" d="M188.07,158.97c0,0,24.08-2.09,31,5.91c0,0,7.65-28.37-15.5-50.78"/>
	<path class="st2" d="M219.07,166.62c0,0,13.52,2.43,18.05,4.52c0,0,13.77-54.41-32.94-79.56c0,0-24.8-11.92-48.45,1.99"/>
	<path class="st2" d="M182.53,112.36c0,0,10.49,25.39-3.98,45.22c0,0-30.13-4.17-39.34-6.26c0,0,7.83-32,7.13-38.96
		c0,0-14.96,8.35-13.91,36.17c0,0-24.7-3.13-30.96-3.48c0,0,7.18-41.24,54.26-47.65"/>
	<path class="st7" d="M131.03,175.66c0,0,3.48-10.78,14.26-9.04"/>
	<path class="st7" d="M199.2,187.32c0,0-9.57-2.26-17.74,2.96c0,0,10.78,0.7,14.61,5.22"/>
	<path class="st7" d="M163.9,187.49c-0.35,3.48-0.71,8.09-3.13,10.09c-4,3.3-6.09,6.96,1.39,12.52"/>
	<path class="st7" d="M144.13,223.1c1.46,2.97,4.08,5.29,7.08,6.71c9.75,4.6,21.95,1.39,30.4-4.61"/>
	<circle class="st3" cx="121.29" cy="204.71" r="15.3"/>
	<circle class="st3" cx="207.2" cy="215.32" r="16"/>
	<path class="st8" d="M126.68,210.62c0,0,0.87-4.7,2.43-6.09"/>
	<path class="st8" d="M117.64,206.97c0,0,3.65-4.35,5.39-5.22"/>
	<path class="st8" d="M200.07,216.71c0,0,0.87-5.04,2.09-5.91"/>
	<path class="st8" d="M190.16,215.14c0,0,2.96-3.48,4.7-4.35"/>
	<path class="st8" d="M208.79,218.75c0,0,0.05-4.56,0.83-6.35"/>
	
		<ellipse transform="matrix(0.1892 -0.9819 0.9819 0.1892 -63.8082 291.1807)" class="st4" cx="144.42" cy="184.23" rx="9.07" ry="5.41"/>
</g>
</svg>
